<svg id="Layer_1" data-name="Layer 1" xmlns="http://www.w3.org/2000/svg" xmlns:xlink="http://www.w3.org/1999/xlink" width="144" height="144" viewBox="0 0 144 144"><defs><style>.cls-1{fill:#de00eb;}.cls-2{fill:url(#linear-gradient);}.cls-3{fill:url(#linear-gradient-2);}</style><linearGradient id="linear-gradient" x1="18" y1="18" x2="72" y2="72" gradientUnits="userSpaceOnUse"><stop offset="0" stop-color="#de00eb"/><stop offset="1" stop-color="#de00eb" stop-opacity="0"/></linearGradient><linearGradient id="linear-gradient-2" x1="72" y1="72" x2="126" y2="126" xlink:href="#linear-gradient"/></defs><title>ghost-purple</title><polygon class="cls-1" points="18 9 9 9 9 126 18 126 18 18 126 18 126 9 18 9"/><polygon class="cls-1" points="126 9 126 126 9 126 9 135 135 135 135 126 135 9 126 9"/><polygon class="cls-2" points="18 18 18 126 126 18 18 18"/><polygon class="cls-3" points="126 18 18 126 126 126 126 18"/><rect class="cls-1" x="-4.12" y="67.75" width="152.74" height="9" transform="translate(-29.93 72.25) rotate(-45)"/></svg>