<svg id="Layer_1" data-name="Layer 1" xmlns="http://www.w3.org/2000/svg" xmlns:xlink="http://www.w3.org/1999/xlink" width="144" height="144" viewBox="0 0 144 144"><defs><style>.cls-1{fill:url(#linear-gradient);}.cls-2{fill:url(#linear-gradient-2);}.cls-3{fill:url(#linear-gradient-3);}.cls-4{fill:url(#linear-gradient-4);}.cls-5{fill:url(#linear-gradient-5);}</style><linearGradient id="linear-gradient" x2="72" y2="72" gradientUnits="userSpaceOnUse"><stop offset="0" stop-color="#86edfe"/><stop offset="0.25" stop-color="#7dedfe"/><stop offset="0.67" stop-color="#63ebff"/><stop offset="1" stop-color="#4beaff"/></linearGradient><linearGradient id="linear-gradient-2" y1="72" x2="144" y2="72" gradientUnits="userSpaceOnUse"><stop offset="0" stop-color="#1a869d"/><stop offset="0.34" stop-color="#157d98"/><stop offset="0.92" stop-color="#07638a"/><stop offset="1" stop-color="#055f88"/></linearGradient><linearGradient id="linear-gradient-3" x1="9" y1="9" x2="135" y2="135" gradientUnits="userSpaceOnUse"><stop offset="0" stop-color="#0e8199"/><stop offset="0.5" stop-color="#88f1ff"/><stop offset="0.5" stop-color="#84edfb"/><stop offset="0.5" stop-color="#64d0e1"/><stop offset="0.5" stop-color="#49b8cb"/><stop offset="0.5" stop-color="#33a3b8"/><stop offset="0.5" stop-color="#2294aa"/><stop offset="0.5" stop-color="#1789a0"/><stop offset="0.5" stop-color="#10839b"/><stop offset="0.5" stop-color="#0e8199"/><stop offset="1" stop-color="#88f1ff"/></linearGradient><linearGradient id="linear-gradient-4" x1="144" x2="216" y2="72" gradientUnits="userSpaceOnUse"><stop offset="0" stop-color="#a4cffb"/><stop offset="0.2" stop-color="#9bcafb"/><stop offset="0.53" stop-color="#81bcfb"/><stop offset="0.94" stop-color="#58a5fb"/><stop offset="1" stop-color="#52a2fb"/></linearGradient><linearGradient id="linear-gradient-5" x1="211.5" y1="67.5" x2="288" y2="144" gradientUnits="userSpaceOnUse"><stop offset="0" stop-color="#0162c0"/><stop offset="0.18" stop-color="#0259ba"/><stop offset="0.47" stop-color="#063fab"/><stop offset="0.84" stop-color="#0c1692"/><stop offset="1" stop-color="#0f0286"/></linearGradient></defs><title>mino-lightBlue</title><polygon class="cls-1" points="9 0 0 0 0 135 9 135 9 9 135 9 135 0 9 0"/><polygon class="cls-2" points="135 0 135 135 0 135 0 144 144 144 144 135 144 0 135 0"/><rect class="cls-3" x="9" y="9" width="126" height="126"/><polygon class="cls-4" points="153 0 144 0 144 135 153 135 153 9 279 9 279 0 153 0"/><polygon class="cls-5" points="279 0 279 135 144 135 144 144 288 144 288 135 288 0 279 0"/></svg>