<svg id="Layer_1" data-name="Layer 1" xmlns="http://www.w3.org/2000/svg" xmlns:xlink="http://www.w3.org/1999/xlink" width="144" height="144" viewBox="0 0 144 144"><defs><style>.cls-1{fill:url(#linear-gradient);}.cls-2{fill:url(#linear-gradient-2);}.cls-3{fill:url(#linear-gradient-3);}.cls-4{fill:url(#linear-gradient-4);}.cls-5{fill:url(#linear-gradient-5);}.cls-6{opacity:0.15;}</style><linearGradient id="linear-gradient" x2="72" y2="72" gradientUnits="userSpaceOnUse"><stop offset="0" stop-color="#bbfd87"/><stop offset="0.34" stop-color="#b6fd7e"/><stop offset="0.92" stop-color="#a7fd64"/><stop offset="1" stop-color="#a5fd60"/></linearGradient><linearGradient id="linear-gradient-2" x1="67.5" y1="67.5" x2="144" y2="144" gradientUnits="userSpaceOnUse"><stop offset="0" stop-color="#4a9d09"/><stop offset="0.24" stop-color="#459408"/><stop offset="0.63" stop-color="#397a06"/><stop offset="1" stop-color="#2b5d04"/></linearGradient><linearGradient id="linear-gradient-3" x1="9" y1="9" x2="135" y2="135" gradientUnits="userSpaceOnUse"><stop offset="0" stop-color="#478e10"/><stop offset="0.5" stop-color="#9def62"/><stop offset="0.5" stop-color="#93e459"/><stop offset="0.5" stop-color="#7cc942"/><stop offset="0.5" stop-color="#68b330"/><stop offset="0.5" stop-color="#59a221"/><stop offset="0.5" stop-color="#4f9717"/><stop offset="0.5" stop-color="#499012"/><stop offset="0.5" stop-color="#478e10"/><stop offset="1" stop-color="#9def62"/></linearGradient><linearGradient id="linear-gradient-4" x1="144" x2="216" y2="72" gradientUnits="userSpaceOnUse"><stop offset="0" stop-color="#86edfe"/><stop offset="0.25" stop-color="#7dedfe"/><stop offset="0.67" stop-color="#63ebff"/><stop offset="1" stop-color="#4beaff"/></linearGradient><linearGradient id="linear-gradient-5" x1="144" y1="72" x2="288" y2="72" gradientUnits="userSpaceOnUse"><stop offset="0" stop-color="#1a869d"/><stop offset="0.34" stop-color="#157d98"/><stop offset="0.92" stop-color="#07638a"/><stop offset="1" stop-color="#055f88"/></linearGradient></defs><title>stack-green</title><polygon class="cls-1" points="9 0 0 0 0 135 9 135 9 9 135 9 135 0 9 0"/><polygon class="cls-2" points="135 0 135 135 0 135 0 144 144 144 144 135 144 0 135 0"/><rect class="cls-3" x="9" y="9" width="126" height="126"/><polygon class="cls-4" points="153 0 144 0 144 135 153 135 153 9 279 9 279 0 153 0"/><polygon class="cls-5" points="279 0 279 135 144 135 144 144 288 144 288 135 288 0 279 0"/><rect class="cls-6" x="-432" width="1296" height="144"/></svg>