<svg id="Layer_1" data-name="Layer 1" xmlns="http://www.w3.org/2000/svg" xmlns:xlink="http://www.w3.org/1999/xlink" width="144" height="144" viewBox="0 0 144 144"><defs><style>.cls-1{fill:url(#linear-gradient);}.cls-2{fill:url(#linear-gradient-2);}.cls-3{fill:url(#linear-gradient-3);}.cls-4{fill:url(#linear-gradient-4);}.cls-5{fill:url(#linear-gradient-5);}.cls-6{opacity:0.15;}</style><linearGradient id="linear-gradient" x2="72" y2="72" gradientUnits="userSpaceOnUse"><stop offset="0" stop-color="#ffffb8"/><stop offset="0.31" stop-color="#ffffaf"/><stop offset="0.83" stop-color="#ffff95"/><stop offset="0.99" stop-color="#ffff8c"/></linearGradient><linearGradient id="linear-gradient-2" x1="67.5" y1="67.5" x2="144" y2="144" gradientUnits="userSpaceOnUse"><stop offset="0" stop-color="#b68a00"/><stop offset="0.23" stop-color="#ad8200"/><stop offset="0.6" stop-color="#936c00"/><stop offset="1" stop-color="#714f00"/></linearGradient><linearGradient id="linear-gradient-3" x1="9" y1="9" x2="135" y2="135" gradientUnits="userSpaceOnUse"><stop offset="0" stop-color="#efc30f"/><stop offset="0.5" stop-color="#ffff6a"/><stop offset="0.5" stop-color="#fefc65"/><stop offset="0.5" stop-color="#f9ea4a"/><stop offset="0.5" stop-color="#f6dc34"/><stop offset="0.5" stop-color="#f3d123"/><stop offset="0.5" stop-color="#f1c918"/><stop offset="0.5" stop-color="#efc411"/><stop offset="0.5" stop-color="#efc30f"/><stop offset="1" stop-color="#ffff6a"/></linearGradient><linearGradient id="linear-gradient-4" x1="144" x2="216" y2="72" gradientUnits="userSpaceOnUse"><stop offset="0" stop-color="#bbfd87"/><stop offset="0.34" stop-color="#b6fd7e"/><stop offset="0.92" stop-color="#a7fd64"/><stop offset="1" stop-color="#a5fd60"/></linearGradient><linearGradient id="linear-gradient-5" x1="211.5" y1="67.5" x2="288" y2="144" gradientUnits="userSpaceOnUse"><stop offset="0" stop-color="#4a9d09"/><stop offset="0.24" stop-color="#459408"/><stop offset="0.63" stop-color="#397a06"/><stop offset="1" stop-color="#2b5d04"/></linearGradient></defs><title>stack-yellow</title><polygon class="cls-1" points="9 0 0 0 0 135 9 135 9 9 135 9 135 0 9 0"/><polygon class="cls-2" points="135 0 135 135 0 135 0 144 144 144 144 135 144 0 135 0"/><rect class="cls-3" x="9" y="9" width="126" height="126"/><polygon class="cls-4" points="153 0 144 0 144 135 153 135 153 9 279 9 279 0 153 0"/><polygon class="cls-5" points="279 0 279 135 144 135 144 144 288 144 288 135 288 0 279 0"/><rect class="cls-6" x="-288" width="1296" height="144"/></svg>