<svg id="Layer_1" data-name="Layer 1" xmlns="http://www.w3.org/2000/svg" xmlns:xlink="http://www.w3.org/1999/xlink" width="144" height="144" viewBox="0 0 144 144"><defs><style>.cls-1{fill:#606060;}.cls-2{fill:url(#linear-gradient);}.cls-3{fill:url(#linear-gradient-2);}.cls-4{fill:url(#linear-gradient-3);}.cls-5{fill:url(#linear-gradient-4);}.cls-6{fill:url(#linear-gradient-5);}.cls-7{fill:url(#linear-gradient-6);}.cls-8{fill:url(#linear-gradient-7);}.cls-9{fill:url(#linear-gradient-8);}</style><linearGradient id="linear-gradient" x1="18" y1="18" x2="126" y2="126" gradientUnits="userSpaceOnUse"><stop offset="0" stop-color="#444"/><stop offset="0.11" stop-color="#474747"/><stop offset="0.19" stop-color="#505050"/><stop offset="0.25" stop-color="#5f5f5f"/><stop offset="0.31" stop-color="#747474"/><stop offset="0.36" stop-color="#909090"/><stop offset="0.41" stop-color="#b2b2b2"/><stop offset="0.46" stop-color="#d9d9d9"/><stop offset="0.5" stop-color="#fff"/><stop offset="0.54" stop-color="#ddd"/><stop offset="0.58" stop-color="#b5b5b5"/><stop offset="0.64" stop-color="#929292"/><stop offset="0.69" stop-color="#767676"/><stop offset="0.75" stop-color="#606060"/><stop offset="0.82" stop-color="#515151"/><stop offset="0.89" stop-color="#484848"/><stop offset="1" stop-color="#454545"/></linearGradient><linearGradient id="linear-gradient-2" x2="67.5" y2="67.5" gradientUnits="userSpaceOnUse"><stop offset="0" stop-color="#f6f6f6"/><stop offset="0.49" stop-color="#f4f4f4"/><stop offset="0.67" stop-color="#ededed"/><stop offset="0.8" stop-color="#e2e2e2"/><stop offset="0.9" stop-color="#d1d1d1"/><stop offset="0.99" stop-color="#bbb"/><stop offset="1" stop-color="#b7b7b7"/></linearGradient><linearGradient id="linear-gradient-3" x1="9" y1="9" x2="135" y2="135" gradientUnits="userSpaceOnUse"><stop offset="0" stop-color="#f6f6f6"/><stop offset="0.36" stop-color="#f8f8f8"/><stop offset="0.49" stop-color="#fff"/><stop offset="0.49" stop-color="#fff"/><stop offset="0.52" stop-color="#e0e0e0"/><stop offset="0.56" stop-color="#b2b2b2"/><stop offset="0.6" stop-color="#8a8a8a"/><stop offset="0.65" stop-color="#686868"/><stop offset="0.7" stop-color="#4c4c4c"/><stop offset="0.76" stop-color="#373737"/><stop offset="0.82" stop-color="#282828"/><stop offset="0.89" stop-color="#1f1f1f"/><stop offset="1" stop-color="#1c1c1c"/></linearGradient><linearGradient id="linear-gradient-4" x1="76.5" y1="76.5" x2="144" y2="144" gradientUnits="userSpaceOnUse"><stop offset="0" stop-color="#444"/><stop offset="0.01" stop-color="#434343"/><stop offset="0.13" stop-color="#313131"/><stop offset="0.29" stop-color="#252525"/><stop offset="0.5" stop-color="#1e1e1e"/><stop offset="1" stop-color="#1c1c1c"/></linearGradient><linearGradient id="linear-gradient-5" x1="40.5" y1="45" x2="40.5" y2="90" gradientUnits="userSpaceOnUse"><stop offset="0" stop-opacity="0.5"/><stop offset="1" stop-opacity="0"/></linearGradient><linearGradient id="linear-gradient-6" x1="-2182.5" y1="36" x2="-2182.5" y2="81" gradientTransform="translate(-2079 135) rotate(180)" xlink:href="#linear-gradient-5"/><linearGradient id="linear-gradient-7" x1="-2178.7" y1="66.97" x2="-2168.8" y2="57.07" gradientTransform="translate(-2092.3 124.57) rotate(180)" gradientUnits="userSpaceOnUse"><stop offset="0.35" stop-color="#fff"/><stop offset="0.35" stop-color="#fff" stop-opacity="0.96"/><stop offset="0.38" stop-color="#fff" stop-opacity="0.78"/><stop offset="0.41" stop-color="#fff" stop-opacity="0.61"/><stop offset="0.44" stop-color="#fff" stop-opacity="0.47"/><stop offset="0.47" stop-color="#fff" stop-opacity="0.34"/><stop offset="0.51" stop-color="#fff" stop-opacity="0.23"/><stop offset="0.56" stop-color="#fff" stop-opacity="0.15"/><stop offset="0.61" stop-color="#fff" stop-opacity="0.08"/><stop offset="0.67" stop-color="#fff" stop-opacity="0.03"/><stop offset="0.76" stop-color="#fff" stop-opacity="0.01"/><stop offset="1" stop-color="#fff" stop-opacity="0"/></linearGradient><linearGradient id="linear-gradient-8" x1="-143.08" y1="-11.83" x2="-133.18" y2="-21.73" gradientTransform="translate(200.68 98.23)" xlink:href="#linear-gradient-7"/></defs><title>mino-black</title><rect class="cls-1" width="144" height="144"/><rect class="cls-2" x="18" y="18" width="108" height="108"/><polygon class="cls-3" points="9 0 0 0 0 126 9 126 9 9 126 9 126 0 9 0"/><path class="cls-4" d="M9,9V135H135V9ZM126,126H18V18H126Z"/><polygon class="cls-5" points="135 18 135 135 18 135 18 144 144 144 144 135 144 18 135 18"/><polygon class="cls-6" points="18 72 18 45 63 90 18 90 18 72"/><polygon class="cls-7" points="126 72 126 99 81 54 126 54 126 72"/><polygon class="cls-8" points="126 117 27 18 46.8 18 126 97.2 126 117"/><polygon class="cls-9" points="18 27 117 126 97.2 126 18 46.8 18 27"/></svg>