<svg id="Layer_1" data-name="Layer 1" xmlns="http://www.w3.org/2000/svg" xmlns:xlink="http://www.w3.org/1999/xlink" width="144" height="144" viewBox="0 0 144 144"><defs><style>.cls-1{fill:#215bff;}.cls-2{fill:url(#linear-gradient);}.cls-3{fill:url(#linear-gradient-2);}.cls-4{fill:url(#linear-gradient-3);}.cls-5{fill:url(#linear-gradient-4);}.cls-6{fill:url(#linear-gradient-5);}.cls-7{fill:url(#linear-gradient-6);}.cls-8{fill:url(#linear-gradient-7);}.cls-9{fill:url(#linear-gradient-8);}.cls-10{fill:#9125ff;}.cls-11{fill:url(#linear-gradient-9);}</style><linearGradient id="linear-gradient" x1="18" y1="18" x2="126" y2="126" gradientUnits="userSpaceOnUse"><stop offset="0" stop-color="#207efc"/><stop offset="0.11" stop-color="#2380fc"/><stop offset="0.18" stop-color="#2c85fc"/><stop offset="0.24" stop-color="#3b8efc"/><stop offset="0.29" stop-color="#509afd"/><stop offset="0.34" stop-color="#6cabfd"/><stop offset="0.39" stop-color="#8ebffe"/><stop offset="0.44" stop-color="#b6d7fe"/><stop offset="0.48" stop-color="#e4f2ff"/><stop offset="0.5" stop-color="#faffff"/><stop offset="0.52" stop-color="#e7f4ff"/><stop offset="0.56" stop-color="#b9d9fe"/><stop offset="0.61" stop-color="#90c0fe"/><stop offset="0.66" stop-color="#6dacfd"/><stop offset="0.71" stop-color="#519bfd"/><stop offset="0.77" stop-color="#3b8efc"/><stop offset="0.83" stop-color="#2c85fc"/><stop offset="0.9" stop-color="#2380fc"/><stop offset="1" stop-color="#207efc"/></linearGradient><linearGradient id="linear-gradient-2" x2="67.5" y2="67.5" gradientUnits="userSpaceOnUse"><stop offset="0" stop-color="#dbedff"/><stop offset="0.5" stop-color="#d9ecff"/><stop offset="0.68" stop-color="#d2eaff"/><stop offset="0.81" stop-color="#c7e5ff"/><stop offset="0.91" stop-color="#b6dfff"/><stop offset="1" stop-color="#a0d6ff"/><stop offset="1" stop-color="#9fd6ff"/></linearGradient><linearGradient id="linear-gradient-3" x1="9" y1="9" x2="135" y2="135" gradientUnits="userSpaceOnUse"><stop offset="0" stop-color="#dbedff"/><stop offset="0.27" stop-color="#def"/><stop offset="0.37" stop-color="#e4f1ff"/><stop offset="0.44" stop-color="#eff7ff"/><stop offset="0.49" stop-color="#fff"/><stop offset="0.49" stop-color="#f8f9fd"/><stop offset="0.53" stop-color="#c5cbee"/><stop offset="0.58" stop-color="#96a0e0"/><stop offset="0.62" stop-color="#6e7cd4"/><stop offset="0.67" stop-color="#4c5dca"/><stop offset="0.72" stop-color="#3044c1"/><stop offset="0.77" stop-color="#1b31bb"/><stop offset="0.83" stop-color="#0c23b6"/><stop offset="0.9" stop-color="#031bb4"/><stop offset="1" stop-color="#0019b3"/></linearGradient><linearGradient id="linear-gradient-4" x1="76.5" y1="76.5" x2="144" y2="144" gradientUnits="userSpaceOnUse"><stop offset="0" stop-color="#002bd9"/><stop offset="0.03" stop-color="#0029d4"/><stop offset="0.15" stop-color="#0020c2"/><stop offset="0.3" stop-color="#001ab6"/><stop offset="0.51" stop-color="#0017af"/><stop offset="1" stop-color="#0016ad"/></linearGradient><linearGradient id="linear-gradient-5" x1="40.5" y1="45" x2="40.5" y2="90" gradientUnits="userSpaceOnUse"><stop offset="0" stop-opacity="0.5"/><stop offset="1" stop-opacity="0"/></linearGradient><linearGradient id="linear-gradient-6" x1="-1318.5" y1="36" x2="-1318.5" y2="81" gradientTransform="translate(-1215 135) rotate(180)" xlink:href="#linear-gradient-5"/><linearGradient id="linear-gradient-7" x1="-1314.7" y1="66.97" x2="-1304.8" y2="57.07" gradientTransform="translate(-1228.3 124.57) rotate(180)" gradientUnits="userSpaceOnUse"><stop offset="0.35" stop-color="#fff"/><stop offset="0.35" stop-color="#fff" stop-opacity="0.96"/><stop offset="0.38" stop-color="#fff" stop-opacity="0.78"/><stop offset="0.41" stop-color="#fff" stop-opacity="0.61"/><stop offset="0.44" stop-color="#fff" stop-opacity="0.47"/><stop offset="0.47" stop-color="#fff" stop-opacity="0.34"/><stop offset="0.51" stop-color="#fff" stop-opacity="0.23"/><stop offset="0.56" stop-color="#fff" stop-opacity="0.15"/><stop offset="0.61" stop-color="#fff" stop-opacity="0.08"/><stop offset="0.67" stop-color="#fff" stop-opacity="0.03"/><stop offset="0.76" stop-color="#fff" stop-opacity="0.01"/><stop offset="1" stop-color="#fff" stop-opacity="0"/></linearGradient><linearGradient id="linear-gradient-8" x1="-143.08" y1="-11.83" x2="-133.18" y2="-21.73" gradientTransform="translate(200.68 98.23)" xlink:href="#linear-gradient-7"/><linearGradient id="linear-gradient-9" x1="144" x2="211.5" y2="67.5" gradientUnits="userSpaceOnUse"><stop offset="0" stop-color="#ffd6ff"/><stop offset="0.54" stop-color="#ffd4ff"/><stop offset="0.73" stop-color="#ffcdff"/><stop offset="0.87" stop-color="#ffc2ff"/><stop offset="0.98" stop-color="#ffb1ff"/><stop offset="1" stop-color="#ffadff"/></linearGradient></defs><title>mino-blue</title><rect class="cls-1" width="144" height="144"/><rect class="cls-2" x="18" y="18" width="108" height="108"/><polygon class="cls-3" points="9 0 0 0 0 126 9 126 9 9 126 9 126 0 9 0"/><path class="cls-4" d="M9,9V135H135V9ZM126,126H18V18H126Z"/><polygon class="cls-5" points="135 18 135 135 18 135 18 144 144 144 144 135 144 18 135 18"/><polygon class="cls-6" points="18 72 18 45 63 90 18 90 18 72"/><polygon class="cls-7" points="126 72 126 99 81 54 126 54 126 72"/><polygon class="cls-8" points="126 117 27 18 46.8 18 126 97.2 126 117"/><polygon class="cls-9" points="18 27 117 126 97.2 126 18 46.8 18 27"/><rect class="cls-10" x="144" width="144" height="144"/><polygon class="cls-11" points="153 0 144 0 144 126 153 126 153 9 270 9 270 0 153 0"/></svg>