<svg id="Layer_1" data-name="Layer 1" xmlns="http://www.w3.org/2000/svg" xmlns:xlink="http://www.w3.org/1999/xlink" width="144" height="144" viewBox="0 0 144 144"><defs><style>.cls-1{fill:#ffc601;}.cls-2{fill:url(#linear-gradient);}.cls-3{fill:url(#linear-gradient-2);}.cls-4{fill:url(#linear-gradient-3);}.cls-5{fill:url(#linear-gradient-4);}.cls-6{fill:url(#linear-gradient-5);}.cls-7{fill:url(#linear-gradient-6);}.cls-8{fill:url(#linear-gradient-7);}.cls-9{fill:url(#linear-gradient-8);}.cls-10{fill:#27ea00;}.cls-11{fill:url(#linear-gradient-9);}</style><linearGradient id="linear-gradient" x1="18" y1="18" x2="126" y2="126" gradientUnits="userSpaceOnUse"><stop offset="0" stop-color="#fdea43"/><stop offset="0.12" stop-color="#fdea46"/><stop offset="0.2" stop-color="#fdec4f"/><stop offset="0.27" stop-color="#fdee5e"/><stop offset="0.33" stop-color="#fef173"/><stop offset="0.39" stop-color="#fef48f"/><stop offset="0.44" stop-color="#fef9b1"/><stop offset="0.5" stop-color="#fffed8"/><stop offset="0.5" stop-color="#ffffdc"/><stop offset="0.5" stop-color="#ffffda"/><stop offset="0.55" stop-color="#fef9b2"/><stop offset="0.61" stop-color="#fef590"/><stop offset="0.67" stop-color="#fef174"/><stop offset="0.73" stop-color="#fdee5e"/><stop offset="0.8" stop-color="#fdec4f"/><stop offset="0.88" stop-color="#fdea46"/><stop offset="1" stop-color="#fdea43"/></linearGradient><linearGradient id="linear-gradient-2" x2="67.5" y2="67.5" gradientUnits="userSpaceOnUse"><stop offset="0" stop-color="#ffffd5"/><stop offset="0.49" stop-color="#ffffd3"/><stop offset="0.66" stop-color="#ffc"/><stop offset="0.79" stop-color="#ffffc1"/><stop offset="0.89" stop-color="#ffffb0"/><stop offset="0.97" stop-color="#ffff9a"/><stop offset="1" stop-color="#ffff91"/></linearGradient><linearGradient id="linear-gradient-3" x1="9" y1="9" x2="135" y2="135" gradientUnits="userSpaceOnUse"><stop offset="0" stop-color="#ffffd5"/><stop offset="0.26" stop-color="#ffffd7"/><stop offset="0.36" stop-color="#ffffde"/><stop offset="0.42" stop-color="#ffffe9"/><stop offset="0.48" stop-color="#fffffa"/><stop offset="0.49" stop-color="#fff"/><stop offset="0.49" stop-color="#fcfcf8"/><stop offset="0.53" stop-color="#e1e1c5"/><stop offset="0.58" stop-color="#cac996"/><stop offset="0.62" stop-color="#b5b46e"/><stop offset="0.67" stop-color="#a4a24c"/><stop offset="0.72" stop-color="#969430"/><stop offset="0.77" stop-color="#8b891b"/><stop offset="0.83" stop-color="#83810c"/><stop offset="0.9" stop-color="#7e7c03"/><stop offset="1" stop-color="#7d7b00"/></linearGradient><linearGradient id="linear-gradient-4" x1="76.5" y1="76.5" x2="144" y2="144" gradientUnits="userSpaceOnUse"><stop offset="0" stop-color="#bdbc00"/><stop offset="0.05" stop-color="#aead00"/><stop offset="0.14" stop-color="#989600"/><stop offset="0.24" stop-color="#878500"/><stop offset="0.37" stop-color="#7b7900"/><stop offset="0.55" stop-color="#747200"/><stop offset="1" stop-color="#727000"/></linearGradient><linearGradient id="linear-gradient-5" x1="40.5" y1="45" x2="40.5" y2="90" gradientUnits="userSpaceOnUse"><stop offset="0" stop-opacity="0.5"/><stop offset="1" stop-opacity="0"/></linearGradient><linearGradient id="linear-gradient-6" x1="-454.5" y1="324" x2="-454.5" y2="369" gradientTransform="translate(-351 423) rotate(180)" xlink:href="#linear-gradient-5"/><linearGradient id="linear-gradient-7" x1="-450.7" y1="354.97" x2="-440.8" y2="345.07" gradientTransform="translate(-364.3 412.57) rotate(180)" gradientUnits="userSpaceOnUse"><stop offset="0.35" stop-color="#fff"/><stop offset="0.35" stop-color="#fff" stop-opacity="0.96"/><stop offset="0.38" stop-color="#fff" stop-opacity="0.78"/><stop offset="0.41" stop-color="#fff" stop-opacity="0.61"/><stop offset="0.44" stop-color="#fff" stop-opacity="0.47"/><stop offset="0.47" stop-color="#fff" stop-opacity="0.34"/><stop offset="0.51" stop-color="#fff" stop-opacity="0.23"/><stop offset="0.56" stop-color="#fff" stop-opacity="0.15"/><stop offset="0.61" stop-color="#fff" stop-opacity="0.08"/><stop offset="0.67" stop-color="#fff" stop-opacity="0.03"/><stop offset="0.76" stop-color="#fff" stop-opacity="0.01"/><stop offset="1" stop-color="#fff" stop-opacity="0"/></linearGradient><linearGradient id="linear-gradient-8" x1="-143.08" y1="-11.83" x2="-133.18" y2="-21.73" gradientTransform="translate(200.68 98.23)" xlink:href="#linear-gradient-7"/><linearGradient id="linear-gradient-9" x1="144" x2="211.5" y2="67.5" gradientUnits="userSpaceOnUse"><stop offset="0" stop-color="#e2ffd7"/><stop offset="0.5" stop-color="#e1ffd5"/><stop offset="0.68" stop-color="#deffce"/><stop offset="0.81" stop-color="#d8ffc3"/><stop offset="0.92" stop-color="#d0ffb2"/><stop offset="1" stop-color="#c7ff9e"/></linearGradient></defs><title>stack-yellow</title><rect class="cls-1" width="144" height="144"/><rect class="cls-2" x="18" y="18" width="108" height="108"/><polygon class="cls-3" points="9 0 0 0 0 126 9 126 9 9 126 9 126 0 9 0"/><path class="cls-4" d="M9,9V135H135V9ZM126,126H18V18H126Z"/><polygon class="cls-5" points="135 18 135 135 18 135 18 144 144 144 144 135 144 18 135 18"/><polygon class="cls-6" points="18 72 18 45 63 90 18 90 18 72"/><polygon class="cls-7" points="126 72 126 99 81 54 126 54 126 72"/><polygon class="cls-8" points="126 117 27 18 46.8 18 126 97.2 126 117"/><polygon class="cls-9" points="18 27 117 126 97.2 126 18 46.8 18 27"/><rect class="cls-10" x="144" width="144" height="144"/><polygon class="cls-11" points="153 0 144 0 144 126 153 126 153 9 270 9 270 0 153 0"/></svg>