<svg id="Layer_1" data-name="Layer 1" xmlns="http://www.w3.org/2000/svg" xmlns:xlink="http://www.w3.org/1999/xlink" width="144" height="144" viewBox="0 0 144 144"><defs><style>.cls-1{fill:#9125ff;}.cls-2{fill:url(#linear-gradient);}.cls-3{fill:url(#linear-gradient-2);}.cls-4{fill:url(#linear-gradient-3);}.cls-5{fill:url(#linear-gradient-4);}.cls-6{fill:url(#linear-gradient-5);}.cls-7{fill:url(#linear-gradient-6);}.cls-8{fill:url(#linear-gradient-7);}.cls-9{fill:url(#linear-gradient-8);}.cls-10{fill:#b4b4b4;}.cls-11{fill:url(#linear-gradient-9);}</style><linearGradient id="linear-gradient" x1="18" y1="18" x2="126" y2="126" gradientUnits="userSpaceOnUse"><stop offset="0" stop-color="#9024fc"/><stop offset="0.11" stop-color="#9127fc"/><stop offset="0.18" stop-color="#9630fc"/><stop offset="0.24" stop-color="#9e3ffc"/><stop offset="0.29" stop-color="#a954fd"/><stop offset="0.34" stop-color="#b770fd"/><stop offset="0.39" stop-color="#c892fe"/><stop offset="0.44" stop-color="#ddbafe"/><stop offset="0.48" stop-color="#f4e8ff"/><stop offset="0.5" stop-color="#fffdff"/><stop offset="0.51" stop-color="#f6ecff"/><stop offset="0.56" stop-color="#debefe"/><stop offset="0.61" stop-color="#c995fd"/><stop offset="0.66" stop-color="#b772fc"/><stop offset="0.71" stop-color="#a856fb"/><stop offset="0.76" stop-color="#9d40fb"/><stop offset="0.83" stop-color="#9531fa"/><stop offset="0.9" stop-color="#9028fa"/><stop offset="1" stop-color="#8f25fa"/></linearGradient><linearGradient id="linear-gradient-2" x2="67.5" y2="67.5" gradientUnits="userSpaceOnUse"><stop offset="0" stop-color="#ffd6ff"/><stop offset="0.54" stop-color="#ffd4ff"/><stop offset="0.73" stop-color="#ffcdff"/><stop offset="0.87" stop-color="#ffc2ff"/><stop offset="0.98" stop-color="#ffb1ff"/><stop offset="1" stop-color="#ffadff"/></linearGradient><linearGradient id="linear-gradient-3" x1="9" y1="9" x2="135" y2="135" gradientUnits="userSpaceOnUse"><stop offset="0" stop-color="#ffd6ff"/><stop offset="0.26" stop-color="#ffd8ff"/><stop offset="0.36" stop-color="#ffdfff"/><stop offset="0.43" stop-color="#ffeaff"/><stop offset="0.48" stop-color="#fffbff"/><stop offset="0.49" stop-color="#fff"/><stop offset="0.49" stop-color="#faf8fd"/><stop offset="0.53" stop-color="#d3c5ee"/><stop offset="0.58" stop-color="#b096e0"/><stop offset="0.62" stop-color="#916ed4"/><stop offset="0.67" stop-color="#774cca"/><stop offset="0.72" stop-color="#6230c1"/><stop offset="0.77" stop-color="#521bbb"/><stop offset="0.83" stop-color="#470cb6"/><stop offset="0.9" stop-color="#4003b4"/><stop offset="1" stop-color="#3e00b3"/></linearGradient><linearGradient id="linear-gradient-4" x1="76.5" y1="76.5" x2="144" y2="144" gradientUnits="userSpaceOnUse"><stop offset="0" stop-color="#6a00d9"/><stop offset="0.06" stop-color="#5e00cf"/><stop offset="0.18" stop-color="#4c00c0"/><stop offset="0.33" stop-color="#4000b5"/><stop offset="0.52" stop-color="#3900af"/><stop offset="1" stop-color="#3700ad"/></linearGradient><linearGradient id="linear-gradient-5" x1="40.5" y1="45" x2="40.5" y2="90" gradientUnits="userSpaceOnUse"><stop offset="0" stop-opacity="0.5"/><stop offset="1" stop-opacity="0"/></linearGradient><linearGradient id="linear-gradient-6" x1="-1606.5" y1="324" x2="-1606.5" y2="369" gradientTransform="translate(-1503 423) rotate(180)" xlink:href="#linear-gradient-5"/><linearGradient id="linear-gradient-7" x1="-1602.7" y1="354.97" x2="-1592.8" y2="345.07" gradientTransform="translate(-1516.3 412.57) rotate(180)" gradientUnits="userSpaceOnUse"><stop offset="0.35" stop-color="#fff"/><stop offset="0.35" stop-color="#fff" stop-opacity="0.96"/><stop offset="0.38" stop-color="#fff" stop-opacity="0.78"/><stop offset="0.41" stop-color="#fff" stop-opacity="0.61"/><stop offset="0.44" stop-color="#fff" stop-opacity="0.47"/><stop offset="0.47" stop-color="#fff" stop-opacity="0.34"/><stop offset="0.51" stop-color="#fff" stop-opacity="0.23"/><stop offset="0.56" stop-color="#fff" stop-opacity="0.15"/><stop offset="0.61" stop-color="#fff" stop-opacity="0.08"/><stop offset="0.67" stop-color="#fff" stop-opacity="0.03"/><stop offset="0.76" stop-color="#fff" stop-opacity="0.01"/><stop offset="1" stop-color="#fff" stop-opacity="0"/></linearGradient><linearGradient id="linear-gradient-8" x1="-143.08" y1="-11.83" x2="-133.18" y2="-21.73" gradientTransform="translate(200.68 98.23)" xlink:href="#linear-gradient-7"/><linearGradient id="linear-gradient-9" x1="144" x2="211.5" y2="67.5" gradientUnits="userSpaceOnUse"><stop offset="0" stop-color="#f6f6f6"/><stop offset="0.62" stop-color="#f4f4f4"/><stop offset="0.84" stop-color="#ededed"/><stop offset="0.99" stop-color="#e2e2e2"/><stop offset="1" stop-color="#e1e1e1"/></linearGradient></defs><title>stack-purple</title><rect class="cls-1" width="144" height="144"/><rect class="cls-2" x="18" y="18" width="108" height="108"/><polygon class="cls-3" points="9 0 0 0 0 126 9 126 9 9 126 9 126 0 9 0"/><path class="cls-4" d="M9,9V135H135V9ZM126,126H18V18H126Z"/><polygon class="cls-5" points="135 18 135 135 18 135 18 144 144 144 144 135 144 18 135 18"/><polygon class="cls-6" points="18 72 18 45 63 90 18 90 18 72"/><polygon class="cls-7" points="126 72 126 99 81 54 126 54 126 72"/><polygon class="cls-8" points="126 117 27 18 46.8 18 126 97.2 126 117"/><polygon class="cls-9" points="18 27 117 126 97.2 126 18 46.8 18 27"/><rect class="cls-10" x="144" width="144" height="144"/><polygon class="cls-11" points="153 0 144 0 144 126 153 126 153 9 270 9 270 0 153 0"/></svg>