<svg id="Layer_1" data-name="Layer 1" xmlns="http://www.w3.org/2000/svg" xmlns:xlink="http://www.w3.org/1999/xlink" width="144" height="144" viewBox="0 0 144 144"><defs><style>.cls-1{fill:#ff7f01;}.cls-2{fill:url(#linear-gradient);}.cls-3{fill:url(#linear-gradient-2);}.cls-4{fill:url(#linear-gradient-3);}.cls-5{fill:url(#linear-gradient-4);}.cls-6{fill:#ffc601;}.cls-7{fill:url(#linear-gradient-5);}.cls-8{fill:url(#linear-gradient-6);}.cls-9{fill:url(#linear-gradient-7);}.cls-10{fill:url(#linear-gradient-8);}.cls-11{fill:url(#linear-gradient-9);}</style><linearGradient id="linear-gradient" x1="18" y1="18" x2="126" y2="126" gradientUnits="userSpaceOnUse"><stop offset="0" stop-color="#fcb100"/><stop offset="0.11" stop-color="#fcb203"/><stop offset="0.18" stop-color="#fcb50c"/><stop offset="0.24" stop-color="#fcbb1b"/><stop offset="0.29" stop-color="#fdc230"/><stop offset="0.34" stop-color="#fdcc4c"/><stop offset="0.39" stop-color="#fed86e"/><stop offset="0.44" stop-color="#fee796"/><stop offset="0.48" stop-color="#fff7c4"/><stop offset="0.5" stop-color="#ffffda"/><stop offset="0.52" stop-color="#fff8c7"/><stop offset="0.56" stop-color="#fee899"/><stop offset="0.61" stop-color="#fed970"/><stop offset="0.66" stop-color="#fdcd4d"/><stop offset="0.71" stop-color="#fdc331"/><stop offset="0.77" stop-color="#fcbb1b"/><stop offset="0.83" stop-color="#fcb50c"/><stop offset="0.9" stop-color="#fcb203"/><stop offset="1" stop-color="#fcb100"/></linearGradient><linearGradient id="linear-gradient-2" x2="67.5" y2="67.5" gradientUnits="userSpaceOnUse"><stop offset="0" stop-color="#fffcd7"/><stop offset="0.52" stop-color="#fffcd5"/><stop offset="0.71" stop-color="#ffface"/><stop offset="0.84" stop-color="#fff8c3"/><stop offset="0.95" stop-color="#fff4b2"/><stop offset="1" stop-color="#fff2a7"/></linearGradient><linearGradient id="linear-gradient-3" x1="9" y1="9" x2="135" y2="135" gradientUnits="userSpaceOnUse"><stop offset="0" stop-color="#fffcd7"/><stop offset="0.26" stop-color="#fffcd9"/><stop offset="0.36" stop-color="#fffde0"/><stop offset="0.43" stop-color="#fffeeb"/><stop offset="0.48" stop-color="#fffffc"/><stop offset="0.49" stop-color="#fff"/><stop offset="0.49" stop-color="#fcfaf8"/><stop offset="0.53" stop-color="#e1cfc5"/><stop offset="0.58" stop-color="#c9a896"/><stop offset="0.62" stop-color="#b4866e"/><stop offset="0.67" stop-color="#a26a4c"/><stop offset="0.72" stop-color="#945330"/><stop offset="0.77" stop-color="#89411b"/><stop offset="0.83" stop-color="#81350c"/><stop offset="0.9" stop-color="#7c2d03"/><stop offset="1" stop-color="#7b2b00"/></linearGradient><linearGradient id="linear-gradient-4" x1="76.5" y1="76.5" x2="144" y2="144" gradientUnits="userSpaceOnUse"><stop offset="0" stop-color="#bc4a00"/><stop offset="0.05" stop-color="#ad4300"/><stop offset="0.14" stop-color="#963800"/><stop offset="0.24" stop-color="#853000"/><stop offset="0.37" stop-color="#792a00"/><stop offset="0.55" stop-color="#722700"/><stop offset="1" stop-color="#702600"/></linearGradient><linearGradient id="linear-gradient-5" x1="144" x2="211.5" y2="67.5" gradientUnits="userSpaceOnUse"><stop offset="0" stop-color="#ffffd5"/><stop offset="0.49" stop-color="#ffffd3"/><stop offset="0.66" stop-color="#ffc"/><stop offset="0.79" stop-color="#ffffc1"/><stop offset="0.89" stop-color="#ffffb0"/><stop offset="0.97" stop-color="#ffff9a"/><stop offset="1" stop-color="#ffff91"/></linearGradient><linearGradient id="linear-gradient-6" x1="40.5" y1="45" x2="40.5" y2="90" gradientUnits="userSpaceOnUse"><stop offset="0" stop-opacity="0.5"/><stop offset="1" stop-opacity="0"/></linearGradient><linearGradient id="linear-gradient-7" x1="-166.5" y1="324" x2="-166.5" y2="369" gradientTransform="translate(-63 423) rotate(180)" xlink:href="#linear-gradient-6"/><linearGradient id="linear-gradient-8" x1="-162.7" y1="354.97" x2="-152.8" y2="345.07" gradientTransform="translate(-76.3 412.57) rotate(180)" gradientUnits="userSpaceOnUse"><stop offset="0.35" stop-color="#fff"/><stop offset="0.35" stop-color="#fff" stop-opacity="0.96"/><stop offset="0.38" stop-color="#fff" stop-opacity="0.78"/><stop offset="0.41" stop-color="#fff" stop-opacity="0.61"/><stop offset="0.44" stop-color="#fff" stop-opacity="0.47"/><stop offset="0.47" stop-color="#fff" stop-opacity="0.34"/><stop offset="0.51" stop-color="#fff" stop-opacity="0.23"/><stop offset="0.56" stop-color="#fff" stop-opacity="0.15"/><stop offset="0.61" stop-color="#fff" stop-opacity="0.08"/><stop offset="0.67" stop-color="#fff" stop-opacity="0.03"/><stop offset="0.76" stop-color="#fff" stop-opacity="0.01"/><stop offset="1" stop-color="#fff" stop-opacity="0"/></linearGradient><linearGradient id="linear-gradient-9" x1="-143.08" y1="-11.83" x2="-133.18" y2="-21.73" gradientTransform="translate(200.68 98.23)" xlink:href="#linear-gradient-8"/></defs><title>stack-orange</title><rect class="cls-1" width="144" height="144"/><rect class="cls-2" x="18" y="18" width="108" height="108"/><polygon class="cls-3" points="9 0 0 0 0 126 9 126 9 9 126 9 126 0 9 0"/><path class="cls-4" d="M9,9V135H135V9ZM126,126H18V18H126Z"/><polygon class="cls-5" points="135 18 135 135 18 135 18 144 144 144 144 135 144 18 135 18"/><rect class="cls-6" x="144" width="144" height="144"/><polygon class="cls-7" points="153 0 144 0 144 126 153 126 153 9 270 9 270 0 153 0"/><polygon class="cls-8" points="18 72 18 45 63 90 18 90 18 72"/><polygon class="cls-9" points="126 72 126 99 81 54 126 54 126 72"/><polygon class="cls-10" points="126 117 27 18 46.8 18 126 97.2 126 117"/><polygon class="cls-11" points="18 27 117 126 97.2 126 18 46.8 18 27"/></svg>