<svg id="Layer_1" data-name="Layer 1" xmlns="http://www.w3.org/2000/svg" xmlns:xlink="http://www.w3.org/1999/xlink" width="144" height="144" viewBox="0 0 144 144"><defs><style>.cls-1{fill:#ff0101;}.cls-2{fill:url(#linear-gradient);}.cls-3{fill:url(#linear-gradient-2);}.cls-4{fill:url(#linear-gradient-3);}.cls-5{fill:url(#linear-gradient-4);}.cls-6{fill:url(#linear-gradient-5);}.cls-7{fill:url(#linear-gradient-6);}.cls-8{fill:url(#linear-gradient-7);}.cls-9{fill:url(#linear-gradient-8);}.cls-10{fill:url(#linear-gradient-9);}</style><linearGradient id="linear-gradient" x1="18" y1="18" x2="126" y2="126" gradientUnits="userSpaceOnUse"><stop offset="0" stop-color="#fc014d"/><stop offset="0.11" stop-color="#fc044f"/><stop offset="0.18" stop-color="#fc0d56"/><stop offset="0.24" stop-color="#fc1c63"/><stop offset="0.29" stop-color="#fd3174"/><stop offset="0.34" stop-color="#fd4d8b"/><stop offset="0.39" stop-color="#fe6fa7"/><stop offset="0.44" stop-color="#fe97c8"/><stop offset="0.48" stop-color="#ffc5ed"/><stop offset="0.5" stop-color="#ffdbff"/><stop offset="0.52" stop-color="#ffc8f0"/><stop offset="0.56" stop-color="#fe9aca"/><stop offset="0.61" stop-color="#fe71a8"/><stop offset="0.66" stop-color="#fd4e8c"/><stop offset="0.71" stop-color="#fd3275"/><stop offset="0.77" stop-color="#fc1c63"/><stop offset="0.83" stop-color="#fc0d57"/><stop offset="0.9" stop-color="#fc044f"/><stop offset="1" stop-color="#fc014d"/></linearGradient><linearGradient id="linear-gradient-2" x2="67.5" y2="67.5" gradientUnits="userSpaceOnUse"><stop offset="0" stop-color="#ffe5e2"/><stop offset="0.44" stop-color="#ffe3e1"/><stop offset="0.6" stop-color="#ffdcdc"/><stop offset="0.71" stop-color="#ffd1d5"/><stop offset="0.81" stop-color="#ffc0ca"/><stop offset="0.89" stop-color="#ffaabc"/><stop offset="0.95" stop-color="#ff8fab"/><stop offset="1" stop-color="#ff789c"/></linearGradient><linearGradient id="linear-gradient-3" x1="9" y1="9" x2="135" y2="135" gradientUnits="userSpaceOnUse"><stop offset="0" stop-color="#ffe5e2"/><stop offset="0.28" stop-color="#ffe7e4"/><stop offset="0.38" stop-color="#ffedeb"/><stop offset="0.46" stop-color="#fff7f6"/><stop offset="0.49" stop-color="#fff"/><stop offset="0.49" stop-color="#fcf8f8"/><stop offset="0.53" stop-color="#e1c5c5"/><stop offset="0.58" stop-color="#c99696"/><stop offset="0.62" stop-color="#b46e6e"/><stop offset="0.67" stop-color="#a24c4c"/><stop offset="0.72" stop-color="#943030"/><stop offset="0.77" stop-color="#891b1b"/><stop offset="0.83" stop-color="#810c0c"/><stop offset="0.9" stop-color="#7c0303"/><stop offset="1" stop-color="#7b0000"/></linearGradient><linearGradient id="linear-gradient-4" x1="76.5" y1="76.5" x2="144" y2="144" gradientUnits="userSpaceOnUse"><stop offset="0" stop-color="#bc0000"/><stop offset="0.05" stop-color="#ad0000"/><stop offset="0.14" stop-color="#960000"/><stop offset="0.24" stop-color="#850000"/><stop offset="0.37" stop-color="#790000"/><stop offset="0.55" stop-color="#720000"/><stop offset="1" stop-color="#700000"/></linearGradient><linearGradient id="linear-gradient-5" x1="144" x2="211.5" y2="67.5" gradientUnits="userSpaceOnUse"><stop offset="0" stop-color="#fffcd7"/><stop offset="0.52" stop-color="#fffcd5"/><stop offset="0.71" stop-color="#ffface"/><stop offset="0.84" stop-color="#fff8c3"/><stop offset="0.95" stop-color="#fff4b2"/><stop offset="1" stop-color="#fff2a7"/></linearGradient><linearGradient id="linear-gradient-6" x1="40.5" y1="45" x2="40.5" y2="90" gradientUnits="userSpaceOnUse"><stop offset="0" stop-opacity="0.5"/><stop offset="1" stop-opacity="0"/></linearGradient><linearGradient id="linear-gradient-7" x1="121.5" y1="324" x2="121.5" y2="369" gradientTransform="translate(225 423) rotate(180)" xlink:href="#linear-gradient-6"/><linearGradient id="linear-gradient-8" x1="125.3" y1="354.97" x2="135.2" y2="345.07" gradientTransform="translate(211.7 412.57) rotate(180)" gradientUnits="userSpaceOnUse"><stop offset="0.35" stop-color="#fff"/><stop offset="0.35" stop-color="#fff" stop-opacity="0.96"/><stop offset="0.38" stop-color="#fff" stop-opacity="0.78"/><stop offset="0.41" stop-color="#fff" stop-opacity="0.61"/><stop offset="0.44" stop-color="#fff" stop-opacity="0.47"/><stop offset="0.47" stop-color="#fff" stop-opacity="0.34"/><stop offset="0.51" stop-color="#fff" stop-opacity="0.23"/><stop offset="0.56" stop-color="#fff" stop-opacity="0.15"/><stop offset="0.61" stop-color="#fff" stop-opacity="0.08"/><stop offset="0.67" stop-color="#fff" stop-opacity="0.03"/><stop offset="0.76" stop-color="#fff" stop-opacity="0.01"/><stop offset="1" stop-color="#fff" stop-opacity="0"/></linearGradient><linearGradient id="linear-gradient-9" x1="-143.08" y1="-11.83" x2="-133.18" y2="-21.73" gradientTransform="translate(200.68 98.23)" xlink:href="#linear-gradient-8"/></defs><title>stack-red</title><rect class="cls-1" width="144" height="144"/><rect class="cls-2" x="18" y="18" width="108" height="108"/><polygon class="cls-3" points="9 0 0 0 0 126 9 126 9 9 126 9 126 0 9 0"/><path class="cls-4" d="M9,9V135H135V9ZM126,126H18V18H126Z"/><polygon class="cls-5" points="135 18 135 135 18 135 18 144 144 144 144 135 144 18 135 18"/><polygon class="cls-6" points="153 0 144 0 144 126 153 126 153 9 270 9 270 0 153 0"/><polygon class="cls-7" points="18 72 18 45 63 90 18 90 18 72"/><polygon class="cls-8" points="126 72 126 99 81 54 126 54 126 72"/><polygon class="cls-9" points="126 117 27 18 46.8 18 126 97.2 126 117"/><polygon class="cls-10" points="18 27 117 126 97.2 126 18 46.8 18 27"/></svg>