<svg id="Layer_1" data-name="Layer 1" xmlns="http://www.w3.org/2000/svg" xmlns:xlink="http://www.w3.org/1999/xlink" width="144" height="144" viewBox="0 0 144 144"><defs><style>.cls-1{fill:#215bff;}.cls-2{fill:url(#linear-gradient);}.cls-3{fill:#00faff;}.cls-4{fill:url(#linear-gradient-2);}.cls-5{fill:url(#linear-gradient-3);}.cls-6{fill:url(#linear-gradient-4);}.cls-7{fill:url(#linear-gradient-5);}.cls-8{fill:url(#linear-gradient-6);}.cls-9{fill:url(#linear-gradient-7);}.cls-10{fill:url(#linear-gradient-8);}.cls-11{fill:url(#linear-gradient-9);}</style><linearGradient id="linear-gradient" x1="144" x2="211.5" y2="67.5" gradientUnits="userSpaceOnUse"><stop offset="0" stop-color="#dbedff"/><stop offset="0.5" stop-color="#d9ecff"/><stop offset="0.68" stop-color="#d2eaff"/><stop offset="0.81" stop-color="#c7e5ff"/><stop offset="0.91" stop-color="#b6dfff"/><stop offset="1" stop-color="#a0d6ff"/><stop offset="1" stop-color="#9fd6ff"/></linearGradient><linearGradient id="linear-gradient-2" x1="18" y1="18" x2="126" y2="126" gradientUnits="userSpaceOnUse"><stop offset="0" stop-color="#00fbfb"/><stop offset="0.11" stop-color="#03fbfb"/><stop offset="0.18" stop-color="#0cfbfb"/><stop offset="0.23" stop-color="#1bfbfb"/><stop offset="0.29" stop-color="#30fcfc"/><stop offset="0.34" stop-color="#4cfcfc"/><stop offset="0.39" stop-color="#6efdfd"/><stop offset="0.43" stop-color="#96fefe"/><stop offset="0.47" stop-color="#c4fefe"/><stop offset="0.5" stop-color="#e3ffff"/><stop offset="0.52" stop-color="#c7ffff"/><stop offset="0.57" stop-color="#99fefe"/><stop offset="0.61" stop-color="#70fdfd"/><stop offset="0.66" stop-color="#4dfcfc"/><stop offset="0.71" stop-color="#31fcfc"/><stop offset="0.77" stop-color="#1bfbfb"/><stop offset="0.83" stop-color="#0cfbfb"/><stop offset="0.9" stop-color="#03fbfb"/><stop offset="1" stop-color="#00fbfb"/></linearGradient><linearGradient id="linear-gradient-3" x2="67.5" y2="67.5" gradientUnits="userSpaceOnUse"><stop offset="0" stop-color="#dfffff"/><stop offset="0.56" stop-color="#dff"/><stop offset="0.76" stop-color="#d6ffff"/><stop offset="0.9" stop-color="#cbffff"/><stop offset="1" stop-color="#bcffff"/></linearGradient><linearGradient id="linear-gradient-4" x1="9" y1="9" x2="135" y2="135" gradientUnits="userSpaceOnUse"><stop offset="0" stop-color="#dfffff"/><stop offset="0.28" stop-color="#e1ffff"/><stop offset="0.38" stop-color="#e8ffff"/><stop offset="0.45" stop-color="#f3ffff"/><stop offset="0.49" stop-color="#fff"/><stop offset="0.49" stop-color="#f8fbfb"/><stop offset="0.53" stop-color="#c5d9dd"/><stop offset="0.58" stop-color="#96bbc2"/><stop offset="0.62" stop-color="#6ea0ab"/><stop offset="0.67" stop-color="#4c8a97"/><stop offset="0.72" stop-color="#307887"/><stop offset="0.77" stop-color="#1b6a7b"/><stop offset="0.83" stop-color="#0c6172"/><stop offset="0.9" stop-color="#035b6d"/><stop offset="1" stop-color="#00596b"/></linearGradient><linearGradient id="linear-gradient-5" x1="76.5" y1="76.5" x2="144" y2="144" gradientUnits="userSpaceOnUse"><stop offset="0" stop-color="#0098b4"/><stop offset="0.07" stop-color="#00849d"/><stop offset="0.16" stop-color="#007186"/><stop offset="0.27" stop-color="#006174"/><stop offset="0.4" stop-color="#005768"/><stop offset="0.58" stop-color="#005161"/><stop offset="1" stop-color="#004f5f"/></linearGradient><linearGradient id="linear-gradient-6" x1="40.5" y1="45" x2="40.5" y2="90" gradientUnits="userSpaceOnUse"><stop offset="0" stop-opacity="0.5"/><stop offset="1" stop-opacity="0"/></linearGradient><linearGradient id="linear-gradient-7" x1="-1030.5" y1="324" x2="-1030.5" y2="369" gradientTransform="translate(-927 423) rotate(180)" xlink:href="#linear-gradient-6"/><linearGradient id="linear-gradient-8" x1="-1026.7" y1="354.97" x2="-1016.8" y2="345.07" gradientTransform="translate(-940.3 412.57) rotate(180)" gradientUnits="userSpaceOnUse"><stop offset="0.35" stop-color="#fff"/><stop offset="0.35" stop-color="#fff" stop-opacity="0.96"/><stop offset="0.38" stop-color="#fff" stop-opacity="0.78"/><stop offset="0.41" stop-color="#fff" stop-opacity="0.61"/><stop offset="0.44" stop-color="#fff" stop-opacity="0.47"/><stop offset="0.47" stop-color="#fff" stop-opacity="0.34"/><stop offset="0.51" stop-color="#fff" stop-opacity="0.23"/><stop offset="0.56" stop-color="#fff" stop-opacity="0.15"/><stop offset="0.61" stop-color="#fff" stop-opacity="0.08"/><stop offset="0.67" stop-color="#fff" stop-opacity="0.03"/><stop offset="0.76" stop-color="#fff" stop-opacity="0.01"/><stop offset="1" stop-color="#fff" stop-opacity="0"/></linearGradient><linearGradient id="linear-gradient-9" x1="-143.08" y1="-11.83" x2="-133.18" y2="-21.73" gradientTransform="translate(200.68 98.23)" xlink:href="#linear-gradient-8"/></defs><title>stack-lightBlue</title><rect class="cls-1" x="144" width="144" height="144"/><polygon class="cls-2" points="153 0 144 0 144 126 153 126 153 9 270 9 270 0 153 0"/><rect class="cls-3" width="144" height="144"/><rect class="cls-4" x="18" y="18" width="108" height="108"/><polygon class="cls-5" points="9 0 0 0 0 126 9 126 9 9 126 9 126 0 9 0"/><path class="cls-6" d="M9,9V135H135V9ZM126,126H18V18H126Z"/><polygon class="cls-7" points="135 18 135 135 18 135 18 144 144 144 144 135 144 18 135 18"/><polygon class="cls-8" points="18 72 18 45 63 90 18 90 18 72"/><polygon class="cls-9" points="126 72 126 99 81 54 126 54 126 72"/><polygon class="cls-10" points="126 117 27 18 46.8 18 126 97.2 126 117"/><polygon class="cls-11" points="18 27 117 126 97.2 126 18 46.8 18 27"/></svg>