<svg xmlns="http://www.w3.org/2000/svg" viewBox="0 0 345.39 384"><defs><style>.cls-1{fill:#fff;}</style></defs><title>hold-box</title><g id="Layer_2" data-name="Layer 2"><g id="Layer_1-2" data-name="Layer 1"><path class="cls-1" d="M313.27,36.6q2-2.67,2-7.93V27.11c0-3.49-.67-6.13-2-7.9a6.89,6.89,0,0,0-5.86-2.65h-2.93V39.27h3A6.78,6.78,0,0,0,313.27,36.6Z"/><path class="cls-1" d="M207.29,39.67a5.7,5.7,0,0,0,5.09-2.81q1.78-2.8,1.81-8.06V27.13q0-5.39-1.8-8.18a5.78,5.78,0,0,0-5.15-2.79q-6.56,0-6.93,9.83l0,2.66q0,5.31,1.76,8.16A5.76,5.76,0,0,0,207.29,39.67Z"/><path class="cls-1" d="M75,0,0,28.69V384H345.39V0ZM295.77,9.83h11.64A17.12,17.12,0,0,1,316,12a15.32,15.32,0,0,1,6,6.13A18.58,18.58,0,0,1,324.17,27v1.66a18.6,18.6,0,0,1-2.1,8.9,15.37,15.37,0,0,1-5.91,6.16,16.68,16.68,0,0,1-8.5,2.24H295.77Zm-47.89,0h8.71V39.27h15.17V46H247.88ZM191.43,27.18a21.41,21.41,0,0,1,1.95-9.37A14.5,14.5,0,0,1,199,11.54a15.68,15.68,0,0,1,8.28-2.21,15.44,15.44,0,0,1,8.19,2.19,14.67,14.67,0,0,1,5.6,6.22,20.72,20.72,0,0,1,2,9.24v1.67a21.24,21.24,0,0,1-2,9.35,14.44,14.44,0,0,1-5.57,6.27,15.47,15.47,0,0,1-8.23,2.2,15.76,15.76,0,0,1-8.19-2.12,14.51,14.51,0,0,1-5.57-6.07,20.5,20.5,0,0,1-2.1-9.06Zm-55-17.35h8.71V24.18h12.84V9.83h8.66V46h-8.66V30.88H145.1V46h-8.71ZM325,364.75H18v-307H325Z"/></g></g></svg>