<svg xmlns="http://www.w3.org/2000/svg" viewBox="0 0 345.39 384"><defs><style>.cls-1{fill:#fff;}</style></defs><title>next-box</title><g id="Layer_2" data-name="Layer 2"><g id="Layer_1-2" data-name="Layer 1"><path class="cls-1" d="M270.43,0H0V384H345.39V28.69ZM180.3,9.43h30.88v6.88H200.09V46.38h-8.9V16.31H180.3Zm-54.49,0H136l6,12.29,6-12.29h10.18L147.89,27.76,158.5,46.38H148.22L142,33.87l-6.22,12.51H125.53l10.58-18.62Zm-47.47,0h25.51v6.88H87.25V24.1h14v6.6h-14v8.83H103.8v6.85H78.34Zm-57.28,0H30L43,32.43v-23h8.88v37H43.07L30,23.39v23H21.06ZM327.39,364.75h-307v-307h307Z"/></g></g></svg>