<svg id="Layer_1" data-name="Layer 1" xmlns="http://www.w3.org/2000/svg" width="144" height="144" viewBox="0 0 144 144"><defs><style>.cls-1{fill:#e0e0e0;}.cls-2,.cls-3{fill:#fff;}.cls-2{opacity:0.12;}.cls-3{opacity:0.24;}.cls-4{opacity:0.25;}</style></defs><title>mino-white</title><rect class="cls-1" width="144" height="144"/><path class="cls-2" d="M9,9V90A181.61,181.61,0,0,1,135,45V9Z"/><polygon class="cls-3" points="135 0 0 0 0 7 0 9 0 135 9 135 9 9 135 9 135 0"/><polygon class="cls-4" points="135 0 135 135 0 135 0 144 135 144 144 144 144 135 144 0 135 0"/><polygon class="cls-4" points="279 0 279 135 144 135 144 144 279 144 288 144 288 135 288 0 279 0"/></svg>