<svg id="Layer_1" data-name="Layer 1" xmlns="http://www.w3.org/2000/svg" width="144" height="144" viewBox="0 0 144 144"><defs><style>.cls-1{fill:#039be5;}.cls-2{fill:#388e3c;}.cls-3,.cls-6{fill:#fff;}.cls-3{opacity:0.24;}.cls-4{opacity:0.25;}.cls-5{opacity:0.1;}.cls-6{opacity:0.12;}</style></defs><title>stack-green</title><rect class="cls-1" x="144" width="144" height="144"/><rect class="cls-2" width="144" height="144"/><polygon class="cls-3" points="135 0 0 0 0 7 0 9 0 135 9 135 9 9 135 9 135 0"/><polygon class="cls-3" points="279 0 144 0 144 7 144 9 144 135 153 135 153 9 279 9 279 0"/><polygon class="cls-4" points="135 0 135 135 0 135 0 144 135 144 144 144 144 135 144 0 135 0"/><polygon class="cls-4" points="279 0 279 135 144 135 144 144 279 144 288 144 288 135 288 0 279 0"/><polygon class="cls-5" points="99 99 99 45 108 36 36 36 36 108 45 99 99 99"/><path class="cls-6" d="M9,9V90A183.87,183.87,0,0,1,36,70.42V36h72V46.1A183.63,183.63,0,0,1,135,45V9Z"/></svg>