<svg id="Layer_1" data-name="Layer 1" xmlns="http://www.w3.org/2000/svg" width="144" height="144" viewBox="0 0 144 144"><defs><style>.cls-1{fill:#3f3f3f;}.cls-2,.cls-5{fill:#fff;}.cls-2{opacity:0.24;}.cls-3{opacity:0.25;}.cls-4{opacity:0.1;}.cls-5{opacity:0.12;}</style></defs><title>stack-black</title><rect class="cls-1" width="144" height="144"/><polygon class="cls-2" points="135 0 0 0 0 7 0 9 0 135 9 135 9 9 135 9 135 0"/><polygon class="cls-3" points="135 0 135 135 0 135 0 144 135 144 144 144 144 135 144 0 135 0"/><polygon class="cls-4" points="99 99 99 45 108 36 36 36 36 108 45 99 99 99"/><path class="cls-5" d="M9,9V90A183.87,183.87,0,0,1,36,70.42V36h72V46.1A183.63,183.63,0,0,1,135,45V9Z"/></svg>