<?xml version="1.0" standalone="no"?>
<!DOCTYPE svg PUBLIC "-//W3C//DTD SVG 20010904//EN"
 "http://www.w3.org/TR/2001/REC-SVG-20010904/DTD/svg10.dtd">
<svg version="1.0" xmlns="http://www.w3.org/2000/svg"
 width="512.000000pt" height="512.000000pt" viewBox="0 0 512.000000 512.000000"
 preserveAspectRatio="xMidYMid meet">
<metadata>
Created by potrace 1.11, written by Peter Selinger 2001-2013
</metadata>
<g transform="translate(0.000000,512.000000) scale(0.100000,-0.100000)"
fill="#000000" stroke="none">
<path d="M0 4202 l0 -917 816 0 c449 0 818 -3 821 -8 3 -6 7 -1308 3 -1427 0
-13 -97 -15 -818 -15 l-817 0 -3 -917 -2 -918 2560 0 2560 0 0 2560 0 2560
-2560 0 -2560 0 0 -918z m4926 3 l0 -720 -820 -5 -821 -5 -1 -813 c-1 -447 -4
-816 -7 -819 -8 -8 -1427 -6 -1435 2 -4 4 -7 372 -7 818 l0 812 -810 2 c-445
1 -815 2 -821 3 -7 0 -10 217 -9 723 1 397 3 722 3 723 1 0 1065 0 2365 0
l2362 -1 1 -720z m-13 -928 c11 -4 13 -285 13 -1543 l-1 -1539 -2362 -1
c-1300 0 -2364 2 -2364 5 -1 3 -3 329 -4 724 l-1 717 30 0 c17 1 757 1 1644 0
l1612 -1 0 820 0 820 38 3 c62 5 1381 1 1395 -5z"/>
</g>
</svg>
