<svg id="Layer_1" data-name="Layer 1" xmlns="http://www.w3.org/2000/svg" width="1080" height="1080" viewBox="0 0 1080 1080"><defs><style>.cls-1{fill:#fff;}</style></defs><path class="cls-1" d="M798.89,633.48h-8.46v66.16h8.46c6.92,0,13.08-2.31,16.93-7.69S822,678.87,822,668.87v-4.62c0-10-2.31-17.69-6.15-23.08S806.58,633.48,798.89,633.48Z"/><path class="cls-1" d="M10.3,565.77V771.19H1069.7V565.77ZM164.94,718.88H95.7V614.24h25.38v85.4h43.86Zm126.94-85.4H245v22.31h40v18.46H245v25.39h46.93v19.24H219.56V614.24h72.32ZM432.67,705.8h-.76c-3.85,4.61-9.24,7.69-16.93,10.77a82.51,82.51,0,0,1-24.62,3.84c-13.85,0-24.62-3.84-33.08-12.31s-12.31-20-13.08-35.39v-9.23c0-10,1.54-19.23,5.38-26.93s9.24-13.84,15.39-17.69a47.74,47.74,0,0,1,23.85-6.16c13.08,0,23.08,3.08,30.78,9.24,6.92,6.15,11.54,14.61,12.31,26.92H408.05c-.76-6.15-3.07-10-5.38-12.31a19.62,19.62,0,0,0-12.31-3.84c-6.16,0-11.54,2.31-14.62,7.69s-5.38,13.08-5.38,23.08v6.16c0,10.77,1.54,18.46,5.38,23.85s9.23,7.69,16.93,7.69c6.92,0,11.54-1.54,14.62-4.62V680.41h-17.7v-17.7h43.08Zm130-72.32H515.77v22.31h40v18.46h-40v25.39H562.7v19.24H490.38V614.24H562.7ZM705,718.88H679.64l-36.93-65.4v65.4H617.32V614.24h25.39l36.93,65.4v-65.4H705ZM847.36,668.1a59.5,59.5,0,0,1-6.16,26.16A41.83,41.83,0,0,1,824.28,712a50.74,50.74,0,0,1-24.62,6.16H765.81V614.24h33.85a50.74,50.74,0,0,1,24.62,6.16,41.77,41.77,0,0,1,16.92,17.69,56.22,56.22,0,0,1,6.16,25.39ZM974.3,712.72c-6.92,5.39-16.15,7.69-28.46,7.69a56.13,56.13,0,0,1-23.08-4.61c-6.93-3.08-12.31-6.93-15.39-12.31A37,37,0,0,1,902,685h25.39c0,5.39,1.54,10,4.62,12.31s7.69,3.85,13.85,3.85c3.84,0,7.69-.77,10-3.08a9.74,9.74,0,0,0,3.08-6.92c0-3.85-1.54-6.93-3.85-8.46-2.31-2.31-6.92-3.85-13.85-6.16s-12.31-4.61-16.16-6.15c-13.84-6.93-20-16.16-20-27.7,0-6.16,1.54-10.77,5.39-15.39,3.07-4.61,8.46-7.69,14.61-10a58.73,58.73,0,0,1,20.78-3.85,51.43,51.43,0,0,1,20,3.85,25.82,25.82,0,0,1,13.85,11.54c3.08,4.62,4.62,10.77,4.62,16.93H958.92a13.26,13.26,0,0,0-3.85-10c-2.31-2.31-6.16-3.85-10.77-3.85s-7.7.77-10.77,3.08c-2.31,2.3-3.85,4.61-3.85,7.69a8.21,8.21,0,0,0,4.62,6.92c3.07,2.31,7.69,4.62,15.38,6.93,6.93,2.31,13.08,4.61,17.7,7.69,11.54,6.16,16.93,15.39,16.93,26.93C984.31,700.41,981.23,707.34,974.3,712.72Z"/><path class="cls-1" d="M191.86,326.5H111.08V545.77h-20V326.5H10.3V309.58H191.86V326.5Z"/><path class="cls-1" d="M376.51,432.67h-110v96.17h127v16.93H246.49V309.58H392.67V326.5H266.49v89.25h110Z"/><path class="cls-1" d="M615,326.5H534.23V545.77h-20V326.5H433.44V309.58H615Z"/><path class="cls-1" d="M758.11,447.29H689.64v98.48h-20V309.58h76.93c25.39,0,44.63,6.15,59.24,18.46,13.85,12.31,21.55,29.24,21.55,50.78a65.65,65.65,0,0,1-13.08,40c-9.24,11.54-20.78,19.23-35.39,23.85l59.24,100.78v2.31H816.58Zm-68.47-16.92h60.78c16.93,0,30-4.62,40-14.62,10-9.23,15.38-21.54,15.38-36.93,0-16.93-5.38-29.24-16.15-38.47S764.27,326.5,745,326.5H688.87V430.37Z"/><path class="cls-1" d="M1024.31,478.84H917.37L892.75,545H872l89.24-236.19h19.24l89.24,237h-20.77ZM923.53,462.68h94.63L970.46,334.2Z"/></svg>