<svg id="Layer_1" data-name="Layer 1" xmlns="http://www.w3.org/2000/svg" width="1080" height="1080" viewBox="0 0 1080 1080"><defs><style>.cls-1{fill:#fff;}</style></defs><path class="cls-1" d="M320.89,301.44c8.53,0,19.92,0,30.35-.95v22.77c-8.54,0-19.92-.95-30.35-.95H199.47c-.94,46.48-6.63,87.27-23.71,119.52-15.18,27.5-47.43,56-81.57,74L74.27,500.64c34.15-15.18,64.5-38.89,81.57-67.35,19-31.3,22.77-69.24,22.77-111.93H45.81c-12.33,0-22.76,0-34.15.95V300.49c11.39.95,20.87.95,34.15.95ZM97,218c-13.28,0-24.66,0-34.14.95V195.21c11.38.95,20.86,1.89,34.14,1.89H268.72c10.43,0,24.66-.94,36-1.89v23.71c-11.38-.95-25.61-.95-36-.95Z"/><path class="cls-1" d="M670,384.91c-46.48-25.61-126.16-56-173.58-70.19V465.54c0,14.23,0,33.2,1.89,44.58H471.71c1.89-11.38,1.89-29.4,1.89-44.58V218.92a303.73,303.73,0,0,0-2.84-39.84h26.56c-.95,11.38-2.85,30.35-2.85,39.84v73c55,17.07,133.74,47.42,182.12,71.14Z"/><path class="cls-1" d="M1068.34,296.7c-1.9,2.85-3.8,7.59-4.75,9.49-9.48,41.73-29.4,87.26-60.7,121.41-45.53,49.32-97.7,71.14-150.82,86.32l-17.07-19c56.91-11.38,111.92-38.89,149.86-79.67,27.51-29.41,46.48-70.19,54.07-105.29H803.69c-9.48,0-22.76,0-36,.95V287.21a271.71,271.71,0,0,0,36,2.85h230.5c7.59,0,15.17-.95,19-2.85ZM804.64,192.36c10.44.95,20.87,1.9,34.15,1.9h167.89c13.28,0,24.66,0,34.15-1.9v22.77c-9.49-.95-20.87-.95-34.15-.95H838.79c-12.33,0-22.77,0-34.15.95Z"/><path class="cls-1" d="M11.66,544.27V797.53H1068.34V544.27ZM688,594.54c13.28,8.54,37,27.51,47.43,38.89L712.63,656.2c-9.48-10.44-32.25-30.36-45.53-39.84Zm-296.89-.95c5.69,8.54,12.33,19.92,17.07,28.46l-19,7.59c-5.69-12.33-8.53-18-16.12-28.46Zm-77.78-2.84c12.33,5.69,31.3,18,41.74,25.61l-16.13,23.71c-10.43-7.59-29.4-19-41.74-25.61Zm-190.66,148c-2.84.95-7.58,1.9-12.33,5.69l-20.87-18c2.85-5.69,2.85-8.54,2.85-13.28V618.25a157.16,157.16,0,0,0-1.9-22.76h34.15c-1,8.54-1.9,15.18-1.9,22.76v89.17c26.56-8.54,65.45-30.36,89.17-58.81L227,673.27C201.37,702.67,164.38,723.54,122.64,738.72Zm162.2-107.19c13.28,6.64,32.25,19,41.74,25.61l-16.13,24.67c-11.38-7.59-29.4-19-41.73-26.56Zm68.3,91.06c-18,10.44-44.58,19.92-60.71,21.82L276.31,716A159,159,0,0,0,338,697c31.3-17.07,56.91-42.68,71.14-68.29l17.08,29.4C409.1,683.7,383.49,705.52,353.14,722.59Zm62.6-102.44c-6.64-12.33-9.48-18-17.07-27.51l18-7.58c6.64,7.58,13.28,19,17.07,26.55ZM608.29,741.56c-3.79-.94-11.38-.94-14.22-.94H495.42a98.49,98.49,0,0,0-16.13.94V713.11c4.75.95,11.39.95,16.13.95h34.15V660.94H504.9c-4.74,0-11.38,0-15.17.95V634.38c3.79,1,10.43,1,15.17,1h81.58c4.74,0,10.43,0,15.17-1v26.56c-4.74,0-10.43-1-15.17-1H558v53.12h36.05v.95c5.69,0,10.43-.95,14.22-.95ZM744.88,718.8c-18,10.43-41.73,19.92-64.5,23.71l-19-28.45c27.51-3.8,50.28-11.39,68.3-21.82,32.25-19,56.91-46.48,68.29-72.09l17.08,30.35C800.85,676.12,775.24,700.78,744.88,718.8Zm232.4,30.35C965.89,733,950.72,716,934.59,699.83c-19,19.92-42.68,37.94-66.4,49.32l-22.76-23.71c29.4-10.43,57.86-33.2,74-50.27,11.38-13.28,21.81-29.41,25.61-40.79h-56a136,136,0,0,0-22.76,1.9V605a219.7,219.7,0,0,0,22.76,1.9h59.76a93,93,0,0,0,19.92-1.9l-8.54-14.22,17.08-6.64c4.74,6.64,11.38,19,14.22,24.66l-10.43,4.74,6.64,2.85c-1.9,1.89-5.69,8.53-7.59,13.28a231.36,231.36,0,0,1-27.51,47.42,600.22,600.22,0,0,1,49.33,50.28Zm20.86-141.33c-3.79-7.59-9.48-18-14.22-24.66l17.07-6.64a165.26,165.26,0,0,1,14.23,24.66Z"/><path class="cls-1" d="M33.48,835.47H12.61V820.29H73.32v15.18H52.45v62.6h-19Z"/><path class="cls-1" d="M102.72,820.29h49.33v15.18H121.69V849.7h26.56v16.12H121.69V882H154v16.12H103.67V820.29Z"/><path class="cls-1" d="M200.42,835.47H179.56V820.29h60.7v15.18H219.39v62.6h-19Z"/><path class="cls-1" d="M311.4,898.07l-14.23-27.5h-9.48v27.5h-19V820.29h28.45c17.08,0,30.36,5.69,30.36,24.66,0,11.39-5.69,19-13.28,22.77L331.32,899H311.4Zm-23.71-42.68h8.54c8.53,0,13.28-3.8,13.28-11.38s-4.75-9.49-13.28-9.49h-8.54Z"/><path class="cls-1" d="M395.82,880.05H373.06l-4.75,18h-19L374,820.29h22.76l24.66,77.78H400.56ZM392,865.82l-1.9-6.64c-1.9-7.59-3.79-17.07-6.64-24.66h0c-1.9,8.54-3.79,17.07-5.69,24.66l-1.9,6.64Z"/><path class="cls-1" d="M485.93,820.29h19V882.9h30.36v15.17H485.93Z"/><path class="cls-1" d="M565.61,820.29h49.32v15.18H584.58V849.7h26.56v16.12H584.58V882h32.25v16.12H566.56V820.29Z"/><path class="cls-1" d="M644.34,859.18c0-25.61,17.07-40.78,37.94-40.78,11.38,0,19.92,4.74,24.66,10.43l-10.43,12.33c-3.8-3.79-7.59-5.69-14.23-5.69-11.38,0-19.92,9.48-19.92,24.66s6.64,24.66,21.82,24.66a18,18,0,0,0,7.59-1.89V870.57H679.44V855.39h29.4v36c-5.69,5.69-15.18,9.49-25.61,9.49C661.41,899,644.34,885.74,644.34,859.18Z"/><path class="cls-1" d="M742,820.29h49.32v15.18H761V849.7h26.56v16.12H761V882h32.25v16.12H742Z"/><path class="cls-1" d="M824.56,820.29h19l19,37,7.59,17.07H871c-.95-8.54-2.85-19.92-2.85-28.46V820.29h18v77.78h-19l-19-37.94-7.58-17.07h-1c1,8.53,2.84,19,2.84,28.45v26.56h-18Z"/><path class="cls-1" d="M921.31,820.29h22.77c23.71,0,39.84,11.39,39.84,38.89S967.79,899,945,899H921.31Zm21.82,62.61c12.33,0,21.81-5.69,21.81-24.67s-8.53-23.71-21.81-23.71h-2.85V882.9Z"/><path class="cls-1" d="M1009.53,888.59,1020,875.31c5.69,4.74,12.33,7.59,19,7.59s10.43-2.85,10.43-6.64c0-4.75-4.74-5.69-11.38-8.54l-10.43-3.79c-8.54-2.85-16.13-10.44-16.13-21.82,0-13.28,11.39-23.71,28.46-23.71a36.65,36.65,0,0,1,25.61,10.43L1056,840.21a25.76,25.76,0,0,0-16.12-5.69c-5.69,0-9.49,1.9-9.49,6.64s4.75,5.69,11.39,8.54l9.48,3.79c9.49,3.8,15.18,10.44,15.18,21.82,0,13.28-11.38,24.66-29.41,24.66A57,57,0,0,1,1009.53,888.59Z"/></svg>