<svg id="Layer_1" data-name="Layer 1" xmlns="http://www.w3.org/2000/svg" width="1080" height="1080" viewBox="0 0 1080 1080"><defs><style>.cls-1{fill:#fff;}</style></defs><path class="cls-1" d="M193.05,325.19H111.72V545.54h-20V325.19H10.51V308.24H193.05Z"/><path class="cls-1" d="M379.41,431.78h-111v96.81H396v16.95H248.37V308.24H395.22v16.95H268.42v89.64h111Z"/><path class="cls-1" d="M616.29,325.19H535V545.54H514.92V325.19H433.75V308.24H616.29Z"/><path class="cls-1" d="M691.67,448.9v96.64h-20V308.24h80.84q37,0,58.43,18.91t21.43,52q0,33.42-20.62,51.58T752,448.9Zm0-16.95h60.79q29.17,0,44.49-13.88t15.32-38.69q0-24.64-15.24-39.25t-43.27-14.94H691.67Z"/><path class="cls-1" d="M1022.27,478.89H914.53l-24.44,66.65h-21l89.81-237.3h19.07l89.8,237.3h-20.86ZM920.73,461.94h95.18L968.32,332.69Z"/><path class="cls-1" d="M933.6,675q-4.26-3.78-11.84-3.79H909.5v28.59h12.39q7.38,0,11.68-4.14a14.12,14.12,0,0,0,4.3-10.67A12.71,12.71,0,0,0,933.6,675Z"/><path class="cls-1" d="M776.68,661.8q-2.07,24.38-10.54,38h33.75v-63H778.54Z"/><path class="cls-1" d="M10.3,565.77V771.19H1069.7V565.77ZM176,718.34H151.84V636.73H129.32l-1.66,33.68q-1,17.42-4.82,27.82t-10.78,15.19q-7,4.79-19,4.92H86.54V699.75l3.38-.35q7.23-1,10.47-8.85t4.2-26.34l1.72-46.15H176Zm126.62-81.61h-45v21.14h38v17.91h-38v24H302.5v18.59H233.41V618.06h69.22Zm119.67,0H378.7v81.61H354.53V618.06H422.3Zm122.56,0H499.81v21.14h38v17.91h-38v24h44.91v18.59H475.64V618.06h69.22Zm135.85,81.61h-24V676.47H621.06v41.87H596.88V618.06h24.18v39.81h35.61V618.06h24ZM832.12,743H810.43V718.34H755.81v24.59H733.42l-1.72-43.18h7.1q5.57-3.72,9-12.78t4.86-26l3.1-42.91H824v81.69h10.68Zm118.94-33.89q-11,9.24-29.51,9.23h-36.3V618.06H909.5v34.51H922A51.51,51.51,0,0,1,943,656.63a32,32,0,0,1,14.08,11.47,29.87,29.87,0,0,1,4.93,17Q962.05,699.89,951.06,709.11Zm42.4,9.23H969.35V618.06h24.11Z"/></svg>