<svg xmlns="http://www.w3.org/2000/svg" viewBox="0 0 1374.1 422.5"><defs><style>.cls-1{fill:#fff;}</style></defs><title>logo-monochrome</title><g id="Layer_2" data-name="Layer 2"><g id="Layer_2-2" data-name="Layer 2"><rect class="cls-1" x="1104.16" y="296.5" width="126" height="126"/><polygon class="cls-1" points="960.66 135 960.66 9 1094.66 108 1166.66 0 1238.66 108 1373.66 9 1373.66 135 960.66 135"/><path class="cls-1" d="M960.09,152.14v126h126v-126Zm88,95.71h-16.36l-8.76-37.3-8.58,37.3H998.1l-13.93-65.43h15.68l7.51,41,9-41h13.39l9.12,41,7.51-41H1062Z"/><path class="cls-1" d="M1103.71,152.93v126h126v-126Zm85.59,42.46h-29.39v13.8h24.8v11.68h-24.8v15.64h29.3v12.14h-45.08V183.21h45.17Z"/><path class="cls-1" d="M1312.58,220.83h-11.06v15.68h10.34q4.26,0,6.56-1.95a6.85,6.85,0,0,0,2.29-5.51Q1320.71,220.88,1312.58,220.83Z"/><path class="cls-1" d="M1317.12,208.6a6.7,6.7,0,0,0,2.2-5.45c0-2.77-.8-4.76-2.38-6s-4.15-1.82-7.69-1.82h-7.73v15.14h8.23Q1314.91,210.45,1317.12,208.6Z"/><path class="cls-1" d="M1248.1,152.93v126h126v-126Zm82.25,90.8q-6.09,4.83-18,4.92h-26.56V183.21h23.5q12.63,0,19.21,4.63t6.59,13.44a15.52,15.52,0,0,1-2.34,8.67,13.64,13.64,0,0,1-6.87,5.31,13.79,13.79,0,0,1,7.86,5,14.62,14.62,0,0,1,2.74,9Q1336.44,238.9,1330.35,243.73Z"/><path class="cls-1" d="M155,82.33H81.88V275.75H74.43V82.33H1.31V74.88H155Z"/><path class="cls-1" d="M298.33,176.14H197.63V268.3H312.4v7.45H190.18V74.88H312.4v7.45H197.63v86.36h100.7Z"/><path class="cls-1" d="M487.47,82.33H414.35V275.75H406.9V82.33H333.79V74.88H487.47Z"/><path class="cls-1" d="M599.08,189.8H529.41v85.95H522V74.88h64q30.21,0,48.08,15.59t17.87,42.35a54.56,54.56,0,0,1-12.77,35.94,54,54,0,0,1-32.48,19.11l53.66,85.94v1.94h-7.86Zm-69.67-7.45h63.32q23.17,0,37.46-14.07t14.27-35.46q0-23.44-15.79-37T585.42,82.33h-56Z"/><path class="cls-1" d="M813.32,215.73H715l-22.35,60h-8.14L759.66,74.88h9.1L844,275.75h-8.14Zm-95.6-7.45h92.84L764.21,83.85Z"/><path class="cls-1" d="M16,369.84h27.9v12.32H0V315.7H16Z"/><path class="cls-1" d="M166.69,354h-25.2v15.89h29.76v12.32H125.47V315.7h45.88v12.37H141.49v14h25.2Z"/><path class="cls-1" d="M307,374q-3.69,4.11-10.82,6.62a46.76,46.76,0,0,1-15.61,2.51q-13.05,0-20.86-8t-8.36-22.23l0-5.76A39.58,39.58,0,0,1,254.77,330a25.72,25.72,0,0,1,9.93-11.27,28,28,0,0,1,14.95-3.95q12.41,0,19.28,5.68t8,17H291.52q-.82-5.56-3.56-7.94c-1.83-1.58-4.42-2.38-7.77-2.38a10.46,10.46,0,0,0-9.31,5.12c-2.19,3.4-3.3,8.28-3.33,14.61v4q0,10,3.4,14.95t10.71,5q6.25,0,9.31-2.78V357.65H279.83v-11H307Z"/><path class="cls-1" d="M432.32,354h-25.2v15.89h29.77v12.32H391.1V315.7H437v12.37H407.12v14h25.2Z"/><path class="cls-1" d="M573.72,382.16H557.79L534.23,340.8v41.36h-16V315.7h16l23.51,41.36V315.7h16Z"/><path class="cls-1" d="M658.65,382.16V315.7h21.41a31.54,31.54,0,0,1,15.84,4,28,28,0,0,1,11,11.28,34,34,0,0,1,4,16.32v3.06A34.24,34.24,0,0,1,707,366.71,28.21,28.21,0,0,1,696.15,378a30.72,30.72,0,0,1-15.63,4.13Zm16-54.09v41.77h5.57q6.9,0,10.59-4.91t3.7-14.58v-2.88q0-9.63-3.7-14.52t-10.77-4.88Z"/><path class="cls-1" d="M828.17,364.5a6.58,6.58,0,0,0-2.49-5.48q-2.49-2-8.74-4.06a83.76,83.76,0,0,1-10.23-4.07q-12.91-6.34-12.92-17.43a15.66,15.66,0,0,1,3.22-9.75,20.82,20.82,0,0,1,9.11-6.58,35.57,35.57,0,0,1,13.24-2.35,31.06,31.06,0,0,1,12.85,2.56,20.3,20.3,0,0,1,8.83,7.28,19,19,0,0,1,3.15,10.8h-16a8.06,8.06,0,0,0-2.48-6.3,9.73,9.73,0,0,0-6.74-2.24,10.9,10.9,0,0,0-6.78,1.9,5.78,5.78,0,0,0-2.48,4.81c0,1.71.91,3.25,2.73,4.64s5,2.81,9.64,4.29a58.35,58.35,0,0,1,11.32,4.77q10.77,6.21,10.77,17.12a16.23,16.23,0,0,1-6.57,13.69q-6.57,5-18,5a35.86,35.86,0,0,1-14.64-2.9,22,22,0,0,1-9.85-7.94,20.7,20.7,0,0,1-3.32-11.62h16.07q0,5.34,2.77,7.87t9,2.54a10.23,10.23,0,0,0,6.27-1.72A5.63,5.63,0,0,0,828.17,364.5Z"/></g></g></svg>