<svg id="Layer_1" data-name="Layer 1" xmlns="http://www.w3.org/2000/svg" xmlns:xlink="http://www.w3.org/1999/xlink" width="144" height="144" viewBox="0 0 144 144"><defs><style>.cls-1{fill:url(#linear-gradient);}.cls-2{fill:url(#linear-gradient-2);}.cls-3{fill:url(#linear-gradient-3);}.cls-4{fill:url(#linear-gradient-4);}.cls-5{fill:url(#linear-gradient-5);}.cls-6{fill:url(#linear-gradient-6);}</style><linearGradient id="linear-gradient" x1="72" x2="72" y2="144" gradientUnits="userSpaceOnUse"><stop offset="0" stop-color="#d7c700"/><stop offset="0.62" stop-color="#a99400"/><stop offset="1" stop-color="#917900"/></linearGradient><linearGradient id="linear-gradient-2" x1="216" x2="216" y2="144" gradientUnits="userSpaceOnUse"><stop offset="0" stop-color="#57df00"/><stop offset="0.65" stop-color="#1da500"/><stop offset="1" stop-color="#028a00"/></linearGradient><linearGradient id="linear-gradient-3" x1="72" x2="72" y2="144" gradientUnits="userSpaceOnUse"><stop offset="0" stop-color="#d7c700"/><stop offset="0.18" stop-color="#cfbe00"/><stop offset="0.47" stop-color="#baa400"/><stop offset="0.85" stop-color="#987b00"/><stop offset="1" stop-color="#886800"/></linearGradient><linearGradient id="linear-gradient-4" x1="216" x2="216" y2="144" gradientUnits="userSpaceOnUse"><stop offset="0" stop-color="#57df00"/><stop offset="0.17" stop-color="#4fd600"/><stop offset="0.44" stop-color="#3abc00"/><stop offset="0.8" stop-color="#179300"/><stop offset="1" stop-color="#007800"/></linearGradient><linearGradient id="linear-gradient-5" x1="67.5" x2="67.5" y2="144" gradientUnits="userSpaceOnUse"><stop offset="0" stop-color="#e8e000"/><stop offset="0.17" stop-color="#e0d700"/><stop offset="0.44" stop-color="#cbbd00"/><stop offset="0.8" stop-color="#a89400"/><stop offset="1" stop-color="#917900"/></linearGradient><linearGradient id="linear-gradient-6" x1="211.5" x2="211.5" y2="144" gradientUnits="userSpaceOnUse"><stop offset="0" stop-color="#78f800"/><stop offset="0.15" stop-color="#6fef00"/><stop offset="0.4" stop-color="#55d800"/><stop offset="0.72" stop-color="#2cb100"/><stop offset="1" stop-color="#028a00"/></linearGradient></defs><title>mino-yellow</title><rect class="cls-1" width="144" height="144"/><rect class="cls-2" x="144" width="144" height="144"/><polygon class="cls-3" points="135 0 135 135 0 135 0 144 144 144 144 135 144 0 135 0"/><polygon class="cls-4" points="279 0 279 135 144 135 144 144 288 144 288 135 288 0 279 0"/><polygon class="cls-5" points="9 0 0 0 0 135 0 144 9 144 9 135 9 9 135 9 135 0 9 0"/><polygon class="cls-6" points="153 0 144 0 144 135 144 144 153 144 153 135 153 9 279 9 279 0 153 0"/></svg>