<svg id="Layer_1" data-name="Layer 1" xmlns="http://www.w3.org/2000/svg" xmlns:xlink="http://www.w3.org/1999/xlink" width="144" height="144" viewBox="0 0 144 144"><defs><style>.cls-1{fill:url(#linear-gradient);}.cls-2{fill:url(#linear-gradient-2);}.cls-3{fill:url(#linear-gradient-3);}.cls-4{fill:url(#linear-gradient-4);}.cls-5{fill:url(#linear-gradient-5);}</style><linearGradient id="linear-gradient" x1="72" x2="72" y2="144" gradientUnits="userSpaceOnUse"><stop offset="0" stop-color="#df1fdf"/><stop offset="0.65" stop-color="#a50aa5"/><stop offset="1" stop-color="#8a018a"/></linearGradient><linearGradient id="linear-gradient-2" x1="72" x2="72" y2="144" gradientUnits="userSpaceOnUse"><stop offset="0" stop-color="#df1fdf"/><stop offset="0.17" stop-color="#d61cd6"/><stop offset="0.44" stop-color="#bc15bc"/><stop offset="0.8" stop-color="#930893"/><stop offset="1" stop-color="#780078"/></linearGradient><linearGradient id="linear-gradient-3" x1="67.5" x2="67.5" y2="144" gradientUnits="userSpaceOnUse"><stop offset="0" stop-color="#f828f8"/><stop offset="0.16" stop-color="#ef25ef"/><stop offset="0.42" stop-color="#d51bd5"/><stop offset="0.75" stop-color="#ac0dac"/><stop offset="1" stop-color="#890089"/></linearGradient><linearGradient id="linear-gradient-4" x1="216" x2="216" y2="144" gradientUnits="userSpaceOnUse"><stop offset="0" stop-color="#ddd"/><stop offset="0.13" stop-color="#d4d4d4"/><stop offset="0.34" stop-color="#bababa"/><stop offset="0.61" stop-color="#919191"/><stop offset="0.92" stop-color="#585858"/><stop offset="1" stop-color="#494949"/></linearGradient><linearGradient id="linear-gradient-5" x1="211.5" x2="211.5" y2="144" gradientUnits="userSpaceOnUse"><stop offset="0" stop-color="#e5e5e5"/><stop offset="0.18" stop-color="#dcdcdc"/><stop offset="0.48" stop-color="#c2c2c2"/><stop offset="0.85" stop-color="#999"/><stop offset="1" stop-color="#878787"/></linearGradient></defs><title>mino-purple</title><rect class="cls-1" width="144" height="144"/><polygon class="cls-2" points="135 0 135 135 0 135 0 144 144 144 144 135 144 0 135 0"/><polygon class="cls-3" points="9 0 0 0 0 135 0 144 9 144 9 135 9 9 135 9 135 0 9 0"/><polygon class="cls-4" points="279 0 279 135 144 135 144 144 288 144 288 135 288 0 279 0"/><polygon class="cls-5" points="153 0 144 0 144 135 144 144 153 144 153 135 153 9 279 9 279 0 153 0"/></svg>