<svg id="Layer_1" data-name="Layer 1" xmlns="http://www.w3.org/2000/svg" xmlns:xlink="http://www.w3.org/1999/xlink" width="144" height="144" viewBox="0 0 144 144"><defs><style>.cls-1{fill:url(#linear-gradient);}.cls-2{fill:url(#linear-gradient-2);}.cls-3{fill:url(#linear-gradient-3);}.cls-4{fill:url(#linear-gradient-4);}.cls-5{fill:url(#linear-gradient-5);}.cls-6{fill:url(#linear-gradient-6);}.cls-7{opacity:0.15;}</style><linearGradient id="linear-gradient" x1="72" x2="72" y2="144" gradientUnits="userSpaceOnUse"><stop offset="0" stop-color="#00cfe0"/><stop offset="0.62" stop-color="#009cbc"/><stop offset="1" stop-color="#0081a9"/></linearGradient><linearGradient id="linear-gradient-2" x1="216" x2="216" y2="144" gradientUnits="userSpaceOnUse"><stop offset="0" stop-color="#008ee7"/><stop offset="0.11" stop-color="#0081e3"/><stop offset="0.72" stop-color="#003dca"/><stop offset="1" stop-color="#0022c1"/></linearGradient><linearGradient id="linear-gradient-3" x1="72" x2="72" y2="144" gradientUnits="userSpaceOnUse"><stop offset="0" stop-color="#00cfe0"/><stop offset="0.18" stop-color="#00c6da"/><stop offset="0.47" stop-color="#00acc9"/><stop offset="0.85" stop-color="#0083ad"/><stop offset="1" stop-color="#0070a0"/></linearGradient><linearGradient id="linear-gradient-4" x1="67.5" x2="67.5" y2="144" gradientUnits="userSpaceOnUse"><stop offset="0" stop-color="#00e8f0"/><stop offset="0.17" stop-color="#00dfe9"/><stop offset="0.45" stop-color="#00c5d8"/><stop offset="0.8" stop-color="#009cbb"/><stop offset="1" stop-color="#0082a9"/></linearGradient><linearGradient id="linear-gradient-5" x1="216" x2="216" y2="144" gradientUnits="userSpaceOnUse"><stop offset="0" stop-color="#008fe8"/><stop offset="0.13" stop-color="#0086e4"/><stop offset="0.35" stop-color="#006cda"/><stop offset="0.63" stop-color="#0043ca"/><stop offset="0.95" stop-color="#000ab4"/><stop offset="1" stop-color="#0000b0"/></linearGradient><linearGradient id="linear-gradient-6" x1="211.5" x2="211.5" y2="144" gradientUnits="userSpaceOnUse"><stop offset="0" stop-color="#00a8f8"/><stop offset="0.14" stop-color="#009ff4"/><stop offset="0.37" stop-color="#0085e9"/><stop offset="0.66" stop-color="#005cd8"/><stop offset="1" stop-color="#0024c1"/></linearGradient></defs><title>stack-lightBlue</title><rect class="cls-1" width="144" height="144"/><rect class="cls-2" x="144" width="144" height="144"/><polygon class="cls-3" points="135 0 135 135 0 135 0 144 144 144 144 135 144 0 135 0"/><polygon class="cls-4" points="9 0 0 0 0 135 0 144 9 144 9 135 9 9 135 9 135 0 9 0"/><polygon class="cls-5" points="279 0 279 135 144 135 144 144 288 144 288 135 288 0 279 0"/><polygon class="cls-6" points="153 0 144 0 144 135 144 144 153 144 153 135 153 9 279 9 279 0 153 0"/><rect class="cls-7" x="-576" width="1296" height="144"/></svg>