<svg id="Layer_1" data-name="Layer 1" xmlns="http://www.w3.org/2000/svg" width="1080" height="1080" viewBox="0 0 1080 1080"><defs><style>.cls-1{fill:#fff;}</style></defs><path class="cls-1" d="M35.7,879.19H14.91V864.07H75.4v15.12H54.61v62.39H35.7Z"/><path class="cls-1" d="M104.71,864.07h49.15v15.12H123.61v14.18h26.47v16.07H123.61v16.07h32.14v16.07h-50.1V864.07Z"/><path class="cls-1" d="M202.07,879.19h-20.8V864.07h60.5v15.12H221v62.39h-18.9Z"/><path class="cls-1" d="M312.66,941.58l-14.18-27.41H289v27.41h-18.9V864.07h28.35c17,0,30.25,5.67,30.25,24.58,0,11.34-5.67,18.9-13.23,22.68l17,31.2H312.66ZM289,899h8.51c8.51,0,13.23-3.78,13.23-11.34s-4.72-9.45-13.23-9.45H289Z"/><path class="cls-1" d="M396.79,923.62H374.11l-4.73,18H350.47l24.58-77.51h22.69l24.57,77.51H401.52ZM393,909.44l-1.89-6.62c-1.89-7.56-3.78-17-6.62-24.57h0c-1.89,8.51-3.78,17-5.67,24.57l-1.89,6.62Z"/><path class="cls-1" d="M486.59,864.07H505.5v62.39h30.25v15.12H486.59Z"/><path class="cls-1" d="M566,864.07h49.16v15.12H584.9v14.18h26.47v16.07H584.9v16.07H617v16.07h-50.1V864.07Z"/><path class="cls-1" d="M644.45,902.82c0-25.52,17-40.64,37.81-40.64,11.35,0,19.85,4.72,24.58,10.4l-10.4,12.28c-3.78-3.78-7.56-5.67-14.18-5.67-11.34,0-19.85,9.46-19.85,24.58s6.62,24.58,21.74,24.58a17.86,17.86,0,0,0,7.56-1.89V914.17H679.43V899h29.3V935c-5.67,5.68-15.12,9.46-25.52,9.46C661.47,942.53,644.45,929.29,644.45,902.82Z"/><path class="cls-1" d="M741.81,864.07H791v15.12H760.72v14.18h26.47v16.07H760.72v16.07h32.14v16.07H741.81Z"/><path class="cls-1" d="M824.05,864.07H843l18.9,36.86,7.56,17h1c-1-8.51-2.84-19.85-2.84-28.36V864.07h18v77.51h-18.9l-18.91-37.81-7.56-17h-.94c.94,8.5,2.83,18.9,2.83,28.35v26.47h-18Z"/><path class="cls-1" d="M920.47,864.07h22.69c23.63,0,39.7,11.34,39.7,38.75s-16.07,39.71-38.76,39.71H920.47Zm21.74,62.39c12.29,0,21.74-5.67,21.74-24.58s-8.51-23.63-21.74-23.63h-2.84v48.21Z"/><path class="cls-1" d="M1008.38,932.13l10.4-13.24c5.67,4.73,12.28,7.57,18.9,7.57s10.4-2.84,10.4-6.62c0-4.73-4.73-5.67-11.34-8.51l-10.4-3.78c-8.51-2.83-16.07-10.4-16.07-21.74,0-13.23,11.34-23.63,28.36-23.63a36.52,36.52,0,0,1,25.52,10.4l-9.45,11.34a25.69,25.69,0,0,0-16.07-5.67c-5.67,0-9.46,1.89-9.46,6.61s4.73,5.68,11.35,8.51l9.45,3.78c9.45,3.78,15.12,10.4,15.12,21.74,0,13.24-11.34,24.58-29.3,24.58A56.8,56.8,0,0,1,1008.38,932.13Z"/><path class="cls-1" d="M36.44,382c57.81,0,90.1-1.59,130-10l2.4,17.54c-40.67,8.77-73.76,10.37-132,10.37H14.91V180.24H146.08v17.54H35.64v78.55h92.5v17.54H35.64V382ZM207.88,145.15h20.33v325H207.88V290.68H149.27V272.34h58.61Zm90.9-9.57v354H278.05v-354Z"/><path class="cls-1" d="M687.92,423.05V441H366.56V423.05Zm-38.28-73.76H410v-181h236v17.94H431.55v62.2H638.48V266H431.55v65.39H649.64Z"/><path class="cls-1" d="M775.24,384.38c70.17,0,116.42-2.8,171.44-13.56l2,18.34c-56.22,10.37-102.07,13.16-173.43,13.16H748.12v-130H884.48V188.21H746.93V169.87H905.21V290.68H768.86v93.7Zm289.85-85.73H1002.9V490H981.76V135.58h21.14V280.71h62.19Z"/><path class="cls-1" d="M14.91,514V836.81H1065.09V514ZM769.84,614.11V584.85H933.78v29.26h-62c2.55,25.77,20.9,51.08,73.15,58.51l-14.4,29.72c-39.71-6.73-65.25-23.68-78.49-46.67-13.23,23.45-38.31,41.1-77.56,47.83l-14.39-29.72c50.85-7.43,69.2-33.67,71.75-59.67ZM585,568.59h37.62V727H585V652.65H556.21V622.7H585ZM145,736.94H129V646.85h40.4v-29H128.72V588.56h76.86v87.31H165.17v30.42c18.12-.46,35.3-1.62,54.11-4.87l3,30.18C195.82,736.25,172.14,736.94,145,736.94Zm121.68,39.71h-34.6V670.76H213.47V640.58h18.58v-69h34.6Zm45.28,9.52H276.4V568.36h35.53ZM436.16,675.41c37.15-11.84,49.23-39,49.69-64.32H445.91V581.6H563.64v29.49H524.17c.46,23.68,12.07,49.22,47.37,60.83l-18.12,29.26c-23.22-7.2-38.54-21.59-47.83-39.47C496.07,681.45,480.05,697,455,705.13ZM627.27,783.15H476.1V714h37.62v39.71H627.27Zm323.46-21.59H753.59v-30H950.73Z"/></svg>