<svg id="Layer_1" data-name="Layer 1" xmlns="http://www.w3.org/2000/svg" width="144" height="144" viewBox="0 0 144 144"><defs><style>.cls-1{fill:#141414;}.cls-2{fill:#f87830;}</style></defs><rect class="cls-1" width="144" height="144"/><rect class="cls-2" x="-126" y="18" width="126" height="108"/><rect class="cls-2" y="18" width="144" height="108"/><rect class="cls-1" x="-72" y="72" width="36" height="108" transform="translate(-180 72) rotate(-90)"/><rect class="cls-1" x="54" y="54" width="36" height="144" transform="translate(-54 198) rotate(-90)"/><rect class="cls-1" x="90" y="54" width="18" height="18" transform="translate(36 162) rotate(-90)"/><rect class="cls-1" x="45" y="9" width="36" height="18" transform="translate(45 81) rotate(-90)"/><rect class="cls-1" x="54" y="90" width="18" height="18" transform="translate(-36 162) rotate(-90)"/><rect class="cls-1" x="126" y="90" width="18" height="18" transform="translate(36 234) rotate(-90)"/><rect class="cls-1" x="117" y="9" width="36" height="18" transform="translate(117 153) rotate(-90)"/><rect class="cls-1" y="54" width="18" height="18" transform="translate(-54 72) rotate(-90)"/><rect class="cls-1" x="-27" y="9" width="36" height="18" transform="translate(-27 9) rotate(-90)"/></svg>