<svg id="Layer_1" data-name="Layer 1" xmlns="http://www.w3.org/2000/svg" width="144" height="144" viewBox="0 0 144 144"><defs><style>.cls-1{fill:#141414;}.cls-2{fill:#f87830;}</style></defs><rect class="cls-1" x="-144" width="144" height="144"/><rect class="cls-1" width="144" height="144"/><rect class="cls-2" x="18" y="18" width="108" height="126"/><rect class="cls-1" x="-90" y="54" width="36" height="144" transform="translate(-198 54) rotate(-90)"/><rect class="cls-1" x="-54" y="54" width="72" height="36" transform="translate(-90 54) rotate(-90)"/><rect class="cls-1" x="54" y="54" width="144" height="36" transform="translate(54 198) rotate(-90)"/><rect class="cls-1" x="63" y="9" width="36" height="18" transform="translate(63 99) rotate(-90)"/><rect class="cls-1" x="36" y="72" width="18" height="18" transform="translate(-36 126) rotate(-90)"/><rect class="cls-1" x="72" y="108" width="18" height="18" transform="translate(-36 198) rotate(-90)"/><rect class="cls-1" x="9" y="27" width="18" height="36" transform="translate(-27 63) rotate(-90)"/></svg>