<svg id="Layer_1" data-name="Layer 1" xmlns="http://www.w3.org/2000/svg" width="144" height="144" viewBox="0 0 144 144"><defs><style>.cls-1{fill:#141414;}.cls-2{fill:#f87830;}</style></defs><rect class="cls-1" x="-144" width="144" height="144"/><rect class="cls-1" width="144" height="144"/><rect class="cls-2" x="18" width="108" height="144"/><rect class="cls-1" x="-90" y="54" width="144" height="36" transform="translate(-90 54) rotate(-90)"/><rect class="cls-1" x="54" y="54" width="144" height="36" transform="translate(54 198) rotate(-90)"/><rect class="cls-1" x="18" width="18" height="18" transform="translate(18 36) rotate(-90)"/><rect class="cls-1" x="90" width="18" height="18" transform="translate(90 108) rotate(-90)"/><rect class="cls-1" x="54" y="36" width="18" height="18" transform="translate(18 108) rotate(-90)"/><rect class="cls-1" x="90" y="72" width="18" height="18" transform="translate(18 180) rotate(-90)"/><rect class="cls-1" x="54" y="126" width="18" height="18" transform="translate(-72 198) rotate(-90)"/><rect class="cls-1" x="18" y="72" width="18" height="18" transform="translate(-54 108) rotate(-90)"/></svg>