<svg id="Layer_1" data-name="Layer 1" xmlns="http://www.w3.org/2000/svg" width="144" height="144" viewBox="0 0 144 144"><defs><style>.cls-1{fill:#141414;}.cls-2{fill:#f87830;}.cls-3{fill:#782800;}</style></defs><rect class="cls-1" width="144" height="144"/><rect class="cls-2" x="-144" y="18" width="144" height="108"/><rect class="cls-2" y="18" width="126" height="108"/><rect class="cls-3" x="-81" y="45" width="18" height="144" transform="translate(-189 45) rotate(-90)"/><rect class="cls-3" x="54" y="54" width="18" height="126" transform="translate(-54 180) rotate(-90)"/><rect class="cls-3" x="81" y="63" width="72" height="18" transform="translate(45 189) rotate(-90)"/><rect class="cls-3" x="-18" y="90" width="18" height="18" transform="translate(-108 90) rotate(-90)"/><rect class="cls-3" x="-18" y="18" width="18" height="18" transform="translate(-36 18) rotate(-90)"/><rect class="cls-3" x="18" y="72" width="18" height="18" transform="translate(-54 108) rotate(-90)"/><rect class="cls-3" x="54" y="36" width="18" height="18" transform="translate(18 108) rotate(-90)"/><rect class="cls-3" x="90" y="18" width="18" height="18" transform="translate(72 126) rotate(-90)"/><rect class="cls-1" x="-1" y="144" width="144" height="144"/><rect class="cls-1" x="143" y="144" width="144" height="144"/></svg>