<svg id="Layer_2" data-name="Layer 2" xmlns="http://www.w3.org/2000/svg" width="144" height="144" viewBox="0 0 144 144"><defs><style>.cls-1{fill:#fc9a00;}</style></defs><path class="cls-1" d="M126,9H9V135H135V9Zm0,117H18V18H126Z"/><circle class="cls-1" cx="38.62" cy="21.38" r="0.75"/><circle class="cls-1" cx="52.12" cy="21.38" r="0.75"/><circle class="cls-1" cx="65.62" cy="21.38" r="0.75"/><circle class="cls-1" cx="79.12" cy="21.38" r="0.75"/><circle class="cls-1" cx="106.12" cy="21.38" r="0.75"/><circle class="cls-1" cx="92.62" cy="21.38" r="0.75"/><circle class="cls-1" cx="119.62" cy="21.38" r="0.75"/><circle class="cls-1" cx="112.87" cy="28.13" r="1.13"/><circle class="cls-1" cx="99.37" cy="28.13" r="1.13"/><circle class="cls-1" cx="85.87" cy="28.13" r="1.13"/><circle class="cls-1" cx="72.37" cy="28.13" r="1.13"/><circle class="cls-1" cx="58.87" cy="28.13" r="1.13"/><circle class="cls-1" cx="45.37" cy="28.13" r="1.13"/><circle class="cls-1" cx="31.87" cy="28.13" r="1.13"/><circle class="cls-1" cx="25.12" cy="21.38" r="0.75"/><circle class="cls-1" cx="38.62" cy="34.88" r="1.5"/><circle class="cls-1" cx="52.12" cy="34.88" r="1.5"/><circle class="cls-1" cx="65.62" cy="34.88" r="1.5"/><circle class="cls-1" cx="79.12" cy="34.88" r="1.5"/><circle class="cls-1" cx="106.12" cy="34.88" r="1.5"/><circle class="cls-1" cx="92.62" cy="34.88" r="1.5"/><circle class="cls-1" cx="119.62" cy="34.88" r="1.5"/><circle class="cls-1" cx="112.87" cy="41.63" r="1.87"/><circle class="cls-1" cx="99.37" cy="41.63" r="1.87"/><circle class="cls-1" cx="85.87" cy="41.63" r="1.87"/><circle class="cls-1" cx="72.37" cy="41.63" r="1.87"/><circle class="cls-1" cx="58.87" cy="41.63" r="1.87"/><circle class="cls-1" cx="45.37" cy="41.63" r="1.87"/><circle class="cls-1" cx="31.87" cy="41.63" r="1.87"/><circle class="cls-1" cx="25.12" cy="34.88" r="1.5"/><circle class="cls-1" cx="38.62" cy="48.38" r="2.25"/><circle class="cls-1" cx="52.12" cy="48.38" r="2.25"/><circle class="cls-1" cx="65.62" cy="48.38" r="2.25"/><circle class="cls-1" cx="79.12" cy="48.38" r="2.25"/><circle class="cls-1" cx="106.12" cy="48.38" r="2.25"/><circle class="cls-1" cx="92.62" cy="48.38" r="2.25"/><circle class="cls-1" cx="119.62" cy="48.38" r="2.25"/><circle class="cls-1" cx="112.87" cy="55.13" r="2.62"/><circle class="cls-1" cx="99.37" cy="55.13" r="2.62"/><circle class="cls-1" cx="85.87" cy="55.13" r="2.62"/><circle class="cls-1" cx="72.37" cy="55.13" r="2.62"/><circle class="cls-1" cx="58.87" cy="55.13" r="2.62"/><circle class="cls-1" cx="45.37" cy="55.13" r="2.62"/><circle class="cls-1" cx="31.87" cy="55.13" r="2.62"/><circle class="cls-1" cx="25.12" cy="48.38" r="2.25"/><circle class="cls-1" cx="38.62" cy="61.88" r="3"/><circle class="cls-1" cx="52.12" cy="61.88" r="3"/><circle class="cls-1" cx="65.62" cy="61.88" r="3"/><circle class="cls-1" cx="79.12" cy="61.88" r="3"/><circle class="cls-1" cx="106.12" cy="61.88" r="3"/><circle class="cls-1" cx="92.62" cy="61.88" r="3"/><circle class="cls-1" cx="119.62" cy="61.88" r="3"/><circle class="cls-1" cx="112.87" cy="68.63" r="3.37"/><circle class="cls-1" cx="99.37" cy="68.63" r="3.37"/><circle class="cls-1" cx="85.87" cy="68.63" r="3.37"/><circle class="cls-1" cx="72.37" cy="68.63" r="3.37"/><circle class="cls-1" cx="58.87" cy="68.63" r="3.37"/><circle class="cls-1" cx="45.37" cy="68.63" r="3.37"/><circle class="cls-1" cx="31.87" cy="68.63" r="3.37"/><circle class="cls-1" cx="25.12" cy="61.88" r="3"/><circle class="cls-1" cx="38.62" cy="75.38" r="3.75"/><circle class="cls-1" cx="52.12" cy="75.38" r="3.75"/><circle class="cls-1" cx="65.62" cy="75.38" r="3.75"/><circle class="cls-1" cx="79.12" cy="75.38" r="3.75"/><circle class="cls-1" cx="106.12" cy="75.38" r="3.75"/><circle class="cls-1" cx="92.62" cy="75.38" r="3.75"/><circle class="cls-1" cx="119.62" cy="75.38" r="3.75"/><circle class="cls-1" cx="112.87" cy="82.13" r="4.13"/><circle class="cls-1" cx="99.37" cy="82.13" r="4.13"/><circle class="cls-1" cx="85.87" cy="82.13" r="4.13"/><circle class="cls-1" cx="72.37" cy="82.13" r="4.13"/><circle class="cls-1" cx="58.87" cy="82.13" r="4.13"/><circle class="cls-1" cx="45.37" cy="82.13" r="4.13"/><circle class="cls-1" cx="31.87" cy="82.13" r="4.13"/><circle class="cls-1" cx="25.12" cy="75.38" r="3.75"/><circle class="cls-1" cx="38.62" cy="88.88" r="4.5"/><circle class="cls-1" cx="52.12" cy="88.88" r="4.5"/><circle class="cls-1" cx="65.62" cy="88.88" r="4.5"/><circle class="cls-1" cx="79.12" cy="88.88" r="4.5"/><circle class="cls-1" cx="106.12" cy="88.88" r="4.5"/><circle class="cls-1" cx="92.62" cy="88.88" r="4.5"/><circle class="cls-1" cx="119.62" cy="88.88" r="4.5"/><circle class="cls-1" cx="25.12" cy="88.88" r="4.5"/><path class="cls-1" d="M19.5,28.13A1.12,1.12,0,0,0,18.37,27a1.16,1.16,0,0,0-.37.07v2.11a1.16,1.16,0,0,0,.37.07A1.12,1.12,0,0,0,19.5,28.13Z"/><path class="cls-1" d="M20.25,41.63a1.88,1.88,0,0,0-1.88-1.88,1.55,1.55,0,0,0-.37,0v3.67a1.55,1.55,0,0,0,.37,0A1.88,1.88,0,0,0,20.25,41.63Z"/><path class="cls-1" d="M21,55.13a2.63,2.63,0,0,0-2.63-2.63,2.33,2.33,0,0,0-.37,0v5.17a2.33,2.33,0,0,0,.37,0A2.63,2.63,0,0,0,21,55.13Z"/><path class="cls-1" d="M21.75,68.63a3.38,3.38,0,0,0-3.38-3.38,2.33,2.33,0,0,0-.37,0V72a2.33,2.33,0,0,0,.37,0A3.37,3.37,0,0,0,21.75,68.63Z"/><path class="cls-1" d="M22.5,82.13A4.13,4.13,0,0,0,18.37,78L18,78v8.21l.37,0A4.13,4.13,0,0,0,22.5,82.13Z"/><path class="cls-1" d="M121.5,95.62a4.89,4.89,0,0,0,.46,2.06,5.15,5.15,0,0,0-4.67,0,4.88,4.88,0,1,0-8.83,0,5.15,5.15,0,0,0-4.67,0,4.88,4.88,0,1,0-8.83,0,5.15,5.15,0,0,0-4.67,0,4.88,4.88,0,1,0-8.83,0,5.15,5.15,0,0,0-4.67,0,4.88,4.88,0,1,0-8.83,0,5.15,5.15,0,0,0-4.67,0,4.88,4.88,0,1,0-8.83,0,5.15,5.15,0,0,0-4.67,0,4.88,4.88,0,1,0-8.83,0,5.15,5.15,0,0,0-4.67,0,4.88,4.88,0,1,0-8.83,0,5.15,5.15,0,0,0-4.67,0,4.87,4.87,0,0,0-4.42-6.93l-.37,0v9.71l.37,0a4.89,4.89,0,0,0,2.06-.46,5.27,5.27,0,0,0-.56,2.33,4.92,4.92,0,0,0,.2,1.39,5.65,5.65,0,0,0-1.7-.26l-.37,0v11.21l.37,0a6,6,0,0,0,1.28-.15,6,6,0,0,0-.15,1.27,6.4,6.4,0,0,0,.07.88,5.81,5.81,0,0,0-1.2-.13l-.37,0V126H126v-9.36a5.72,5.72,0,0,0-.83.12,5.17,5.17,0,0,0,.08-.89,6,6,0,0,0-.15-1.28,5.28,5.28,0,0,0,.9.14V103.52a5.71,5.71,0,0,0-1.32.25,5.32,5.32,0,0,0,.19-1.4,5.19,5.19,0,0,0-.55-2.33,4.74,4.74,0,0,0,1.68.44V90.77A4.87,4.87,0,0,0,121.5,95.62ZM121,107.43a5.58,5.58,0,0,0-.26,1.69,6,6,0,0,0,.15,1.28,5.49,5.49,0,0,0-2.55,0,6,6,0,0,0,.15-1.28,5.63,5.63,0,0,0-.26-1.69,4.89,4.89,0,0,0,1.38.19A5.24,5.24,0,0,0,121,107.43ZM114.93,100a5.27,5.27,0,0,0-.56,2.33,4.92,4.92,0,0,0,.2,1.39,5.66,5.66,0,0,0-3.39,0,4.91,4.91,0,0,0,.19-1.39,5.26,5.26,0,0,0-.55-2.33,4.82,4.82,0,0,0,4.11,0Zm-7.42,7.39a5.63,5.63,0,0,0-.26,1.69,6,6,0,0,0,.15,1.28,5.49,5.49,0,0,0-2.55,0,6,6,0,0,0,.15-1.28,5.63,5.63,0,0,0-.26-1.69,5.14,5.14,0,0,0,2.77,0ZM101.43,100a5.27,5.27,0,0,0-.56,2.33,4.92,4.92,0,0,0,.2,1.39,5.66,5.66,0,0,0-3.39,0,4.91,4.91,0,0,0,.19-1.39,5.26,5.26,0,0,0-.55-2.33,4.82,4.82,0,0,0,4.11,0ZM94,107.43a5.63,5.63,0,0,0-.26,1.69,6,6,0,0,0,.15,1.28,5.49,5.49,0,0,0-2.55,0,6,6,0,0,0,.15-1.28,5.63,5.63,0,0,0-.26-1.69,5.14,5.14,0,0,0,2.77,0ZM87.93,100a5.27,5.27,0,0,0-.56,2.33,4.92,4.92,0,0,0,.2,1.39,5.66,5.66,0,0,0-3.39,0,4.91,4.91,0,0,0,.19-1.39,5.26,5.26,0,0,0-.55-2.33,4.82,4.82,0,0,0,4.11,0Zm-7.42,7.39a5.63,5.63,0,0,0-.26,1.69,6,6,0,0,0,.15,1.28,5.49,5.49,0,0,0-2.55,0,6,6,0,0,0,.15-1.28,5.63,5.63,0,0,0-.26-1.69,5.14,5.14,0,0,0,2.77,0ZM74.43,100a5.27,5.27,0,0,0-.56,2.33,4.92,4.92,0,0,0,.2,1.39,5.66,5.66,0,0,0-3.39,0,4.91,4.91,0,0,0,.19-1.39,5.26,5.26,0,0,0-.55-2.33,4.82,4.82,0,0,0,4.11,0ZM67,107.43a5.63,5.63,0,0,0-.26,1.69,6,6,0,0,0,.15,1.28,5.49,5.49,0,0,0-2.55,0,6,6,0,0,0,.15-1.28,5.63,5.63,0,0,0-.26-1.69,5.14,5.14,0,0,0,2.77,0ZM60.93,100a5.27,5.27,0,0,0-.56,2.33,4.92,4.92,0,0,0,.2,1.39,5.66,5.66,0,0,0-3.39,0,4.91,4.91,0,0,0,.19-1.39,5.26,5.26,0,0,0-.55-2.33,4.82,4.82,0,0,0,4.11,0Zm-7.42,7.39a5.63,5.63,0,0,0-.26,1.69,6,6,0,0,0,.15,1.28,5.49,5.49,0,0,0-2.55,0,6,6,0,0,0,.15-1.28,5.63,5.63,0,0,0-.26-1.69,5.14,5.14,0,0,0,2.77,0ZM47.43,100a5.27,5.27,0,0,0-.56,2.33,4.92,4.92,0,0,0,.2,1.39,5.66,5.66,0,0,0-3.39,0,4.91,4.91,0,0,0,.19-1.39,5.26,5.26,0,0,0-.55-2.33,4.82,4.82,0,0,0,4.11,0ZM40,107.43a5.63,5.63,0,0,0-.26,1.69,6,6,0,0,0,.15,1.28,5.49,5.49,0,0,0-2.55,0,6,6,0,0,0,.15-1.28,5.63,5.63,0,0,0-.26-1.69,5.14,5.14,0,0,0,2.77,0ZM33.93,100a5.27,5.27,0,0,0-.56,2.33,4.92,4.92,0,0,0,.2,1.39,5.66,5.66,0,0,0-3.39,0,4.91,4.91,0,0,0,.19-1.39,5.26,5.26,0,0,0-.55-2.33,4.82,4.82,0,0,0,4.11,0Zm-7.42,7.39a5.63,5.63,0,0,0-.26,1.69,6,6,0,0,0,.15,1.28,5.49,5.49,0,0,0-2.55,0,6,6,0,0,0,.15-1.28,5.63,5.63,0,0,0-.26-1.69,5.14,5.14,0,0,0,2.77,0Zm-2.15,14.88a6.22,6.22,0,0,0-.11-.88,5.5,5.5,0,0,0,1.75,0,6.22,6.22,0,0,0-.11.88,4.91,4.91,0,0,0-1.53,0Zm7.51-5.69a5.78,5.78,0,0,0-1.19.13,6.4,6.4,0,0,0,.07-.88,6,6,0,0,0-.15-1.27,5.49,5.49,0,0,0,2.55,0,6,6,0,0,0-.15,1.27,6.4,6.4,0,0,0,.07.88A5.81,5.81,0,0,0,31.87,116.62Zm6,5.69a6.22,6.22,0,0,0-.11-.88,5.5,5.5,0,0,0,1.75,0,6.22,6.22,0,0,0-.11.88,4.91,4.91,0,0,0-1.53,0Zm7.51-5.69a5.78,5.78,0,0,0-1.19.13,6.4,6.4,0,0,0,.07-.88,6,6,0,0,0-.15-1.27,5.49,5.49,0,0,0,2.55,0,6,6,0,0,0-.15,1.27,6.4,6.4,0,0,0,.07.88A5.81,5.81,0,0,0,45.37,116.62Zm6,5.69a6.22,6.22,0,0,0-.11-.88,5.5,5.5,0,0,0,1.75,0,6.22,6.22,0,0,0-.11.88,4.91,4.91,0,0,0-1.53,0Zm7.51-5.69a5.78,5.78,0,0,0-1.19.13,6.4,6.4,0,0,0,.07-.88,6,6,0,0,0-.15-1.27,5.49,5.49,0,0,0,2.55,0,6,6,0,0,0-.15,1.27,6.4,6.4,0,0,0,.07.88A5.81,5.81,0,0,0,58.87,116.62Zm6,5.69a6.22,6.22,0,0,0-.11-.88,5.5,5.5,0,0,0,1.75,0,6.22,6.22,0,0,0-.11.88,4.91,4.91,0,0,0-1.53,0Zm7.51-5.69a5.78,5.78,0,0,0-1.19.13,6.4,6.4,0,0,0,.07-.88,6,6,0,0,0-.15-1.27,5.49,5.49,0,0,0,2.55,0,6,6,0,0,0-.15,1.27,6.4,6.4,0,0,0,.07.88A5.81,5.81,0,0,0,72.37,116.62Zm6,5.69a6.22,6.22,0,0,0-.11-.88,5.5,5.5,0,0,0,1.75,0,6.22,6.22,0,0,0-.11.88,4.91,4.91,0,0,0-1.53,0Zm7.51-5.69a5.78,5.78,0,0,0-1.19.13,6.4,6.4,0,0,0,.07-.88,6,6,0,0,0-.15-1.27,5.49,5.49,0,0,0,2.55,0,6,6,0,0,0-.15,1.27,6.4,6.4,0,0,0,.07.88A5.81,5.81,0,0,0,85.87,116.62Zm6,5.69a6.22,6.22,0,0,0-.11-.88,5.5,5.5,0,0,0,1.75,0,6.22,6.22,0,0,0-.11.88,4.91,4.91,0,0,0-1.53,0Zm7.51-5.69a5.78,5.78,0,0,0-1.19.13,6.4,6.4,0,0,0,.07-.88,6,6,0,0,0-.15-1.27,5.49,5.49,0,0,0,2.55,0,6,6,0,0,0-.15,1.27,6.4,6.4,0,0,0,.07.88A5.81,5.81,0,0,0,99.37,116.62Zm6,5.69a6.22,6.22,0,0,0-.11-.88,5.5,5.5,0,0,0,1.75,0,6.22,6.22,0,0,0-.11.88,4.91,4.91,0,0,0-1.53,0Zm7.51-5.69a5.78,5.78,0,0,0-1.19.13,6.4,6.4,0,0,0,.07-.88,6,6,0,0,0-.15-1.27,5.49,5.49,0,0,0,2.55,0,6,6,0,0,0-.15,1.27,6.4,6.4,0,0,0,.07.88A5.81,5.81,0,0,0,112.87,116.62Zm6,5.69a6.22,6.22,0,0,0-.11-.88,5.5,5.5,0,0,0,1.75,0,6.22,6.22,0,0,0-.11.88,4.91,4.91,0,0,0-1.53,0Z"/><path class="cls-1" d="M122.25,82.13a4.12,4.12,0,0,0,3.75,4.1V78A4.12,4.12,0,0,0,122.25,82.13Z"/><path class="cls-1" d="M123,68.63A3.36,3.36,0,0,0,126,72V65.29A3.36,3.36,0,0,0,123,68.63Z"/><path class="cls-1" d="M123.75,55.13A2.61,2.61,0,0,0,126,57.71V52.54A2.61,2.61,0,0,0,123.75,55.13Z"/><path class="cls-1" d="M124.5,41.63a1.87,1.87,0,0,0,1.5,1.83V39.79A1.87,1.87,0,0,0,124.5,41.63Z"/><path class="cls-1" d="M125.25,28.13a1.11,1.11,0,0,0,.75,1.05V27.07A1.12,1.12,0,0,0,125.25,28.13Z"/></svg>