<svg id="Layer_1" data-name="Layer 1" xmlns="http://www.w3.org/2000/svg" width="144" height="144" viewBox="0 0 144 144"><defs><style>.cls-1{fill:#111;}.cls-2{fill:#aaa;}.cls-3{fill:#3a3a3a;}</style></defs><title>mino-i2</title><rect class="cls-1" width="144" height="144"/><rect class="cls-2" x="-126" y="18" width="126" height="108"/><rect class="cls-2" y="18" width="144" height="108"/><rect class="cls-3" y="18" width="18" height="18" transform="translate(-18 36) rotate(-90)"/><rect class="cls-3" y="72" width="18" height="18" transform="translate(-72 90) rotate(-90)"/><rect class="cls-3" x="18" y="108" width="18" height="18" transform="translate(-90 144) rotate(-90)"/><rect class="cls-3" x="36" y="54" width="18" height="18" transform="translate(-18 108) rotate(-90)"/><rect class="cls-3" x="36" y="18" width="18" height="18" transform="translate(18 72) rotate(-90)"/><rect class="cls-3" x="54" y="90" width="18" height="18" transform="translate(-36 162) rotate(-90)"/><rect class="cls-3" x="90" y="108" width="18" height="18" transform="translate(-18 216) rotate(-90)"/><rect class="cls-3" x="90" y="72" width="18" height="18" transform="translate(18 180) rotate(-90)"/><rect class="cls-3" x="126" y="90" width="18" height="18" transform="translate(36 234) rotate(-90)"/><rect class="cls-3" x="72" y="18" width="18" height="18" transform="translate(54 108) rotate(-90)"/><rect class="cls-3" x="108" y="36" width="18" height="18" transform="translate(72 162) rotate(-90)"/></svg>