<svg id="Layer_1" data-name="Layer 1" xmlns="http://www.w3.org/2000/svg" xmlns:xlink="http://www.w3.org/1999/xlink" width="144" height="144" viewBox="0 0 144 144"><defs><style>.cls-1{fill:url(#linear-gradient);}.cls-2{fill:url(#linear-gradient-2);}.cls-3{fill:url(#radial-gradient);}.cls-4{fill:#fff;}.cls-5{fill:url(#radial-gradient-2);}.cls-6{fill:url(#radial-gradient-3);}.cls-7{fill:url(#radial-gradient-4);}</style><linearGradient id="linear-gradient" x1="72" y1="144" x2="72" gradientUnits="userSpaceOnUse"><stop offset="0" stop-color="#fefa11"/><stop offset="1" stop-color="#9f9b0f"/></linearGradient><linearGradient id="linear-gradient-2" x1="72" y1="135" x2="72" y2="9" gradientUnits="userSpaceOnUse"><stop offset="0" stop-color="#f7f311"/><stop offset="0.42" stop-color="#aba80b"/><stop offset="0.82" stop-color="#696706"/><stop offset="1" stop-color="#504e04"/></linearGradient><radialGradient id="radial-gradient" cx="71.57" cy="115.62" r="84.26" gradientTransform="translate(0 -11.7) scale(1 1.1)" gradientUnits="userSpaceOnUse"><stop offset="0" stop-color="#f9f8b6"/><stop offset="0.27" stop-color="#f3f06b"/><stop offset="0.53" stop-color="#ede929"/><stop offset="0.65" stop-color="#ebe610"/></radialGradient><radialGradient id="radial-gradient-2" cx="70.11" cy="78.85" r="53.12" gradientTransform="translate(-73.16 148.96) rotate(-90) scale(1 1.82)" gradientUnits="userSpaceOnUse"><stop offset="0.54" stop-color="#fff"/><stop offset="0.95" stop-color="#fff" stop-opacity="0"/></radialGradient><radialGradient id="radial-gradient-3" cx="214.11" cy="78.85" r="53.12" gradientTransform="translate(70.84 292.96) rotate(-90) scale(1 1.82)" xlink:href="#radial-gradient-2"/><radialGradient id="radial-gradient-4" cx="71.49" cy="134.86" r="101.06" gradientTransform="matrix(1, 0, 0, 1, 0, 0)" xlink:href="#radial-gradient"/></defs><title>mino-yellow</title><rect class="cls-1" width="144" height="144" rx="5.6"/><rect class="cls-2" x="9" y="9" width="126" height="126" rx="2.45"/><rect class="cls-3" x="27" y="18" width="90" height="99" rx="3.06"/><rect class="cls-4" x="18" y="18" width="108" height="4" rx="1.63"/><path class="cls-5" d="M0,9V72C0,57.09,32.24,45,72,45s72,12.09,72,27V9Z"/><path class="cls-6" d="M144,9V72c0-14.91,32.24-27,72-27s72,12.09,72,27V9Z"/><rect class="cls-7" x="18" y="126" width="108" height="9"/></svg>