<svg id="Layer_1" data-name="Layer 1" xmlns="http://www.w3.org/2000/svg" xmlns:xlink="http://www.w3.org/1999/xlink" width="144" height="144" viewBox="0 0 144 144"><defs><style>.cls-1{fill:url(#linear-gradient);}.cls-2{fill:url(#linear-gradient-2);}.cls-3{fill:url(#radial-gradient);}.cls-4{fill:#fff;}.cls-5{fill:url(#radial-gradient-2);}.cls-6{fill:url(#linear-gradient-3);}.cls-7{fill:url(#radial-gradient-3);}</style><linearGradient id="linear-gradient" x1="72" y1="144" x2="72" gradientUnits="userSpaceOnUse"><stop offset="0" stop-color="#11cefe"/><stop offset="1" stop-color="#0e86a7"/></linearGradient><linearGradient id="linear-gradient-2" x1="72" y1="135" x2="72" y2="9" gradientUnits="userSpaceOnUse"><stop offset="0" stop-color="#11c8f7"/><stop offset="0.37" stop-color="#0d98bb"/><stop offset="0.8" stop-color="#08637a"/><stop offset="1" stop-color="#064f61"/></linearGradient><radialGradient id="radial-gradient" cx="71.57" cy="128.71" r="84.26" gradientTransform="translate(0 -26.1) scale(1 1.1)" gradientUnits="userSpaceOnUse"><stop offset="0" stop-color="#b6edfa"/><stop offset="0.27" stop-color="#6cdaf4"/><stop offset="0.53" stop-color="#2ac9ee"/><stop offset="0.65" stop-color="#11c3ec"/></radialGradient><radialGradient id="radial-gradient-2" cx="70.11" cy="78.85" r="53.12" gradientTransform="translate(-73.16 148.96) rotate(-90) scale(1 1.82)" gradientUnits="userSpaceOnUse"><stop offset="0.54" stop-color="#fff"/><stop offset="0.95" stop-color="#fff" stop-opacity="0"/></radialGradient><linearGradient id="linear-gradient-3" x1="216" y1="144" x2="216" gradientUnits="userSpaceOnUse"><stop offset="0" stop-color="#101cfd"/><stop offset="1" stop-color="#0d15b1"/></linearGradient><radialGradient id="radial-gradient-3" cx="214.11" cy="78.85" r="53.12" gradientTransform="translate(70.84 292.96) rotate(-90) scale(1 1.82)" xlink:href="#radial-gradient-2"/></defs><title>stack-lightBlue</title><rect class="cls-1" width="144" height="144" rx="5.6"/><rect class="cls-2" x="9" y="9" width="126" height="126" rx="2.45"/><rect class="cls-3" x="27" y="18" width="90" height="99" rx="3.06"/><rect class="cls-4" x="18" y="18" width="108" height="4" rx="1.63"/><path class="cls-5" d="M0,9V72C0,57.09,32.24,45,72,45s72,12.09,72,27V9Z"/><rect class="cls-6" x="144" width="144" height="144" rx="5.6"/><path class="cls-7" d="M144,9V72c0-14.91,32.24-27,72-27s72,12.09,72,27V9Z"/></svg>