<svg xmlns="http://www.w3.org/2000/svg" viewBox="0 0 120 133"><defs><style>.cls-1{fill:#c4c4c4;}.cls-2{fill:#fff;}</style></defs><title>general-b</title><g id="Layer_2" data-name="Layer 2"><g id="Layer_1-2" data-name="Layer 1"><path class="cls-1" d="M120,52.55H91.65A77.18,77.18,0,0,0,60,46a77.18,77.18,0,0,0-31.65,6.55H0V89H0c0,.16,0,.31,0,.47,0,24,26.86,43.5,60,43.5s60-19.48,60-43.5c0-.16,0-.31,0-.47h0Z"/><ellipse class="cls-2" cx="60" cy="51.5" rx="60" ry="51.5"/><path d="M44.62,69.78V19.35h14.9q8.1,0,12.29,3.34T76,32.55a11.14,11.14,0,0,1-2.13,6.81A11.68,11.68,0,0,1,68,43.51,12.19,12.19,0,0,1,77.8,55.59q0,6.67-4.31,10.43t-12,3.76ZM48.88,42H60.52q5.34-.11,8.26-2.52a8.58,8.58,0,0,0,2.93-7q0-4.86-3-7.17c-2-1.54-5.08-2.31-9.16-2.31H48.88Zm0,3.6V66.18H61.66q5.48,0,8.68-2.79a9.7,9.7,0,0,0,3.2-7.72,9.37,9.37,0,0,0-3.06-7.39Q67.41,45.57,62,45.57Z"/></g></g></svg>