<svg xmlns="http://www.w3.org/2000/svg" viewBox="0 0 120 133"><defs><style>.cls-1{fill:#c4c4c4;}.cls-2{fill:#fff;}</style></defs><title>a_button</title><g id="Layer_2" data-name="Layer 2"><g id="Layer_1-2" data-name="Layer 1"><path class="cls-1" d="M120,52.55H91.65A77.18,77.18,0,0,0,60,46a77.18,77.18,0,0,0-31.65,6.55H0V89H0c0,.16,0,.31,0,.47,0,24,26.86,43.5,60,43.5s60-19.48,60-43.5c0-.16,0-.31,0-.47h0Z"/><ellipse class="cls-2" cx="60" cy="51.5" rx="60" ry="51.5"/><path d="M71.43,55.61H48.54l-5.2,14.17H38.87L58,19.35h4L81.09,69.78H76.66ZM49.85,52H70.08L60,24.55Z"/></g></g></svg>