<svg xmlns="http://www.w3.org/2000/svg" viewBox="0 0 245.25 107.75"><defs><style>.cls-1{fill:#fff;}.cls-2{fill:#c4c4c4;}.cls-3{fill:none;stroke:#000;stroke-miterlimit:10;stroke-width:4px;}</style></defs><title>keyboard-enter</title><g id="Layer_2" data-name="Layer 2"><g id="Layer_1-2" data-name="Layer 1"><rect class="cls-1" width="245.25" height="80"/><rect class="cls-2" y="79.75" width="245.25" height="28"/><polyline class="cls-3" points="59.25 48.52 59.25 59.14 12.25 59.14"/><polyline class="cls-3" points="23.62 48.52 12.63 59.52 22.86 69.75"/><path d="M27.16,25.56H15.25v9.75H29.09v3H11.62V10.78H28.9v3H15.25V22.6H27.16Z"/><path d="M36.36,17.84l.11,2.57a7.43,7.43,0,0,1,6.12-2.95q6.48,0,6.53,7.31v13.5H45.63V24.75a4.72,4.72,0,0,0-1-3.27,4.07,4.07,0,0,0-3.09-1.05,5,5,0,0,0-3,.9,6.1,6.1,0,0,0-2,2.38V38.27h-3.5V17.84Z"/><path d="M59.13,12.89v4.95H63v2.7H59.13V33.23a2.84,2.84,0,0,0,.51,1.84,2.15,2.15,0,0,0,1.74.61A8.49,8.49,0,0,0,63,35.46v2.81a10.19,10.19,0,0,1-2.68.38,4.33,4.33,0,0,1-3.53-1.42,6,6,0,0,1-1.19-4V20.54H51.92v-2.7h3.72V12.89Z"/><path d="M75.5,38.65a8.93,8.93,0,0,1-6.76-2.73,10.16,10.16,0,0,1-2.6-7.3V28a12.17,12.17,0,0,1,1.16-5.43,9,9,0,0,1,3.25-3.74,8.14,8.14,0,0,1,4.52-1.35,7.65,7.65,0,0,1,6.19,2.63q2.2,2.63,2.21,7.51v1.46H69.63a7.25,7.25,0,0,0,1.77,4.88,5.52,5.52,0,0,0,4.29,1.86A6.16,6.16,0,0,0,78.83,35a7.86,7.86,0,0,0,2.24-2l2.14,1.66A8.6,8.6,0,0,1,75.5,38.65Zm-.43-18.32a4.64,4.64,0,0,0-3.55,1.54,7.48,7.48,0,0,0-1.78,4.32H80v-.27a6.66,6.66,0,0,0-1.44-4.13A4.39,4.39,0,0,0,75.07,20.33Z"/><path d="M97.39,21a11.46,11.46,0,0,0-1.72-.13A4.6,4.6,0,0,0,91,23.77v14.5h-3.5V17.84h3.4L91,20.2a5.43,5.43,0,0,1,4.87-2.74,3.5,3.5,0,0,1,1.55.27Z"/></g></g></svg>