<svg xmlns="http://www.w3.org/2000/svg" viewBox="0 0 329.84 201.2"><defs><style>.cls-1{fill:#fff;}.cls-2{fill:#c4c4c4;}.cls-3{fill:none;stroke:#000;stroke-miterlimit:10;stroke-width:4px;}</style></defs><title>arrows</title><g id="Layer_2" data-name="Layer 2"><g id="Layer_1-2" data-name="Layer 1"><rect class="cls-1" x="114.03" width="101.84" height="80"/><rect class="cls-2" x="114.03" y="79.75" width="101.84" height="28"/><line class="cls-3" x1="164.95" y1="60.09" x2="164.95" y2="22.71"/><polyline class="cls-3" points="179.64 38.19 164.95 23.5 150.25 38.19"/><rect class="cls-1" x="114" y="93.45" width="101.84" height="80"/><rect class="cls-2" x="114" y="173.2" width="101.84" height="28"/><line class="cls-3" x1="164.92" y1="116.16" x2="164.92" y2="153.53"/><polyline class="cls-3" points="150.23 138.05 164.92 152.75 179.62 138.05"/><rect class="cls-1" x="228" y="93.45" width="101.84" height="80"/><rect class="cls-2" x="228" y="173.2" width="101.84" height="28"/><line class="cls-3" x1="260.23" y1="134.85" x2="297.61" y2="134.85"/><polyline class="cls-3" points="282.13 149.54 296.82 134.85 282.13 120.15"/><rect class="cls-1" y="93.45" width="101.84" height="80"/><rect class="cls-2" y="173.2" width="101.84" height="28"/><line class="cls-3" x1="69.61" y1="134.85" x2="32.23" y2="134.85"/><polyline class="cls-3" points="47.72 120.15 33.02 134.85 47.72 149.54"/></g></g></svg>