<svg xmlns="http://www.w3.org/2000/svg" viewBox="0 0 206.31 107.75"><defs><style>.cls-1{fill:#fff;}.cls-2{fill:#c4c4c4;}.cls-3{fill:none;stroke:#000;stroke-miterlimit:10;stroke-width:4px;}</style></defs><title>keyboard-backspace</title><g id="Layer_2" data-name="Layer 2"><g id="Layer_1-2" data-name="Layer 1"><rect class="cls-1" width="206.31" height="80"/><rect class="cls-2" y="79.75" width="206.31" height="28"/><line class="cls-3" x1="59.25" y1="59.14" x2="12.25" y2="59.14"/><polyline class="cls-3" points="23.62 48.52 12.63 59.52 22.86 69.75"/><path d="M10.62,38.27V10.78h9c3,0,5.23.61,6.73,1.85A6.65,6.65,0,0,1,28.6,18.1a5.59,5.59,0,0,1-1.1,3.41,7.15,7.15,0,0,1-3,2.3A6.33,6.33,0,0,1,28,26.18a6.8,6.8,0,0,1,1.29,4.16,7.38,7.38,0,0,1-2.39,5.82q-2.4,2.12-6.78,2.11ZM14.25,22.5h5.47a5.72,5.72,0,0,0,3.81-1.19A4,4,0,0,0,25,18.08a3.94,3.94,0,0,0-1.32-3.31,6.53,6.53,0,0,0-4-1H14.25Zm0,2.91v9.9h6a5.76,5.76,0,0,0,4-1.32,4.61,4.61,0,0,0,1.46-3.61q0-5-5.4-5Z"/><path d="M46.76,38.27a7.5,7.5,0,0,1-.49-2.15,7.81,7.81,0,0,1-5.81,2.53,7.21,7.21,0,0,1-5-1.71,5.53,5.53,0,0,1-1.94-4.33,5.78,5.78,0,0,1,2.43-5,11.42,11.42,0,0,1,6.83-1.77h3.4v-1.6a3.93,3.93,0,0,0-1.1-2.92,4.43,4.43,0,0,0-3.23-1.09,5.09,5.09,0,0,0-3.13.95,2.77,2.77,0,0,0-1.27,2.28H34a4.77,4.77,0,0,1,1.09-2.95A7.43,7.43,0,0,1,38,18.29a10,10,0,0,1,4.09-.83,8.06,8.06,0,0,1,5.53,1.77,6.33,6.33,0,0,1,2.08,4.86v9.4A11.48,11.48,0,0,0,50.43,38v.3ZM41,35.61a6.19,6.19,0,0,0,3.11-.85,5.16,5.16,0,0,0,2.14-2.21V28.36H43.48q-6.42,0-6.42,3.75a3.17,3.17,0,0,0,1.09,2.57A4.2,4.2,0,0,0,41,35.61Z"/><path d="M63.38,35.8a5,5,0,0,0,3.27-1.14,4,4,0,0,0,1.55-2.83h3.3a6.31,6.31,0,0,1-1.21,3.34,7.91,7.91,0,0,1-3,2.53,8.58,8.58,0,0,1-3.94.95,8.43,8.43,0,0,1-6.64-2.79,11.08,11.08,0,0,1-2.46-7.62v-.58a12.32,12.32,0,0,1,1.09-5.31,8.27,8.27,0,0,1,3.15-3.6,8.88,8.88,0,0,1,4.84-1.29,8.19,8.19,0,0,1,5.71,2.06,7.33,7.33,0,0,1,2.43,5.34H68.2a4.85,4.85,0,0,0-1.51-3.25,4.67,4.67,0,0,0-3.33-1.28,4.87,4.87,0,0,0-4.12,1.92,9,9,0,0,0-1.47,5.54v.66a8.81,8.81,0,0,0,1.46,5.44A4.91,4.91,0,0,0,63.38,35.8Z"/><path d="M81.13,28.81l-2.19,2.28v7.18H75.45v-29h3.49V26.81l1.87-2.25,6.36-6.72h4.25l-8,8.53,8.88,11.9h-4.1Z"/><path d="M106.93,32.85a2.58,2.58,0,0,0-1.07-2.2,10.34,10.34,0,0,0-3.72-1.35,17.63,17.63,0,0,1-4.21-1.36,6,6,0,0,1-2.31-1.89,4.56,4.56,0,0,1-.74-2.6A5.31,5.31,0,0,1,97,19.2a8.3,8.3,0,0,1,5.43-1.74,8.52,8.52,0,0,1,5.64,1.8,5.68,5.68,0,0,1,2.16,4.58h-3.51a3.16,3.16,0,0,0-1.22-2.47,4.58,4.58,0,0,0-3.07-1,4.8,4.8,0,0,0-3,.83,2.62,2.62,0,0,0-1.08,2.17,2.11,2.11,0,0,0,1,1.91A12.23,12.23,0,0,0,103,26.47a18.58,18.58,0,0,1,4.24,1.4,6.26,6.26,0,0,1,2.41,1.95,4.82,4.82,0,0,1,.78,2.79A5.25,5.25,0,0,1,108.23,37a9.21,9.21,0,0,1-5.69,1.65,10.28,10.28,0,0,1-4.34-.87,7,7,0,0,1-3-2.43A5.79,5.79,0,0,1,94.18,32h3.49a3.64,3.64,0,0,0,1.41,2.79,5.48,5.48,0,0,0,3.46,1,5.61,5.61,0,0,0,3.19-.81A2.45,2.45,0,0,0,106.93,32.85Z"/><path d="M132.23,28.28a12.2,12.2,0,0,1-2.14,7.52,6.82,6.82,0,0,1-5.77,2.85,7.53,7.53,0,0,1-5.86-2.36v9.84H115V17.84h3.19l.17,2.26a7.2,7.2,0,0,1,5.93-2.64,7,7,0,0,1,5.83,2.78c1.42,1.85,2.14,4.42,2.14,7.72Zm-3.49-.4a9,9,0,0,0-1.48-5.45,4.73,4.73,0,0,0-4-2,5.13,5.13,0,0,0-4.76,2.81V33a5.15,5.15,0,0,0,4.8,2.8,4.73,4.73,0,0,0,4-2A9.82,9.82,0,0,0,128.74,27.88Z"/><path d="M149.28,38.27a7.17,7.17,0,0,1-.49-2.15A7.81,7.81,0,0,1,143,38.65,7.2,7.2,0,0,1,138,36.94a5.53,5.53,0,0,1-1.94-4.33,5.78,5.78,0,0,1,2.43-5,11.39,11.39,0,0,1,6.82-1.77h3.4v-1.6a3.92,3.92,0,0,0-1.09-2.92,4.43,4.43,0,0,0-3.23-1.09,5.12,5.12,0,0,0-3.14.95A2.78,2.78,0,0,0,140,23.5H136.5a4.82,4.82,0,0,1,1.08-2.95,7.54,7.54,0,0,1,2.95-2.26,10,10,0,0,1,4.09-.83,8.07,8.07,0,0,1,5.53,1.77,6.36,6.36,0,0,1,2.08,4.86v9.4a11.69,11.69,0,0,0,.71,4.48v.3Zm-5.8-2.66a6.2,6.2,0,0,0,3.12-.85,5.14,5.14,0,0,0,2.13-2.21V28.36H146q-6.42,0-6.42,3.75a3.17,3.17,0,0,0,1.1,2.57A4.2,4.2,0,0,0,143.48,35.61Z"/><path d="M165.9,35.8a5,5,0,0,0,3.26-1.14,4,4,0,0,0,1.55-2.83H174a6.39,6.39,0,0,1-1.21,3.34,7.94,7.94,0,0,1-3,2.53,8.57,8.57,0,0,1-3.93.95,8.4,8.4,0,0,1-6.64-2.79,11.08,11.08,0,0,1-2.46-7.62v-.58a12.32,12.32,0,0,1,1.09-5.31,8.31,8.31,0,0,1,3.14-3.6,8.94,8.94,0,0,1,4.85-1.29,8.21,8.21,0,0,1,5.71,2.06A7.33,7.33,0,0,1,174,24.86h-3.31a4.8,4.8,0,0,0-1.5-3.25,4.67,4.67,0,0,0-3.33-1.28,4.89,4.89,0,0,0-4.13,1.92,9,9,0,0,0-1.46,5.54v.66a8.81,8.81,0,0,0,1.45,5.44A4.93,4.93,0,0,0,165.9,35.8Z"/><path d="M186.42,38.65a8.93,8.93,0,0,1-6.76-2.73,10.16,10.16,0,0,1-2.6-7.3V28a12.17,12.17,0,0,1,1.16-5.43,9.06,9.06,0,0,1,3.25-3.74A8.17,8.17,0,0,1,186,17.46a7.64,7.64,0,0,1,6.19,2.63c1.48,1.75,2.21,4.25,2.21,7.51v1.46H180.55a7.25,7.25,0,0,0,1.77,4.88,5.54,5.54,0,0,0,4.29,1.86,6.13,6.13,0,0,0,3.14-.76A7.86,7.86,0,0,0,192,33l2.14,1.66A8.59,8.59,0,0,1,186.42,38.65ZM186,20.33a4.65,4.65,0,0,0-3.55,1.54,7.48,7.48,0,0,0-1.78,4.31H190.9v-.26a6.66,6.66,0,0,0-1.44-4.13A4.39,4.39,0,0,0,186,20.33Z"/></g></g></svg>