<svg xmlns="http://www.w3.org/2000/svg" viewBox="0 0 245.25 107.75"><defs><style>.cls-1{fill:#fff;}.cls-2{fill:#c4c4c4;}.cls-3{fill:none;stroke:#000;stroke-miterlimit:10;stroke-width:4px;}</style></defs><title>keyboard-enter-mac</title><g id="Layer_2" data-name="Layer 2"><g id="Layer_1-2" data-name="Layer 1"><rect class="cls-1" width="245.25" height="80"/><rect class="cls-2" y="79.75" width="245.25" height="28"/><polyline class="cls-3" points="59.25 48.52 59.25 59.14 12.25 59.14"/><polyline class="cls-3" points="23.62 48.52 12.63 59.52 22.86 69.75"/><path d="M21,21a11.46,11.46,0,0,0-1.72-.13,4.6,4.6,0,0,0-4.66,2.93v14.5h-3.5V17.84h3.4l.06,2.36a5.43,5.43,0,0,1,4.87-2.74,3.5,3.5,0,0,1,1.55.27Z"/><path d="M32.28,38.65a8.93,8.93,0,0,1-6.76-2.73,10.12,10.12,0,0,1-2.61-7.3V28a12.31,12.31,0,0,1,1.16-5.43,9.13,9.13,0,0,1,3.25-3.74,8.17,8.17,0,0,1,4.52-1.35A7.66,7.66,0,0,1,38,20.09q2.2,2.63,2.21,7.51v1.46H26.41a7.25,7.25,0,0,0,1.76,4.88,5.56,5.56,0,0,0,4.3,1.86A6.1,6.1,0,0,0,35.6,35a7.76,7.76,0,0,0,2.25-2L40,34.7A8.58,8.58,0,0,1,32.28,38.65Zm-.44-18.32a4.65,4.65,0,0,0-3.55,1.54,7.55,7.55,0,0,0-1.77,4.32H36.75v-.27a6.66,6.66,0,0,0-1.43-4.13A4.42,4.42,0,0,0,31.84,20.33Z"/><path d="M49,12.89v4.95h3.81v2.7H49V33.23a2.84,2.84,0,0,0,.51,1.84,2.15,2.15,0,0,0,1.74.61,8.49,8.49,0,0,0,1.66-.22v2.81a10.25,10.25,0,0,1-2.68.38,4.35,4.35,0,0,1-3.54-1.42,6.08,6.08,0,0,1-1.18-4V20.54H41.81v-2.7h3.73V12.89Z"/><path d="M69.54,36.25a7.43,7.43,0,0,1-6,2.4,6.34,6.34,0,0,1-5-1.9,8.19,8.19,0,0,1-1.72-5.62V17.84h3.49V31q0,4.64,3.78,4.64c2.66,0,4.44-1,5.32-3V17.84h3.49V38.27H69.61Z"/><path d="M88.12,21a11.46,11.46,0,0,0-1.72-.13,4.62,4.62,0,0,0-4.67,2.93v14.5H78.24V17.84h3.4l.06,2.36a5.43,5.43,0,0,1,4.87-2.74,3.53,3.53,0,0,1,1.55.27Z"/><path d="M94.63,17.84l.11,2.57a7.44,7.44,0,0,1,6.12-2.95q6.48,0,6.54,7.31v13.5h-3.5V24.75a4.72,4.72,0,0,0-1-3.27,4.06,4.06,0,0,0-3.08-1.05,5.08,5.08,0,0,0-3,.9,6.28,6.28,0,0,0-2,2.38V38.27H91.33V17.84Z"/></g></g></svg>