<svg xmlns="http://www.w3.org/2000/svg" viewBox="0 0 206.31 107.75"><defs><style>.cls-1{fill:#fff;}.cls-2{fill:#c4c4c4;}.cls-3{fill:none;stroke:#000;stroke-miterlimit:10;stroke-width:4px;}</style></defs><title>keyboard-backspace-mac</title><g id="Layer_2" data-name="Layer 2"><g id="Layer_1-2" data-name="Layer 1"><rect class="cls-1" width="206.31" height="80"/><rect class="cls-2" y="79.75" width="206.31" height="28"/><line class="cls-3" x1="59.25" y1="59.14" x2="12.25" y2="59.14"/><polyline class="cls-3" points="23.62 48.52 12.63 59.52 22.86 69.75"/><path d="M9.22,27.89a12,12,0,0,1,2.23-7.57,7.07,7.07,0,0,1,5.84-2.86A7.08,7.08,0,0,1,23,19.92V9.27h3.49v29H23.25l-.17-2.19a7.11,7.11,0,0,1-5.83,2.57,7,7,0,0,1-5.79-2.91,12.12,12.12,0,0,1-2.24-7.59Zm3.5.39a9.11,9.11,0,0,0,1.43,5.44,4.64,4.64,0,0,0,4,2,5.09,5.09,0,0,0,4.85-3V23.31a5.13,5.13,0,0,0-4.81-2.88,4.67,4.67,0,0,0-4,2A10,10,0,0,0,12.72,28.28Z"/><path d="M40.36,38.65a8.93,8.93,0,0,1-6.76-2.73,10.11,10.11,0,0,1-2.6-7.3V28a12.17,12.17,0,0,1,1.16-5.43,9,9,0,0,1,3.25-3.74,8.14,8.14,0,0,1,4.52-1.35,7.65,7.65,0,0,1,6.19,2.63q2.21,2.63,2.21,7.51v1.46H34.49a7.25,7.25,0,0,0,1.77,4.88,5.52,5.52,0,0,0,4.29,1.86A6.06,6.06,0,0,0,43.69,35a7.86,7.86,0,0,0,2.24-2l2.14,1.66A8.6,8.6,0,0,1,40.36,38.65Zm-.43-18.32a4.67,4.67,0,0,0-3.55,1.54,7.51,7.51,0,0,0-1.78,4.31H44.84v-.26A6.61,6.61,0,0,0,43.4,21.8,4.36,4.36,0,0,0,39.93,20.33Z"/><path d="M56.17,38.27h-3.5v-29h3.5Z"/><path d="M70.24,38.65a9,9,0,0,1-6.77-2.73,10.16,10.16,0,0,1-2.6-7.3V28A12.31,12.31,0,0,1,62,22.55a9.06,9.06,0,0,1,3.25-3.74,8.17,8.17,0,0,1,4.52-1.35A7.64,7.64,0,0,1,76,20.09c1.48,1.75,2.21,4.25,2.21,7.51v1.46H64.36a7.25,7.25,0,0,0,1.77,4.88,5.54,5.54,0,0,0,4.29,1.86A6,6,0,0,0,73.56,35a8,8,0,0,0,2.25-2l2.13,1.66A8.58,8.58,0,0,1,70.24,38.65ZM69.8,20.33a4.69,4.69,0,0,0-3.55,1.54,7.44,7.44,0,0,0-1.77,4.31H74.71v-.26a6.66,6.66,0,0,0-1.43-4.12A4.4,4.4,0,0,0,69.8,20.33Z"/><path d="M87,12.89v4.95H90.8v2.7H87V33.23a2.82,2.82,0,0,0,.51,1.84,2.15,2.15,0,0,0,1.74.61,8.4,8.4,0,0,0,1.66-.22v2.81a10.19,10.19,0,0,1-2.68.38,4.33,4.33,0,0,1-3.53-1.42,6.08,6.08,0,0,1-1.19-4V20.54H79.77v-2.7h3.72V12.89Z"/><path d="M103.36,38.65a8.91,8.91,0,0,1-6.76-2.73A10.12,10.12,0,0,1,94,28.62V28a12.31,12.31,0,0,1,1.16-5.43,9.13,9.13,0,0,1,3.25-3.74,8.17,8.17,0,0,1,4.52-1.35,7.67,7.67,0,0,1,6.2,2.63q2.2,2.63,2.2,7.51v1.46H97.48a7.25,7.25,0,0,0,1.77,4.88,5.56,5.56,0,0,0,4.3,1.86,6,6,0,0,0,3.13-.76,7.89,7.89,0,0,0,2.25-2l2.13,1.66A8.58,8.58,0,0,1,103.36,38.65Zm-.44-18.32a4.69,4.69,0,0,0-3.55,1.54,7.51,7.51,0,0,0-1.77,4.31h10.23v-.26a6.66,6.66,0,0,0-1.43-4.12A4.4,4.4,0,0,0,102.92,20.33Z"/></g></g></svg>