<svg id="Layer_1" data-name="Layer 1" xmlns="http://www.w3.org/2000/svg" width="505" height="152" viewBox="0 0 505 152"><defs><style>.cls-1{fill:#fff;}</style></defs><path class="cls-1" d="M513.5,25a3,3,0,0,1,3,3V156a3,3,0,0,1-3,3H32.5a3,3,0,0,1-3-3V28a3,3,0,0,1,3-3h481m0-9H32.5a12,12,0,0,0-12,12V156a12,12,0,0,0,12,12h481a12,12,0,0,0,12-12V28a12,12,0,0,0-12-12Z" transform="translate(-20.5 -16)"/><path class="cls-1" d="M311.63,110.21H250.81L266.18,94.8l-6.05-6L234.37,114.5l25.76,25.75,6.05-6.05-15.37-15.41h60.82Z" transform="translate(-20.5 -16)"/><path class="cls-1" d="M57.07,73.73V38.92h12.5q6.72,0,10.22,2.46a8.19,8.19,0,0,1,3.51,7.15,8.25,8.25,0,0,1-1.25,4.61A7.24,7.24,0,0,1,78.4,56a7.33,7.33,0,0,1,4.18,2.67A7.81,7.81,0,0,1,84,63.43q0,5.12-3.24,7.68t-9.6,2.62Zm8.39-20.3h4.38a6.15,6.15,0,0,0,3.92-1,3.56,3.56,0,0,0,1.17-2.9,3.72,3.72,0,0,0-1.27-3.17,6.76,6.76,0,0,0-4.09-1H65.46Zm0,5.5v8.34H71a5.2,5.2,0,0,0,3.49-1,3.63,3.63,0,0,0,1.22-2.92q0-4.35-4.33-4.38Z" transform="translate(-20.5 -16)"/><path class="cls-1" d="M128,67.23h-11.5l-2,6.5h-9L118.3,38.92h7.89l12.87,34.81h-9Zm-9.49-6.48H126l-3.75-12.08Z" transform="translate(-20.5 -16)"/><path class="cls-1" d="M188.84,61.94a12.61,12.61,0,0,1-2,6.42,11.78,11.78,0,0,1-5,4.32,17.14,17.14,0,0,1-7.4,1.53q-6.87,0-10.81-4.47T159.7,57.11V55.39a21,21,0,0,1,1.78-9,13.37,13.37,0,0,1,5.13-5.93,14.24,14.24,0,0,1,7.74-2.09q6.35,0,10.19,3.33a13.21,13.21,0,0,1,4.37,9.19h-8.36c-.07-2.11-.6-3.64-1.61-4.56A6.55,6.55,0,0,0,174.35,45a5,5,0,0,0-4.59,2.34c-1,1.57-1.48,4.06-1.53,7.49v2.46q0,5.58,1.4,8c.93,1.6,2.54,2.39,4.82,2.39a6.43,6.43,0,0,0,4.42-1.36,5.81,5.81,0,0,0,1.63-4.33Z" transform="translate(-20.5 -16)"/><path class="cls-1" d="M224.23,60.77l-3.44,3.78v9.18H212.4V38.92h8.39V54.27l2.92-4.42,7.5-10.93h10.38l-11.76,15.4,11.76,19.41h-10Z" transform="translate(-20.5 -16)"/><path class="cls-1" d="M281.26,64.48a3.43,3.43,0,0,0-1.3-2.87,16.05,16.05,0,0,0-4.58-2.13A42.57,42.57,0,0,1,270,57.35q-6.76-3.32-6.76-9.13a8.23,8.23,0,0,1,1.68-5.11,11,11,0,0,1,4.77-3.44,18.61,18.61,0,0,1,6.94-1.23,16.3,16.3,0,0,1,6.73,1.34A10.64,10.64,0,0,1,288,43.59a10,10,0,0,1,1.65,5.66h-8.37A4.2,4.2,0,0,0,280,46a5.08,5.08,0,0,0-3.53-1.17,5.75,5.75,0,0,0-3.55,1,2.92,2.92,0,0,0,.14,4.95,18.26,18.26,0,0,0,5,2.25A30.93,30.93,0,0,1,284,55.46q5.64,3.26,5.64,9a8.48,8.48,0,0,1-3.44,7.17q-3.45,2.61-9.44,2.61a18.79,18.79,0,0,1-7.67-1.52,11.54,11.54,0,0,1-5.16-4.16,10.8,10.8,0,0,1-1.74-6.08h8.42a5.31,5.31,0,0,0,1.45,4.12c1,.88,2.53,1.33,4.7,1.33a5.37,5.37,0,0,0,3.28-.9A3,3,0,0,0,281.26,64.48Z" transform="translate(-20.5 -16)"/><path class="cls-1" d="M321.93,61.92V73.73h-8.39V38.92h13.89a16.19,16.19,0,0,1,7.07,1.47,11.1,11.1,0,0,1,4.76,4.18,11.46,11.46,0,0,1,1.68,6.16,10.07,10.07,0,0,1-3.64,8.14q-3.65,3-10,3.05Zm0-6.48h5.5a5.19,5.19,0,0,0,3.72-1.22,4.53,4.53,0,0,0,1.28-3.44,5.63,5.63,0,0,0-1.31-3.9,4.66,4.66,0,0,0-3.59-1.48h-5.6Z" transform="translate(-20.5 -16)"/><path class="cls-1" d="M380.52,67.23H369l-2,6.5h-9l12.77-34.81h7.89l12.86,34.81h-9ZM371,60.75h7.48l-3.75-12.08Z" transform="translate(-20.5 -16)"/><path class="cls-1" d="M441.35,61.94a12.71,12.71,0,0,1-2,6.42,11.87,11.87,0,0,1-5,4.32,17.11,17.11,0,0,1-7.4,1.53q-6.85,0-10.8-4.47T412.2,57.11V55.39a21.18,21.18,0,0,1,1.78-9,13.49,13.49,0,0,1,5.13-5.93,14.28,14.28,0,0,1,7.75-2.09q6.33,0,10.18,3.33a13.18,13.18,0,0,1,4.38,9.19h-8.37c-.06-2.11-.6-3.64-1.6-4.56A6.58,6.58,0,0,0,426.86,45a5,5,0,0,0-4.59,2.34c-1,1.57-1.48,4.06-1.53,7.49v2.46c0,3.72.46,6.37,1.4,8s2.53,2.39,4.81,2.39a6.45,6.45,0,0,0,4.43-1.36A5.77,5.77,0,0,0,433,61.94Z" transform="translate(-20.5 -16)"/><path class="cls-1" d="M486.49,59H473.3v8.32h15.58v6.46h-24V38.92h24V45.4H473.3v7.34h13.19Z" transform="translate(-20.5 -16)"/></svg>