<svg id="Layer_1" data-name="Layer 1" xmlns="http://www.w3.org/2000/svg" xmlns:xlink="http://www.w3.org/1999/xlink" width="720" height="361" viewBox="0 0 720 361"><defs><style>.cls-1{fill:url(#linear-gradient);}.cls-2{fill:url(#linear-gradient-2);}.cls-3{fill:url(#linear-gradient-3);}.cls-4{fill:url(#linear-gradient-4);}.cls-5{fill:url(#linear-gradient-5);}.cls-6{fill:url(#linear-gradient-6);}.cls-7{fill:url(#linear-gradient-7);}.cls-8{fill:url(#linear-gradient-8);}.cls-9{fill:url(#linear-gradient-9);}.cls-10{fill:url(#linear-gradient-10);}.cls-11{fill:url(#linear-gradient-11);}.cls-12{fill:url(#linear-gradient-12);}.cls-13{fill:url(#linear-gradient-13);}.cls-14{fill:url(#linear-gradient-14);}.cls-15{fill:url(#linear-gradient-15);}.cls-16{fill:url(#linear-gradient-16);}.cls-17{fill:url(#linear-gradient-17);}.cls-18{fill:url(#linear-gradient-18);}.cls-19{fill:url(#linear-gradient-19);}.cls-20{fill:url(#linear-gradient-20);}.cls-21{fill:url(#linear-gradient-21);}.cls-22{fill:url(#linear-gradient-22);}.cls-23{fill:url(#linear-gradient-23);}.cls-24{fill:url(#linear-gradient-24);}.cls-25{fill:url(#linear-gradient-25);}.cls-26{fill:url(#linear-gradient-26);}.cls-27{fill:url(#linear-gradient-27);}.cls-28{fill:url(#linear-gradient-28);}.cls-29{fill:url(#linear-gradient-29);}.cls-30{fill:url(#linear-gradient-30);}.cls-31{fill:url(#linear-gradient-31);}.cls-32{fill:url(#linear-gradient-32);}.cls-33{fill:url(#linear-gradient-33);}.cls-34{fill:url(#linear-gradient-34);}.cls-35{fill:url(#linear-gradient-35);}.cls-36{fill:url(#linear-gradient-36);}.cls-37{fill:url(#linear-gradient-37);}.cls-38{fill:url(#linear-gradient-38);}.cls-39{fill:url(#linear-gradient-39);}.cls-40{fill:url(#linear-gradient-40);}.cls-41{fill:url(#linear-gradient-41);}.cls-42{fill:url(#linear-gradient-42);}.cls-43{fill:url(#linear-gradient-43);}.cls-44{fill:url(#linear-gradient-44);}.cls-45{fill:url(#linear-gradient-45);}.cls-46{fill:url(#linear-gradient-46);}.cls-47{fill:url(#linear-gradient-47);}.cls-48{fill:url(#linear-gradient-48);}.cls-49{fill:url(#linear-gradient-49);}.cls-50{fill:url(#linear-gradient-50);}.cls-51{fill:url(#linear-gradient-51);}.cls-52{fill:url(#linear-gradient-52);}.cls-53{fill:url(#linear-gradient-53);}.cls-54{fill:url(#linear-gradient-54);}.cls-55{fill:url(#linear-gradient-55);}.cls-56{fill:url(#linear-gradient-56);}.cls-57{fill:url(#linear-gradient-57);}.cls-58{fill:url(#linear-gradient-58);}.cls-59{fill:url(#linear-gradient-59);}.cls-60{fill:url(#linear-gradient-60);}.cls-61{fill:url(#linear-gradient-61);}.cls-62{fill:url(#linear-gradient-62);}.cls-63{fill:url(#linear-gradient-63);}.cls-64{fill:url(#linear-gradient-64);}.cls-65{fill:url(#linear-gradient-65);}.cls-66{fill:url(#linear-gradient-66);}.cls-67{fill:url(#linear-gradient-67);}.cls-68{fill:url(#linear-gradient-68);}.cls-69{fill:url(#linear-gradient-69);}.cls-70{fill:url(#linear-gradient-70);}.cls-71{fill:url(#linear-gradient-71);}.cls-72{fill:url(#linear-gradient-72);}.cls-73{fill:url(#linear-gradient-73);}.cls-74{fill:url(#linear-gradient-74);}.cls-75{fill:url(#linear-gradient-75);}.cls-76{fill:url(#linear-gradient-76);}.cls-77{fill:url(#linear-gradient-77);}.cls-78{fill:url(#linear-gradient-78);}.cls-79{fill:url(#linear-gradient-79);}.cls-80{fill:url(#linear-gradient-80);}.cls-81{fill:url(#linear-gradient-81);}.cls-82{fill:url(#linear-gradient-82);}.cls-83{fill:url(#linear-gradient-83);}.cls-84{fill:url(#linear-gradient-84);}.cls-85{fill:url(#linear-gradient-85);}.cls-86{fill:url(#linear-gradient-86);}.cls-87{fill:url(#linear-gradient-87);}.cls-88{fill:url(#linear-gradient-88);}.cls-89{fill:url(#linear-gradient-89);}.cls-90{fill:url(#linear-gradient-90);}.cls-91{fill:url(#linear-gradient-91);}.cls-92{fill:url(#linear-gradient-92);}.cls-93{fill:url(#linear-gradient-93);}.cls-94{fill:#00acc6;}.cls-95{fill:url(#linear-gradient-94);}.cls-96{fill:url(#linear-gradient-95);}.cls-97{fill:url(#linear-gradient-96);}.cls-98{fill:url(#linear-gradient-97);}</style><linearGradient id="linear-gradient" x1="108" y1="502" x2="108" y2="430" gradientTransform="matrix(1, 0, 0, -1, 0, 790)" gradientUnits="userSpaceOnUse"><stop offset="0" stop-color="#00cfe0"/><stop offset="0.62" stop-color="#009cbc"/><stop offset="1" stop-color="#0081a9"/></linearGradient><linearGradient id="linear-gradient-2" x1="108" y1="502" x2="108" y2="430" gradientTransform="matrix(1, 0, 0, -1, 0, 790)" gradientUnits="userSpaceOnUse"><stop offset="0" stop-color="#00cfe0"/><stop offset="0.18" stop-color="#00c6da"/><stop offset="0.47" stop-color="#00acc9"/><stop offset="0.85" stop-color="#0083ad"/><stop offset="1" stop-color="#0070a0"/></linearGradient><linearGradient id="linear-gradient-3" x1="105.75" y1="502" x2="105.75" y2="430" gradientTransform="matrix(1, 0, 0, -1, 0, 790)" gradientUnits="userSpaceOnUse"><stop offset="0" stop-color="#00e8f0"/><stop offset="0.17" stop-color="#00dfe9"/><stop offset="0.45" stop-color="#00c5d8"/><stop offset="0.8" stop-color="#009cbb"/><stop offset="1" stop-color="#0082a9"/></linearGradient><linearGradient id="linear-gradient-4" x1="180" x2="180" xlink:href="#linear-gradient"/><linearGradient id="linear-gradient-5" x1="180" x2="180" xlink:href="#linear-gradient-2"/><linearGradient id="linear-gradient-6" x1="177.75" x2="177.75" xlink:href="#linear-gradient-3"/><linearGradient id="linear-gradient-7" x1="252" x2="252" xlink:href="#linear-gradient"/><linearGradient id="linear-gradient-8" x1="252" x2="252" xlink:href="#linear-gradient-2"/><linearGradient id="linear-gradient-9" x1="249.75" x2="249.75" xlink:href="#linear-gradient-3"/><linearGradient id="linear-gradient-10" x1="180" y1="574" x2="180" y2="502" xlink:href="#linear-gradient"/><linearGradient id="linear-gradient-11" x1="180" y1="574" x2="180" y2="502" xlink:href="#linear-gradient-2"/><linearGradient id="linear-gradient-12" x1="177.75" y1="574" x2="177.75" y2="502" xlink:href="#linear-gradient-3"/><linearGradient id="linear-gradient-13" x1="684" y1="502" x2="684" y2="430" gradientTransform="matrix(1, 0, 0, -1, 0, 790)" gradientUnits="userSpaceOnUse"><stop offset="0" stop-color="#e85f08"/><stop offset="0.68" stop-color="#c11c02"/><stop offset="1" stop-color="#b10100"/></linearGradient><linearGradient id="linear-gradient-14" x1="684" y1="502" x2="684" y2="430" gradientTransform="matrix(1, 0, 0, -1, 0, 790)" gradientUnits="userSpaceOnUse"><stop offset="0" stop-color="#e55c07"/><stop offset="0.18" stop-color="#de5306"/><stop offset="0.48" stop-color="#cb3904"/><stop offset="0.87" stop-color="#ac1001"/><stop offset="1" stop-color="#a00000"/></linearGradient><linearGradient id="linear-gradient-15" x1="681.75" y1="502" x2="681.75" y2="430" gradientTransform="matrix(1, 0, 0, -1, 0, 790)" gradientUnits="userSpaceOnUse"><stop offset="0" stop-color="#f08000"/><stop offset="0.15" stop-color="#eb7700"/><stop offset="0.4" stop-color="#df5d00"/><stop offset="0.71" stop-color="#ca3400"/><stop offset="1" stop-color="#b40800"/></linearGradient><linearGradient id="linear-gradient-16" y1="574" y2="502" xlink:href="#linear-gradient-13"/><linearGradient id="linear-gradient-17" y1="574" y2="502" xlink:href="#linear-gradient-14"/><linearGradient id="linear-gradient-18" y1="574" y2="502" xlink:href="#linear-gradient-15"/><linearGradient id="linear-gradient-19" y1="646" y2="574" xlink:href="#linear-gradient-13"/><linearGradient id="linear-gradient-20" y1="646" y2="574" xlink:href="#linear-gradient-14"/><linearGradient id="linear-gradient-21" y1="646" y2="574" xlink:href="#linear-gradient-15"/><linearGradient id="linear-gradient-22" y1="718" y2="646" xlink:href="#linear-gradient-13"/><linearGradient id="linear-gradient-23" y1="718" y2="646" xlink:href="#linear-gradient-14"/><linearGradient id="linear-gradient-24" y1="718" y2="646" xlink:href="#linear-gradient-15"/><linearGradient id="linear-gradient-25" x1="36" y1="646" x2="36" y2="574" xlink:href="#linear-gradient-13"/><linearGradient id="linear-gradient-26" x1="36" y1="646" x2="36" y2="574" xlink:href="#linear-gradient-14"/><linearGradient id="linear-gradient-27" x1="33.75" y1="646" x2="33.75" y2="574" xlink:href="#linear-gradient-15"/><linearGradient id="linear-gradient-28" x1="36" y1="718" x2="36" y2="646" xlink:href="#linear-gradient-13"/><linearGradient id="linear-gradient-29" x1="36" y1="718" x2="36" y2="646" xlink:href="#linear-gradient-14"/><linearGradient id="linear-gradient-30" x1="33.75" y1="718" x2="33.75" y2="646" xlink:href="#linear-gradient-15"/><linearGradient id="linear-gradient-31" x1="36" y1="790" x2="36" y2="718" xlink:href="#linear-gradient-13"/><linearGradient id="linear-gradient-32" x1="36" y1="790" x2="36" y2="718" xlink:href="#linear-gradient-14"/><linearGradient id="linear-gradient-33" x1="33.75" y1="790" x2="33.75" y2="718" xlink:href="#linear-gradient-15"/><linearGradient id="linear-gradient-34" x1="612" y1="502" x2="612" y2="430" gradientTransform="matrix(1, 0, 0, -1, 0, 790)" gradientUnits="userSpaceOnUse"><stop offset="0" stop-color="#d7c700"/><stop offset="0.62" stop-color="#a99400"/><stop offset="1" stop-color="#917900"/></linearGradient><linearGradient id="linear-gradient-35" x1="612" y1="502" x2="612" y2="430" gradientTransform="matrix(1, 0, 0, -1, 0, 790)" gradientUnits="userSpaceOnUse"><stop offset="0" stop-color="#d7c700"/><stop offset="0.18" stop-color="#cfbe00"/><stop offset="0.47" stop-color="#baa400"/><stop offset="0.85" stop-color="#987b00"/><stop offset="1" stop-color="#886800"/></linearGradient><linearGradient id="linear-gradient-36" x1="609.75" y1="502" x2="609.75" y2="430" gradientTransform="matrix(1, 0, 0, -1, 0, 790)" gradientUnits="userSpaceOnUse"><stop offset="0" stop-color="#e8e000"/><stop offset="0.17" stop-color="#e0d700"/><stop offset="0.44" stop-color="#cbbd00"/><stop offset="0.8" stop-color="#a89400"/><stop offset="1" stop-color="#917900"/></linearGradient><linearGradient id="linear-gradient-37" y1="574" y2="502" xlink:href="#linear-gradient-34"/><linearGradient id="linear-gradient-38" y1="574" y2="502" xlink:href="#linear-gradient-35"/><linearGradient id="linear-gradient-39" y1="574" y2="502" xlink:href="#linear-gradient-36"/><linearGradient id="linear-gradient-40" x1="540" y1="574" x2="540" y2="502" xlink:href="#linear-gradient-34"/><linearGradient id="linear-gradient-41" x1="540" y1="574" x2="540" y2="502" xlink:href="#linear-gradient-35"/><linearGradient id="linear-gradient-42" x1="537.75" y1="574" x2="537.75" y2="502" xlink:href="#linear-gradient-36"/><linearGradient id="linear-gradient-43" x1="540" x2="540" xlink:href="#linear-gradient-34"/><linearGradient id="linear-gradient-44" x1="540" x2="540" xlink:href="#linear-gradient-35"/><linearGradient id="linear-gradient-45" x1="537.75" x2="537.75" xlink:href="#linear-gradient-36"/><linearGradient id="linear-gradient-46" x1="468" y1="502" x2="468" y2="430" gradientTransform="matrix(1, 0, 0, -1, 0, 790)" gradientUnits="userSpaceOnUse"><stop offset="0" stop-color="#e79700"/><stop offset="0.53" stop-color="#d57400"/><stop offset="1" stop-color="#c85900"/></linearGradient><linearGradient id="linear-gradient-47" x1="468" y1="502" x2="468" y2="430" gradientTransform="matrix(1, 0, 0, -1, 0, 790)" gradientUnits="userSpaceOnUse"><stop offset="0" stop-color="#e89700"/><stop offset="0.19" stop-color="#e38e00"/><stop offset="0.5" stop-color="#d57400"/><stop offset="0.9" stop-color="#be4b00"/><stop offset="1" stop-color="#b84000"/></linearGradient><linearGradient id="linear-gradient-48" x1="465.75" y1="502" x2="465.75" y2="430" gradientTransform="matrix(1, 0, 0, -1, 0, 790)" gradientUnits="userSpaceOnUse"><stop offset="0" stop-color="#f8a800"/><stop offset="0.2" stop-color="#f29f00"/><stop offset="0.54" stop-color="#e38500"/><stop offset="0.97" stop-color="#ca5c00"/><stop offset="1" stop-color="#c85900"/></linearGradient><linearGradient id="linear-gradient-49" y1="574" y2="502" xlink:href="#linear-gradient-46"/><linearGradient id="linear-gradient-50" y1="574" y2="502" xlink:href="#linear-gradient-47"/><linearGradient id="linear-gradient-51" y1="574" y2="502" xlink:href="#linear-gradient-48"/><linearGradient id="linear-gradient-52" x1="324" y1="501" x2="324" y2="429" xlink:href="#linear-gradient-46"/><linearGradient id="linear-gradient-53" x1="324" y1="501" x2="324" y2="429" xlink:href="#linear-gradient-47"/><linearGradient id="linear-gradient-54" x1="321.75" y1="501" x2="321.75" y2="429" xlink:href="#linear-gradient-48"/><linearGradient id="linear-gradient-55" x1="397" y1="501" x2="397" y2="429" xlink:href="#linear-gradient-46"/><linearGradient id="linear-gradient-56" x1="397" y1="501" x2="397" y2="429" xlink:href="#linear-gradient-47"/><linearGradient id="linear-gradient-57" x1="394.75" y1="501" x2="394.75" y2="429" xlink:href="#linear-gradient-48"/><linearGradient id="linear-gradient-58" x1="396" y1="574" x2="396" y2="502" gradientTransform="matrix(1, 0, 0, -1, 0, 790)" gradientUnits="userSpaceOnUse"><stop offset="0" stop-color="#008ee7"/><stop offset="0.11" stop-color="#0081e3"/><stop offset="0.72" stop-color="#003dca"/><stop offset="1" stop-color="#0022c1"/></linearGradient><linearGradient id="linear-gradient-59" x1="396" y1="574" x2="396" y2="502" gradientTransform="matrix(1, 0, 0, -1, 0, 790)" gradientUnits="userSpaceOnUse"><stop offset="0" stop-color="#008fe8"/><stop offset="0.13" stop-color="#0086e4"/><stop offset="0.35" stop-color="#006cda"/><stop offset="0.63" stop-color="#0043ca"/><stop offset="0.95" stop-color="#000ab4"/><stop offset="1" stop-color="#0000b0"/></linearGradient><linearGradient id="linear-gradient-60" x1="393.75" y1="574" x2="393.75" y2="502" gradientTransform="matrix(1, 0, 0, -1, 0, 790)" gradientUnits="userSpaceOnUse"><stop offset="0" stop-color="#00a8f8"/><stop offset="0.14" stop-color="#009ff4"/><stop offset="0.37" stop-color="#0085e9"/><stop offset="0.66" stop-color="#005cd8"/><stop offset="1" stop-color="#0024c1"/></linearGradient><linearGradient id="linear-gradient-61" x1="324" x2="324" xlink:href="#linear-gradient-58"/><linearGradient id="linear-gradient-62" x1="324" x2="324" xlink:href="#linear-gradient-59"/><linearGradient id="linear-gradient-63" x1="321.75" x2="321.75" xlink:href="#linear-gradient-60"/><linearGradient id="linear-gradient-64" x1="252" x2="252" xlink:href="#linear-gradient-58"/><linearGradient id="linear-gradient-65" x1="252" x2="252" xlink:href="#linear-gradient-59"/><linearGradient id="linear-gradient-66" x1="249.75" x2="249.75" xlink:href="#linear-gradient-60"/><linearGradient id="linear-gradient-67" x1="252" y1="646" x2="252" y2="574" xlink:href="#linear-gradient-58"/><linearGradient id="linear-gradient-68" x1="252" y1="646" x2="252" y2="574" xlink:href="#linear-gradient-59"/><linearGradient id="linear-gradient-69" x1="249.75" y1="646" x2="249.75" y2="574" xlink:href="#linear-gradient-60"/><linearGradient id="linear-gradient-70" x1="108" y1="718" x2="108" y2="646" gradientTransform="matrix(1, 0, 0, -1, 0, 790)" gradientUnits="userSpaceOnUse"><stop offset="0" stop-color="#df1fdf"/><stop offset="0.65" stop-color="#a50aa5"/><stop offset="1" stop-color="#8a018a"/></linearGradient><linearGradient id="linear-gradient-71" x1="108" y1="718" x2="108" y2="646" gradientTransform="matrix(1, 0, 0, -1, 0, 790)" gradientUnits="userSpaceOnUse"><stop offset="0" stop-color="#df1fdf"/><stop offset="0.17" stop-color="#d61cd6"/><stop offset="0.44" stop-color="#bc15bc"/><stop offset="0.8" stop-color="#930893"/><stop offset="1" stop-color="#780078"/></linearGradient><linearGradient id="linear-gradient-72" x1="105.75" y1="718" x2="105.75" y2="646" gradientTransform="matrix(1, 0, 0, -1, 0, 790)" gradientUnits="userSpaceOnUse"><stop offset="0" stop-color="#f828f8"/><stop offset="0.16" stop-color="#ef25ef"/><stop offset="0.42" stop-color="#d51bd5"/><stop offset="0.75" stop-color="#ac0dac"/><stop offset="1" stop-color="#890089"/></linearGradient><linearGradient id="linear-gradient-73" x1="180" x2="180" xlink:href="#linear-gradient-70"/><linearGradient id="linear-gradient-74" x1="180" x2="180" xlink:href="#linear-gradient-71"/><linearGradient id="linear-gradient-75" x1="177.75" x2="177.75" xlink:href="#linear-gradient-72"/><linearGradient id="linear-gradient-76" x1="108" y1="790" x2="108" y2="718" xlink:href="#linear-gradient-70"/><linearGradient id="linear-gradient-77" x1="108" y1="790" x2="108" y2="718" xlink:href="#linear-gradient-71"/><linearGradient id="linear-gradient-78" x1="105.75" y1="790" x2="105.75" y2="718" xlink:href="#linear-gradient-72"/><linearGradient id="linear-gradient-79" x1="180" y1="646" x2="180" y2="574" xlink:href="#linear-gradient-70"/><linearGradient id="linear-gradient-80" x1="180" y1="646" x2="180" y2="574" xlink:href="#linear-gradient-71"/><linearGradient id="linear-gradient-81" x1="177.75" y1="646" x2="177.75" y2="574" xlink:href="#linear-gradient-72"/><linearGradient id="linear-gradient-82" x1="108" y1="646" x2="108" y2="574" gradientTransform="matrix(1, 0, 0, -1, 0, 790)" gradientUnits="userSpaceOnUse"><stop offset="0" stop-color="#57df00"/><stop offset="0.65" stop-color="#1da500"/><stop offset="1" stop-color="#028a00"/></linearGradient><linearGradient id="linear-gradient-83" x1="108" y1="646" x2="108" y2="574" gradientTransform="matrix(1, 0, 0, -1, 0, 790)" gradientUnits="userSpaceOnUse"><stop offset="0" stop-color="#57df00"/><stop offset="0.17" stop-color="#4fd600"/><stop offset="0.44" stop-color="#3abc00"/><stop offset="0.8" stop-color="#179300"/><stop offset="1" stop-color="#007800"/></linearGradient><linearGradient id="linear-gradient-84" x1="105.75" y1="646" x2="105.75" y2="574" gradientTransform="matrix(1, 0, 0, -1, 0, 790)" gradientUnits="userSpaceOnUse"><stop offset="0" stop-color="#78f800"/><stop offset="0.15" stop-color="#6fef00"/><stop offset="0.4" stop-color="#55d800"/><stop offset="0.72" stop-color="#2cb100"/><stop offset="1" stop-color="#028a00"/></linearGradient><linearGradient id="linear-gradient-85" x1="108" y1="574" x2="108" y2="502" xlink:href="#linear-gradient-82"/><linearGradient id="linear-gradient-86" x1="108" y1="574" x2="108" y2="502" xlink:href="#linear-gradient-83"/><linearGradient id="linear-gradient-87" x1="105.75" y1="574" x2="105.75" y2="502" xlink:href="#linear-gradient-84"/><linearGradient id="linear-gradient-88" x1="36" y1="574" x2="36" y2="502" xlink:href="#linear-gradient-82"/><linearGradient id="linear-gradient-89" x1="36" y1="574" x2="36" y2="502" xlink:href="#linear-gradient-83"/><linearGradient id="linear-gradient-90" x1="33.75" y1="574" x2="33.75" y2="502" xlink:href="#linear-gradient-84"/><linearGradient id="linear-gradient-91" x1="36" y1="502" x2="36" y2="430" xlink:href="#linear-gradient-82"/><linearGradient id="linear-gradient-92" x1="36" y1="502" x2="36" y2="430" xlink:href="#linear-gradient-83"/><linearGradient id="linear-gradient-93" x1="33.75" y1="502" x2="33.75" y2="430" xlink:href="#linear-gradient-84"/><linearGradient id="linear-gradient-94" x1="323.94" y1="582.72" x2="323.94" y2="636.51" gradientTransform="matrix(1, 0, 0, -1, 0, 790)" gradientUnits="userSpaceOnUse"><stop offset="0" stop-color="#00acc6"/><stop offset="0.48" stop-color="#00acc6" stop-opacity="0.48"/><stop offset="0.84" stop-color="#00acc6" stop-opacity="0.14"/><stop offset="1" stop-color="#00acc6" stop-opacity="0"/></linearGradient><linearGradient id="linear-gradient-95" x1="395.94" y1="582.72" x2="395.94" y2="636.51" xlink:href="#linear-gradient-94"/><linearGradient id="linear-gradient-96" x1="467.94" y1="582.72" x2="467.94" y2="636.51" xlink:href="#linear-gradient-94"/><linearGradient id="linear-gradient-97" x1="395.94" y1="654.72" x2="395.94" y2="708.51" xlink:href="#linear-gradient-94"/></defs><title>arcade</title><rect class="cls-1" x="72" y="288" width="72" height="72"/><polygon class="cls-2" points="139.5 288 139.5 355.5 72 355.5 72 360 144 360 144 355.5 144 288 139.5 288"/><polygon class="cls-3" points="76.5 288 72 288 72 355.5 72 360 76.5 360 76.5 355.5 76.5 292.5 139.5 292.5 139.5 288 76.5 288"/><rect class="cls-4" x="144" y="288" width="72" height="72"/><polygon class="cls-5" points="211.5 288 211.5 355.5 144 355.5 144 360 216 360 216 355.5 216 288 211.5 288"/><polygon class="cls-6" points="148.5 288 144 288 144 355.5 144 360 148.5 360 148.5 355.5 148.5 292.5 211.5 292.5 211.5 288 148.5 288"/><rect class="cls-7" x="216" y="288" width="72" height="72"/><polygon class="cls-8" points="283.5 288 283.5 355.5 216 355.5 216 360 288 360 288 355.5 288 288 283.5 288"/><polygon class="cls-9" points="220.5 288 216 288 216 355.5 216 360 220.5 360 220.5 355.5 220.5 292.5 283.5 292.5 283.5 288 220.5 288"/><rect class="cls-10" x="144" y="216" width="72" height="72"/><polygon class="cls-11" points="211.5 216 211.5 283.5 144 283.5 144 288 216 288 216 283.5 216 216 211.5 216"/><polygon class="cls-12" points="148.5 216 144 216 144 283.5 144 288 148.5 288 148.5 283.5 148.5 220.5 211.5 220.5 211.5 216 148.5 216"/><rect class="cls-13" x="648" y="288" width="72" height="72"/><polygon class="cls-14" points="715.5 288 715.5 355.5 648 355.5 648 360 720 360 720 355.5 720 288 715.5 288"/><polygon class="cls-15" points="652.5 288 648 288 648 355.5 648 360 652.5 360 652.5 355.5 652.5 292.5 715.5 292.5 715.5 288 652.5 288"/><rect class="cls-16" x="648" y="216" width="72" height="72"/><polygon class="cls-17" points="715.5 216 715.5 283.5 648 283.5 648 288 720 288 720 283.5 720 216 715.5 216"/><polygon class="cls-18" points="652.5 216 648 216 648 283.5 648 288 652.5 288 652.5 283.5 652.5 220.5 715.5 220.5 715.5 216 652.5 216"/><rect class="cls-19" x="648" y="144" width="72" height="72"/><polygon class="cls-20" points="715.5 144 715.5 211.5 648 211.5 648 216 720 216 720 211.5 720 144 715.5 144"/><polygon class="cls-21" points="652.5 144 648 144 648 211.5 648 216 652.5 216 652.5 211.5 652.5 148.5 715.5 148.5 715.5 144 652.5 144"/><rect class="cls-22" x="648" y="72" width="72" height="72"/><polygon class="cls-23" points="715.5 72 715.5 139.5 648 139.5 648 144 720 144 720 139.5 720 72 715.5 72"/><polygon class="cls-24" points="652.5 72 648 72 648 139.5 648 144 652.5 144 652.5 139.5 652.5 76.5 715.5 76.5 715.5 72 652.5 72"/><rect class="cls-25" y="144" width="72" height="72"/><polygon class="cls-26" points="67.5 144 67.5 211.5 0 211.5 0 216 72 216 72 211.5 72 144 67.5 144"/><polygon class="cls-27" points="4.5 144 0 144 0 211.5 0 216 4.5 216 4.5 211.5 4.5 148.5 67.5 148.5 67.5 144 4.5 144"/><rect class="cls-28" y="72" width="72" height="72"/><polygon class="cls-29" points="67.5 72 67.5 139.5 0 139.5 0 144 72 144 72 139.5 72 72 67.5 72"/><polygon class="cls-30" points="4.5 72 0 72 0 139.5 0 144 4.5 144 4.5 139.5 4.5 76.5 67.5 76.5 67.5 72 4.5 72"/><rect class="cls-31" width="72" height="72"/><polygon class="cls-32" points="67.5 0 67.5 67.5 0 67.5 0 72 72 72 72 67.5 72 0 67.5 0"/><polygon class="cls-33" points="4.5 0 0 0 0 67.5 0 72 4.5 72 4.5 67.5 4.5 4.5 67.5 4.5 67.5 0 4.5 0"/><rect class="cls-34" x="576" y="288" width="72" height="72"/><polygon class="cls-35" points="643.5 288 643.5 355.5 576 355.5 576 360 648 360 648 355.5 648 288 643.5 288"/><polygon class="cls-36" points="580.5 288 576 288 576 355.5 576 360 580.5 360 580.5 355.5 580.5 292.5 643.5 292.5 643.5 288 580.5 288"/><rect class="cls-37" x="576" y="216" width="72" height="72"/><polygon class="cls-38" points="643.5 216 643.5 283.5 576 283.5 576 288 648 288 648 283.5 648 216 643.5 216"/><polygon class="cls-39" points="580.5 216 576 216 576 283.5 576 288 580.5 288 580.5 283.5 580.5 220.5 643.5 220.5 643.5 216 580.5 216"/><rect class="cls-40" x="504" y="216" width="72" height="72"/><polygon class="cls-41" points="571.5 216 571.5 283.5 504 283.5 504 288 576 288 576 283.5 576 216 571.5 216"/><polygon class="cls-42" points="508.5 216 504 216 504 283.5 504 288 508.5 288 508.5 283.5 508.5 220.5 571.5 220.5 571.5 216 508.5 216"/><rect class="cls-43" x="504" y="288" width="72" height="72"/><polygon class="cls-44" points="571.5 288 571.5 355.5 504 355.5 504 360 576 360 576 355.5 576 288 571.5 288"/><polygon class="cls-45" points="508.5 288 504 288 504 355.5 504 360 508.5 360 508.5 355.5 508.5 292.5 571.5 292.5 571.5 288 508.5 288"/><rect class="cls-46" x="432" y="288" width="72" height="72"/><polygon class="cls-47" points="499.5 288 499.5 355.5 432 355.5 432 360 504 360 504 355.5 504 288 499.5 288"/><polygon class="cls-48" points="436.5 288 432 288 432 355.5 432 360 436.5 360 436.5 355.5 436.5 292.5 499.5 292.5 499.5 288 436.5 288"/><rect class="cls-49" x="432" y="216" width="72" height="72"/><polygon class="cls-50" points="499.5 216 499.5 283.5 432 283.5 432 288 504 288 504 283.5 504 216 499.5 216"/><polygon class="cls-51" points="436.5 216 432 216 432 283.5 432 288 436.5 288 436.5 283.5 436.5 220.5 499.5 220.5 499.5 216 436.5 216"/><rect class="cls-52" x="288" y="289" width="72" height="72"/><polygon class="cls-53" points="355.5 289 355.5 356.5 288 356.5 288 361 360 361 360 356.5 360 289 355.5 289"/><polygon class="cls-54" points="292.5 289 288 289 288 356.5 288 361 292.5 361 292.5 356.5 292.5 293.5 355.5 293.5 355.5 289 292.5 289"/><rect class="cls-55" x="361" y="289" width="72" height="72"/><polygon class="cls-56" points="428.5 289 428.5 356.5 361 356.5 361 361 433 361 433 356.5 433 289 428.5 289"/><polygon class="cls-57" points="365.5 289 361 289 361 356.5 361 361 365.5 361 365.5 356.5 365.5 293.5 428.5 293.5 428.5 289 365.5 289"/><rect class="cls-58" x="360" y="216" width="72" height="72"/><polygon class="cls-59" points="427.5 216 427.5 283.5 360 283.5 360 288 432 288 432 283.5 432 216 427.5 216"/><polygon class="cls-60" points="364.5 216 360 216 360 283.5 360 288 364.5 288 364.5 283.5 364.5 220.5 427.5 220.5 427.5 216 364.5 216"/><rect class="cls-61" x="288" y="216" width="72" height="72"/><polygon class="cls-62" points="355.5 216 355.5 283.5 288 283.5 288 288 360 288 360 283.5 360 216 355.5 216"/><polygon class="cls-63" points="292.5 216 288 216 288 283.5 288 288 292.5 288 292.5 283.5 292.5 220.5 355.5 220.5 355.5 216 292.5 216"/><rect class="cls-64" x="216" y="216" width="72" height="72"/><polygon class="cls-65" points="283.5 216 283.5 283.5 216 283.5 216 288 288 288 288 283.5 288 216 283.5 216"/><polygon class="cls-66" points="220.5 216 216 216 216 283.5 216 288 220.5 288 220.5 283.5 220.5 220.5 283.5 220.5 283.5 216 220.5 216"/><rect class="cls-67" x="216" y="144" width="72" height="72"/><polygon class="cls-68" points="283.5 144 283.5 211.5 216 211.5 216 216 288 216 288 211.5 288 144 283.5 144"/><polygon class="cls-69" points="220.5 144 216 144 216 211.5 216 216 220.5 216 220.5 211.5 220.5 148.5 283.5 148.5 283.5 144 220.5 144"/><rect class="cls-70" x="72" y="72" width="72" height="72"/><polygon class="cls-71" points="139.5 72 139.5 139.5 72 139.5 72 144 144 144 144 139.5 144 72 139.5 72"/><polygon class="cls-72" points="76.5 72 72 72 72 139.5 72 144 76.5 144 76.5 139.5 76.5 76.5 139.5 76.5 139.5 72 76.5 72"/><rect class="cls-73" x="144" y="72" width="72" height="72"/><polygon class="cls-74" points="211.5 72 211.5 139.5 144 139.5 144 144 216 144 216 139.5 216 72 211.5 72"/><polygon class="cls-75" points="148.5 72 144 72 144 139.5 144 144 148.5 144 148.5 139.5 148.5 76.5 211.5 76.5 211.5 72 148.5 72"/><rect class="cls-76" x="72" width="72" height="72"/><polygon class="cls-77" points="139.5 0 139.5 67.5 72 67.5 72 72 144 72 144 67.5 144 0 139.5 0"/><polygon class="cls-78" points="76.5 0 72 0 72 67.5 72 72 76.5 72 76.5 67.5 76.5 4.5 139.5 4.5 139.5 0 76.5 0"/><rect class="cls-79" x="144" y="144" width="72" height="72"/><polygon class="cls-80" points="211.5 144 211.5 211.5 144 211.5 144 216 216 216 216 211.5 216 144 211.5 144"/><polygon class="cls-81" points="148.5 144 144 144 144 211.5 144 216 148.5 216 148.5 211.5 148.5 148.5 211.5 148.5 211.5 144 148.5 144"/><rect class="cls-82" x="72" y="144" width="72" height="72"/><polygon class="cls-83" points="139.5 144 139.5 211.5 72 211.5 72 216 144 216 144 211.5 144 144 139.5 144"/><polygon class="cls-84" points="76.5 144 72 144 72 211.5 72 216 76.5 216 76.5 211.5 76.5 148.5 139.5 148.5 139.5 144 76.5 144"/><rect class="cls-85" x="72" y="216" width="72" height="72"/><polygon class="cls-86" points="139.5 216 139.5 283.5 72 283.5 72 288 144 288 144 283.5 144 216 139.5 216"/><polygon class="cls-87" points="76.5 216 72 216 72 283.5 72 288 76.5 288 76.5 283.5 76.5 220.5 139.5 220.5 139.5 216 76.5 216"/><rect class="cls-88" y="216" width="72" height="72"/><polygon class="cls-89" points="67.5 216 67.5 283.5 0 283.5 0 288 72 288 72 283.5 72 216 67.5 216"/><polygon class="cls-90" points="4.5 216 0 216 0 283.5 0 288 4.5 288 4.5 283.5 4.5 220.5 67.5 220.5 67.5 216 4.5 216"/><rect class="cls-91" y="288" width="72" height="72"/><polygon class="cls-92" points="67.5 288 67.5 355.5 0 355.5 0 360 72 360 72 355.5 72 288 67.5 288"/><polygon class="cls-93" points="4.5 288 0 288 0 355.5 0 360 4.5 360 4.5 355.5 4.5 292.5 67.5 292.5 67.5 288 4.5 288"/><path class="cls-94" d="M351,149h-58.6v62.76h63.11V149Zm0,58.27H296.89V153.49H351Z" transform="translate(0 0)"/><rect class="cls-95" x="296.89" y="153.49" width="54.1" height="53.79"/><path class="cls-94" d="M423,149h-58.6v62.76h63.11V149Zm0,58.27H368.89V153.49H423Z" transform="translate(0 0)"/><rect class="cls-96" x="368.89" y="153.49" width="54.1" height="53.79"/><path class="cls-94" d="M495,149h-58.6v62.76h63.11V149Zm0,58.27H440.89V153.49H495Z" transform="translate(0 0)"/><rect class="cls-97" x="440.89" y="153.49" width="54.1" height="53.79"/><path class="cls-94" d="M423,77h-58.6v62.76h63.11V77Zm0,58.27H368.89V81.49H423Z" transform="translate(0 0)"/><rect class="cls-98" x="368.89" y="81.49" width="54.1" height="53.79"/></svg>