<svg id="Layer_1" data-name="Layer 1" xmlns="http://www.w3.org/2000/svg" width="721" height="360" viewBox="0 0 721 360"><defs><style>.cls-1{fill:#4242ff;}.cls-2{fill:#fff;}.cls-3{fill:#63adff;}</style></defs><title>retro</title><polygon points="648 297 639 288 576 288 576 350.12 585 360 648 360 648 297"/><rect class="cls-1" x="576" y="288" width="63" height="63"/><rect class="cls-2" x="576" y="288" width="9" height="9"/><rect class="cls-2" x="585" y="297" width="45" height="45"/><polygon points="576 297 567 288 504 288 504 350.12 513 360 576 360 576 297"/><rect class="cls-1" x="504" y="288" width="63" height="63"/><rect class="cls-2" x="504" y="288" width="9" height="9"/><rect class="cls-2" x="513" y="297" width="45" height="45"/><polygon points="576 225 567 216 504 216 504 278.12 513 288 576 288 576 225"/><rect class="cls-1" x="504" y="216" width="63" height="63"/><rect class="cls-2" x="504" y="216" width="9" height="9"/><rect class="cls-2" x="513" y="225" width="45" height="45"/><polygon points="72 297 63 288 0 288 0 350.12 9 360 72 360 72 297"/><rect class="cls-1" y="288" width="63" height="63"/><rect class="cls-2" y="288" width="9" height="9"/><rect class="cls-2" x="9" y="297" width="45" height="45"/><polygon points="72 225 63 216 0 216 0 278.12 9 288 72 288 72 225"/><rect class="cls-1" y="216" width="63" height="63"/><rect class="cls-2" y="216" width="9" height="9"/><rect class="cls-2" x="9" y="225" width="45" height="45"/><polygon points="72 153 63 144 0 144 0 206.12 9 216 72 216 72 153"/><rect class="cls-1" y="144" width="63" height="63"/><rect class="cls-2" y="144" width="9" height="9"/><rect class="cls-2" x="9" y="153" width="45" height="45"/><polygon points="72 81 63 72 0 72 0 134.12 9 144 72 144 72 81"/><rect class="cls-1" y="72" width="63" height="63"/><rect class="cls-2" y="72" width="9" height="9"/><rect class="cls-2" x="9" y="81" width="45" height="45"/><polygon points="144 153 135 144 72 144 72 206.12 81 216 144 216 144 153"/><rect class="cls-1" x="72" y="144" width="63" height="63"/><rect class="cls-2" x="72" y="144" width="9" height="9"/><rect class="cls-2" x="81" y="153" width="45" height="45"/><polygon points="216 153 207 144 144 144 144 206.12 153 216 216 216 216 153"/><rect class="cls-1" x="144" y="144" width="63" height="63"/><rect class="cls-2" x="144" y="144" width="9" height="9"/><rect class="cls-2" x="153" y="153" width="45" height="45"/><polygon points="216 225 207 216 144 216 144 278.12 153 288 216 288 216 225"/><rect class="cls-1" x="144" y="216" width="63" height="63"/><rect class="cls-2" x="144" y="216" width="9" height="9"/><rect class="cls-2" x="153" y="225" width="45" height="45"/><polygon points="144 225 135 216 72 216 72 278.12 81 288 144 288 144 225"/><rect class="cls-1" x="72" y="216" width="63" height="63"/><rect class="cls-2" x="72" y="216" width="9" height="9"/><rect class="cls-2" x="81" y="225" width="45" height="45"/><polygon points="504 297 495 288 432 288 432 350.12 441 360 504 360 504 297"/><rect class="cls-1" x="432" y="288" width="63" height="63"/><rect class="cls-2" x="432" y="288" width="9" height="9"/><rect class="cls-2" x="441" y="297" width="45" height="45"/><polygon points="360 297 351 288 288 288 288 350.12 297 360 360 360 360 297"/><rect class="cls-1" x="288" y="288" width="63" height="63"/><rect class="cls-2" x="288" y="288" width="9" height="9"/><polygon class="cls-2" points="297 297 297 306 297 315 306 315 306 306 315 306 315 297 297 297"/><polygon points="360 225 351 216 288 216 288 278.12 297 288 360 288 360 225"/><rect class="cls-1" x="288" y="216" width="63" height="63"/><rect class="cls-2" x="288" y="216" width="9" height="9"/><polygon class="cls-2" points="297 225 297 234 297 243 306 243 306 234 315 234 315 225 297 225"/><polygon points="360 153 351 144 288 144 288 206.12 297 216 360 216 360 153"/><rect class="cls-1" x="288" y="144" width="63" height="63"/><rect class="cls-2" x="288" y="144" width="9" height="9"/><polygon class="cls-2" points="297 153 297 162 297 171 306 171 306 162 315 162 315 153 297 153"/><polygon points="720 297 711 288 648 288 648 350.12 657 360 720 360 720 297"/><rect class="cls-1" x="648" y="288" width="63" height="63"/><rect class="cls-2" x="648" y="288" width="9" height="9"/><polygon class="cls-2" points="657 297 657 306 657 315 666 315 666 306 675 306 675 297 657 297"/><polygon points="648 226 639 217 576 217 576 279.12 585 289 648 289 648 226"/><rect class="cls-1" x="576" y="217" width="63" height="63"/><rect class="cls-2" x="576" y="217" width="9" height="9"/><polygon class="cls-2" points="585 226 585 235 585 244 594 244 594 235 603 235 603 226 585 226"/><polygon points="721 226 712 217 649 217 649 279.12 658 289 721 289 721 226"/><rect class="cls-1" x="649" y="217" width="63" height="63"/><rect class="cls-2" x="649" y="217" width="9" height="9"/><polygon class="cls-2" points="658 226 658 235 658 244 667 244 667 235 676 235 676 226 658 226"/><polygon points="649 154 640 145 577 145 577 207.12 586 217 649 217 649 154"/><rect class="cls-1" x="577" y="145" width="63" height="63"/><rect class="cls-2" x="577" y="145" width="9" height="9"/><polygon class="cls-2" points="586 154 586 163 586 172 595 172 595 163 604 163 604 154 586 154"/><polygon points="432 153 423 144 360 144 360 206.12 369 216 432 216 432 153"/><rect class="cls-1" x="360" y="144" width="63" height="63"/><rect class="cls-2" x="360" y="144" width="9" height="9"/><polygon class="cls-2" points="369 153 369 162 369 171 378 171 378 162 387 162 387 153 369 153"/><polygon points="432 81 423 72 360 72 360 134.12 369 144 432 144 432 81"/><rect class="cls-1" x="360" y="72" width="63" height="63"/><rect class="cls-2" x="360" y="72" width="9" height="9"/><polygon class="cls-2" points="369 81 369 90 369 99 378 99 378 90 387 90 387 81 369 81"/><polygon points="505 81 496 72 433 72 433 134.12 442 144 505 144 505 81"/><rect class="cls-1" x="433" y="72" width="63" height="63"/><rect class="cls-2" x="433" y="72" width="9" height="9"/><polygon class="cls-2" points="442 81 442 90 442 99 451 99 451 90 460 90 460 81 442 81"/><polygon points="577 81 568 72 505 72 505 134.12 514 144 577 144 577 81"/><rect class="cls-1" x="505" y="72" width="63" height="63"/><rect class="cls-2" x="505" y="72" width="9" height="9"/><polygon class="cls-2" points="514 81 514 90 514 99 523 99 523 90 532 90 532 81 514 81"/><polygon points="577 154 568 145 505 145 505 207.12 514 217 577 217 577 154"/><rect class="cls-1" x="505" y="145" width="63" height="63"/><rect class="cls-2" x="505" y="145" width="9" height="9"/><polygon class="cls-2" points="514 154 514 163 514 172 523 172 523 163 532 163 532 154 514 154"/><polygon points="432 297 423 288 360 288 360 350.12 369 360 432 360 432 297"/><rect class="cls-3" x="360" y="288" width="63" height="63"/><rect class="cls-2" x="360" y="288" width="9" height="9"/><polygon class="cls-2" points="369 297 369 306 369 315 378 315 378 306 387 306 387 297 369 297"/><polygon points="432 225 423 216 360 216 360 278.12 369 288 432 288 432 225"/><rect class="cls-3" x="360" y="216" width="63" height="63"/><rect class="cls-2" x="360" y="216" width="9" height="9"/><polygon class="cls-2" points="369 225 369 234 369 243 378 243 378 234 387 234 387 225 369 225"/><polygon points="504 225 495 216 432 216 432 278.12 441 288 504 288 504 225"/><rect class="cls-3" x="432" y="216" width="63" height="63"/><rect class="cls-2" x="432" y="216" width="9" height="9"/><polygon class="cls-2" points="441 225 441 234 441 243 450 243 450 234 459 234 459 225 441 225"/><polygon points="504 153 495 144 432 144 432 206.12 441 216 504 216 504 153"/><rect class="cls-3" x="432" y="144" width="63" height="63"/><rect class="cls-2" x="432" y="144" width="9" height="9"/><polygon class="cls-2" points="441 153 441 162 441 171 450 171 450 162 459 162 459 153 441 153"/><polygon points="72 9 63 0 0 0 0 62.12 9 72 72 72 72 9"/><rect class="cls-3" width="63" height="63"/><rect class="cls-2" width="9" height="9"/><polygon class="cls-2" points="9 9 9 18 9 27 18 27 18 18 27 18 27 9 9 9"/><polygon points="144 9 135 0 72 0 72 62.12 81 72 144 72 144 9"/><rect class="cls-3" x="72" width="63" height="63"/><rect class="cls-2" x="72" width="9" height="9"/><polygon class="cls-2" points="81 9 81 18 81 27 90 27 90 18 99 18 99 9 81 9"/><polygon points="144 81 135 72 72 72 72 134.12 81 144 144 144 144 81"/><rect class="cls-3" x="72" y="72" width="63" height="63"/><rect class="cls-2" x="72" y="72" width="9" height="9"/><polygon class="cls-2" points="81 81 81 90 81 99 90 99 90 90 99 90 99 81 81 81"/><polygon points="216 81 207 72 144 72 144 134.12 153 144 216 144 216 81"/><rect class="cls-3" x="144" y="72" width="63" height="63"/><rect class="cls-2" x="144" y="72" width="9" height="9"/><polygon class="cls-2" points="153 81 153 90 153 99 162 99 162 90 171 90 171 81 153 81"/><polygon points="288 153 279 144 216 144 216 206.12 225 216 288 216 288 153"/><rect class="cls-3" x="216" y="144" width="63" height="63"/><rect class="cls-2" x="216" y="144" width="9" height="9"/><polygon class="cls-2" points="225 153 225 162 225 171 234 171 234 162 243 162 243 153 225 153"/><polygon points="288 81 279 72 216 72 216 134.12 225 144 288 144 288 81"/><rect class="cls-3" x="216" y="72" width="63" height="63"/><rect class="cls-2" x="216" y="72" width="9" height="9"/><polygon class="cls-2" points="225 81 225 90 225 99 234 99 234 90 243 90 243 81 225 81"/><polygon points="360 81 351 72 288 72 288 134.12 297 144 360 144 360 81"/><rect class="cls-3" x="288" y="72" width="63" height="63"/><rect class="cls-2" x="288" y="72" width="9" height="9"/><polygon class="cls-2" points="297 81 297 90 297 99 306 99 306 90 315 90 315 81 297 81"/><polygon points="360 9 351 0 288 0 288 62.12 297 72 360 72 360 9"/><rect class="cls-3" x="288" width="63" height="63"/><rect class="cls-2" x="288" width="9" height="9"/><polygon class="cls-2" points="297 9 297 18 297 27 306 27 306 18 315 18 315 9 297 9"/><polygon points="288 225 279 216 216 216 216 278.12 225 288 288 288 288 225"/><rect class="cls-3" x="216" y="216" width="63" height="63"/><rect class="cls-2" x="216" y="216" width="9" height="9"/><polygon class="cls-2" points="225 225 225 234 225 243 234 243 234 234 243 234 243 225 225 225"/><polygon points="288 297 279 288 216 288 216 350.12 225 360 288 360 288 297"/><rect class="cls-3" x="216" y="288" width="63" height="63"/><rect class="cls-2" x="216" y="288" width="9" height="9"/><polygon class="cls-2" points="225 297 225 306 225 315 234 315 234 306 243 306 243 297 225 297"/><polygon points="216 297 207 288 144 288 144 350.12 153 360 216 360 216 297"/><rect class="cls-3" x="144" y="288" width="63" height="63"/><rect class="cls-2" x="144" y="288" width="9" height="9"/><polygon class="cls-2" points="153 297 153 306 153 315 162 315 162 306 171 306 171 297 153 297"/><polygon points="144 297 135 288 72 288 72 350.12 81 360 144 360 144 297"/><rect class="cls-3" x="72" y="288" width="63" height="63"/><rect class="cls-2" x="72" y="288" width="9" height="9"/><polygon class="cls-2" points="81 297 81 306 81 315 90 315 90 306 99 306 99 297 81 297"/><rect class="cls-2" x="360" y="216" width="9" height="9"/><rect class="cls-2" x="432" y="216" width="9" height="9"/><rect class="cls-2" x="432" y="144" width="9" height="9"/></svg>