<svg id="Layer_1" data-name="Layer 1" xmlns="http://www.w3.org/2000/svg" width="720" height="360" viewBox="0 0 720 360"><defs><style>.cls-1{fill:#1565c0;}.cls-2,.cls-5{fill:#fff;}.cls-2{opacity:0.24;}.cls-2,.cls-3,.cls-4,.cls-5{isolation:isolate;}.cls-3{opacity:0.25;}.cls-4{opacity:0.1;}.cls-5{opacity:0.12;}.cls-6{fill:#fbc02d;}.cls-7{fill:#7b1fa2;}.cls-8{fill:#388e3c;}.cls-9{fill:#f57c00;}.cls-10{fill:#039be5;}.cls-11{fill:#d32f2f;}.cls-12{opacity:0.5;}</style></defs><title>tetrax</title><rect class="cls-1" y="288" width="72" height="72"/><polygon class="cls-2" points="67.5 288 0 288 0 291.5 0 292.5 0 355.5 4.5 355.5 4.5 292.5 67.5 292.5 67.5 288"/><polygon class="cls-3" points="67.5 288 67.5 355.5 0 355.5 0 360 67.5 360 72 360 72 355.5 72 288 67.5 288"/><polygon class="cls-4" points="49.5 337.5 49.5 310.5 54 306 18 306 18 342 22.5 337.5 49.5 337.5"/><path class="cls-5" d="M4.5,292.5V333A91.42,91.42,0,0,1,18,323.21V306H54v5.05a92.23,92.23,0,0,1,13.5-.55v-18Z"/><rect class="cls-1" x="72" y="288" width="72" height="72"/><polygon class="cls-2" points="139.5 288 72 288 72 291.5 72 292.5 72 355.5 76.5 355.5 76.5 292.5 139.5 292.5 139.5 288"/><polygon class="cls-3" points="139.5 288 139.5 355.5 72 355.5 72 360 139.5 360 144 360 144 355.5 144 288 139.5 288"/><polygon class="cls-4" points="121.5 337.5 121.5 310.5 126 306 90 306 90 342 94.5 337.5 121.5 337.5"/><path class="cls-5" d="M76.5,292.5V333A91.42,91.42,0,0,1,90,323.21V306h36v5.05a92.23,92.23,0,0,1,13.5-.55v-18Z"/><rect class="cls-1" x="144" y="288" width="72" height="72"/><polygon class="cls-2" points="211.5 288 144 288 144 291.5 144 292.5 144 355.5 148.5 355.5 148.5 292.5 211.5 292.5 211.5 288"/><polygon class="cls-3" points="211.5 288 211.5 355.5 144 355.5 144 360 211.5 360 216 360 216 355.5 216 288 211.5 288"/><polygon class="cls-4" points="193.5 337.5 193.5 310.5 198 306 162 306 162 342 166.5 337.5 193.5 337.5"/><path class="cls-5" d="M148.5,292.5V333a91.42,91.42,0,0,1,13.5-9.79V306h36v5.05a92.23,92.23,0,0,1,13.5-.55v-18Z"/><rect class="cls-1" y="216" width="72" height="72"/><polygon class="cls-2" points="67.5 216 0 216 0 219.5 0 220.5 0 283.5 4.5 283.5 4.5 220.5 67.5 220.5 67.5 216"/><polygon class="cls-3" points="67.5 216 67.5 283.5 0 283.5 0 288 67.5 288 72 288 72 283.5 72 216 67.5 216"/><polygon class="cls-4" points="49.5 265.5 49.5 238.5 54 234 18 234 18 270 22.5 265.5 49.5 265.5"/><path class="cls-5" d="M4.5,220.5V261A91.42,91.42,0,0,1,18,251.21V234H54v5.05a92.23,92.23,0,0,1,13.5-.55v-18Z"/><rect class="cls-6" x="288" y="288" width="72" height="72"/><polygon class="cls-2" points="355.5 288 288 288 288 291.5 288 292.5 288 355.5 292.5 355.5 292.5 292.5 355.5 292.5 355.5 288"/><polygon class="cls-3" points="355.5 288 355.5 355.5 288 355.5 288 360 355.5 360 360 360 360 355.5 360 288 355.5 288"/><polygon class="cls-4" points="337.5 337.5 337.5 310.5 342 306 306 306 306 342 310.5 337.5 337.5 337.5"/><path class="cls-5" d="M292.5,292.5V333a91.42,91.42,0,0,1,13.5-9.79V306h36v5.05a92.23,92.23,0,0,1,13.5-.55v-18Z"/><rect class="cls-6" x="360" y="288" width="72" height="72"/><polygon class="cls-2" points="427.5 288 360 288 360 291.5 360 292.5 360 355.5 364.5 355.5 364.5 292.5 427.5 292.5 427.5 288"/><polygon class="cls-3" points="427.5 288 427.5 355.5 360 355.5 360 360 427.5 360 432 360 432 355.5 432 288 427.5 288"/><polygon class="cls-4" points="409.5 337.5 409.5 310.5 414 306 378 306 378 342 382.5 337.5 409.5 337.5"/><path class="cls-5" d="M364.5,292.5V333a91.42,91.42,0,0,1,13.5-9.79V306h36v5.05a92.23,92.23,0,0,1,13.5-.55v-18Z"/><rect class="cls-6" x="432" y="288" width="72" height="72"/><polygon class="cls-2" points="499.5 288 432 288 432 291.5 432 292.5 432 355.5 436.5 355.5 436.5 292.5 499.5 292.5 499.5 288"/><polygon class="cls-3" points="499.5 288 499.5 355.5 432 355.5 432 360 499.5 360 504 360 504 355.5 504 288 499.5 288"/><polygon class="cls-4" points="481.5 337.5 481.5 310.5 486 306 450 306 450 342 454.5 337.5 481.5 337.5"/><path class="cls-5" d="M436.5,292.5V333a91.42,91.42,0,0,1,13.5-9.79V306h36v5.05a92.23,92.23,0,0,1,13.5-.55v-18Z"/><rect class="cls-6" x="432" y="216" width="72" height="72"/><polygon class="cls-2" points="499.5 216 432 216 432 219.5 432 220.5 432 283.5 436.5 283.5 436.5 220.5 499.5 220.5 499.5 216"/><polygon class="cls-3" points="499.5 216 499.5 283.5 432 283.5 432 288 499.5 288 504 288 504 283.5 504 216 499.5 216"/><polygon class="cls-4" points="481.5 265.5 481.5 238.5 486 234 450 234 450 270 454.5 265.5 481.5 265.5"/><path class="cls-5" d="M436.5,220.5V261a91.42,91.42,0,0,1,13.5-9.79V234h36v5.05a92.23,92.23,0,0,1,13.5-.55v-18Z"/><rect class="cls-7" x="216" y="288" width="72" height="72"/><polygon class="cls-2" points="283.5 288 216 288 216 291.5 216 292.5 216 355.5 220.5 355.5 220.5 292.5 283.5 292.5 283.5 288"/><polygon class="cls-3" points="283.5 288 283.5 355.5 216 355.5 216 360 283.5 360 288 360 288 355.5 288 288 283.5 288"/><polygon class="cls-4" points="265.5 337.5 265.5 310.5 270 306 234 306 234 342 238.5 337.5 265.5 337.5"/><path class="cls-5" d="M220.5,292.5V333a91.42,91.42,0,0,1,13.5-9.79V306h36v5.05a92.23,92.23,0,0,1,13.5-.55v-18Z"/><rect class="cls-7" x="216" y="216" width="72" height="72"/><polygon class="cls-2" points="283.5 216 216 216 216 219.5 216 220.5 216 283.5 220.5 283.5 220.5 220.5 283.5 220.5 283.5 216"/><polygon class="cls-3" points="283.5 216 283.5 283.5 216 283.5 216 288 283.5 288 288 288 288 283.5 288 216 283.5 216"/><polygon class="cls-4" points="265.5 265.5 265.5 238.5 270 234 234 234 234 270 238.5 265.5 265.5 265.5"/><path class="cls-5" d="M220.5,220.5V261a91.42,91.42,0,0,1,13.5-9.79V234h36v5.05a92.23,92.23,0,0,1,13.5-.55v-18Z"/><rect class="cls-7" x="144" y="216" width="72" height="72"/><polygon class="cls-2" points="211.5 216 144 216 144 219.5 144 220.5 144 283.5 148.5 283.5 148.5 220.5 211.5 220.5 211.5 216"/><polygon class="cls-3" points="211.5 216 211.5 283.5 144 283.5 144 288 211.5 288 216 288 216 283.5 216 216 211.5 216"/><polygon class="cls-4" points="193.5 265.5 193.5 238.5 198 234 162 234 162 270 166.5 265.5 193.5 265.5"/><path class="cls-5" d="M148.5,220.5V261a91.42,91.42,0,0,1,13.5-9.79V234h36v5.05a92.23,92.23,0,0,1,13.5-.55v-18Z"/><rect class="cls-7" x="288" y="216" width="72" height="72"/><polygon class="cls-2" points="355.5 216 288 216 288 219.5 288 220.5 288 283.5 292.5 283.5 292.5 220.5 355.5 220.5 355.5 216"/><polygon class="cls-3" points="355.5 216 355.5 283.5 288 283.5 288 288 355.5 288 360 288 360 283.5 360 216 355.5 216"/><polygon class="cls-4" points="337.5 265.5 337.5 238.5 342 234 306 234 306 270 310.5 265.5 337.5 265.5"/><path class="cls-5" d="M292.5,220.5V261a91.42,91.42,0,0,1,13.5-9.79V234h36v5.05a92.23,92.23,0,0,1,13.5-.55v-18Z"/><rect class="cls-8" x="504" y="216" width="72" height="72"/><polygon class="cls-2" points="571.5 216 504 216 504 219.5 504 220.5 504 283.5 508.5 283.5 508.5 220.5 571.5 220.5 571.5 216"/><polygon class="cls-3" points="571.5 216 571.5 283.5 504 283.5 504 288 571.5 288 576 288 576 283.5 576 216 571.5 216"/><polygon class="cls-4" points="553.5 265.5 553.5 238.5 558 234 522 234 522 270 526.5 265.5 553.5 265.5"/><path class="cls-5" d="M508.5,220.5V261a91.42,91.42,0,0,1,13.5-9.79V234h36v5.05a92.23,92.23,0,0,1,13.5-.55v-18Z"/><rect class="cls-8" x="576" y="216" width="72" height="72"/><polygon class="cls-2" points="643.5 216 576 216 576 219.5 576 220.5 576 283.5 580.5 283.5 580.5 220.5 643.5 220.5 643.5 216"/><polygon class="cls-3" points="643.5 216 643.5 283.5 576 283.5 576 288 643.5 288 648 288 648 283.5 648 216 643.5 216"/><polygon class="cls-4" points="625.5 265.5 625.5 238.5 630 234 594 234 594 270 598.5 265.5 625.5 265.5"/><path class="cls-5" d="M580.5,220.5V261a91.42,91.42,0,0,1,13.5-9.79V234h36v5.05a92.23,92.23,0,0,1,13.5-.55v-18Z"/><rect class="cls-8" x="576" y="288" width="72" height="72"/><polygon class="cls-2" points="643.5 288 576 288 576 291.5 576 292.5 576 355.5 580.5 355.5 580.5 292.5 643.5 292.5 643.5 288"/><polygon class="cls-3" points="643.5 288 643.5 355.5 576 355.5 576 360 643.5 360 648 360 648 355.5 648 288 643.5 288"/><polygon class="cls-4" points="625.5 337.5 625.5 310.5 630 306 594 306 594 342 598.5 337.5 625.5 337.5"/><path class="cls-5" d="M580.5,292.5V333a91.42,91.42,0,0,1,13.5-9.79V306h36v5.05a92.23,92.23,0,0,1,13.5-.55v-18Z"/><rect class="cls-8" x="504" y="288" width="72" height="72"/><polygon class="cls-2" points="571.5 288 504 288 504 291.5 504 292.5 504 355.5 508.5 355.5 508.5 292.5 571.5 292.5 571.5 288"/><polygon class="cls-3" points="571.5 288 571.5 355.5 504 355.5 504 360 571.5 360 576 360 576 355.5 576 288 571.5 288"/><polygon class="cls-4" points="553.5 337.5 553.5 310.5 558 306 522 306 522 342 526.5 337.5 553.5 337.5"/><path class="cls-5" d="M508.5,292.5V333a91.42,91.42,0,0,1,13.5-9.79V306h36v5.05a92.23,92.23,0,0,1,13.5-.55v-18Z"/><rect class="cls-9" x="648" y="288" width="72" height="72"/><polygon class="cls-2" points="715.5 288 648 288 648 291.5 648 292.5 648 355.5 652.5 355.5 652.5 292.5 715.5 292.5 715.5 288"/><polygon class="cls-3" points="715.5 288 715.5 355.5 648 355.5 648 360 715.5 360 720 360 720 355.5 720 288 715.5 288"/><polygon class="cls-4" points="697.5 337.5 697.5 310.5 702 306 666 306 666 342 670.5 337.5 697.5 337.5"/><path class="cls-5" d="M652.5,292.5V333a91.42,91.42,0,0,1,13.5-9.79V306h36v5.05a92.23,92.23,0,0,1,13.5-.55v-18Z"/><rect class="cls-9" x="648" y="216" width="72" height="72"/><polygon class="cls-2" points="715.5 216 648 216 648 219.5 648 220.5 648 283.5 652.5 283.5 652.5 220.5 715.5 220.5 715.5 216"/><polygon class="cls-3" points="715.5 216 715.5 283.5 648 283.5 648 288 715.5 288 720 288 720 283.5 720 216 715.5 216"/><polygon class="cls-4" points="697.5 265.5 697.5 238.5 702 234 666 234 666 270 670.5 265.5 697.5 265.5"/><path class="cls-5" d="M652.5,220.5V261a91.42,91.42,0,0,1,13.5-9.79V234h36v5.05a92.23,92.23,0,0,1,13.5-.55v-18Z"/><rect class="cls-9" x="648" y="144" width="72" height="72"/><polygon class="cls-2" points="715.5 144 648 144 648 147.5 648 148.5 648 211.5 652.5 211.5 652.5 148.5 715.5 148.5 715.5 144"/><polygon class="cls-3" points="715.5 144 715.5 211.5 648 211.5 648 216 715.5 216 720 216 720 211.5 720 144 715.5 144"/><polygon class="cls-4" points="697.5 193.5 697.5 166.5 702 162 666 162 666 198 670.5 193.5 697.5 193.5"/><path class="cls-5" d="M652.5,148.5V189a91.42,91.42,0,0,1,13.5-9.79V162h36v5.05a92.23,92.23,0,0,1,13.5-.55v-18Z"/><rect class="cls-9" x="648" y="72" width="72" height="72"/><polygon class="cls-2" points="715.5 72 648 72 648 75.5 648 76.5 648 139.5 652.5 139.5 652.5 76.5 715.5 76.5 715.5 72"/><polygon class="cls-3" points="715.5 72 715.5 139.5 648 139.5 648 144 715.5 144 720 144 720 139.5 720 72 715.5 72"/><polygon class="cls-4" points="697.5 121.5 697.5 94.5 702 90 666 90 666 126 670.5 121.5 697.5 121.5"/><path class="cls-5" d="M652.5,76.5V117a91.42,91.42,0,0,1,13.5-9.79V90h36v5a92.23,92.23,0,0,1,13.5-.55v-18Z"/><rect class="cls-10" x="72" y="216" width="72" height="72"/><polygon class="cls-2" points="139.5 216 72 216 72 219.5 72 220.5 72 283.5 76.5 283.5 76.5 220.5 139.5 220.5 139.5 216"/><polygon class="cls-3" points="139.5 216 139.5 283.5 72 283.5 72 288 139.5 288 144 288 144 283.5 144 216 139.5 216"/><polygon class="cls-4" points="121.5 265.5 121.5 238.5 126 234 90 234 90 270 94.5 265.5 121.5 265.5"/><path class="cls-5" d="M76.5,220.5V261A91.42,91.42,0,0,1,90,251.21V234h36v5.05a92.23,92.23,0,0,1,13.5-.55v-18Z"/><rect class="cls-10" x="72" y="144" width="72" height="72"/><polygon class="cls-2" points="139.5 144 72 144 72 147.5 72 148.5 72 211.5 76.5 211.5 76.5 148.5 139.5 148.5 139.5 144"/><polygon class="cls-3" points="139.5 144 139.5 211.5 72 211.5 72 216 139.5 216 144 216 144 211.5 144 144 139.5 144"/><polygon class="cls-4" points="121.5 193.5 121.5 166.5 126 162 90 162 90 198 94.5 193.5 121.5 193.5"/><path class="cls-5" d="M76.5,148.5V189A91.42,91.42,0,0,1,90,179.21V162h36v5.05a92.23,92.23,0,0,1,13.5-.55v-18Z"/><rect class="cls-10" y="144" width="72" height="72"/><polygon class="cls-2" points="67.5 144 0 144 0 147.5 0 148.5 0 211.5 4.5 211.5 4.5 148.5 67.5 148.5 67.5 144"/><polygon class="cls-3" points="67.5 144 67.5 211.5 0 211.5 0 216 67.5 216 72 216 72 211.5 72 144 67.5 144"/><polygon class="cls-4" points="49.5 193.5 49.5 166.5 54 162 18 162 18 198 22.5 193.5 49.5 193.5"/><path class="cls-5" d="M4.5,148.5V189A91.42,91.42,0,0,1,18,179.21V162H54v5.05a92.23,92.23,0,0,1,13.5-.55v-18Z"/><rect class="cls-10" y="72" width="72" height="72"/><polygon class="cls-2" points="67.5 72 0 72 0 75.5 0 76.5 0 139.5 4.5 139.5 4.5 76.5 67.5 76.5 67.5 72"/><polygon class="cls-3" points="67.5 72 67.5 139.5 0 139.5 0 144 67.5 144 72 144 72 139.5 72 72 67.5 72"/><polygon class="cls-4" points="49.5 121.5 49.5 94.5 54 90 18 90 18 126 22.5 121.5 49.5 121.5"/><path class="cls-5" d="M4.5,76.5V117A91.42,91.42,0,0,1,18,107.21V90H54v5a92.23,92.23,0,0,1,13.5-.55v-18Z"/><rect class="cls-11" x="216" y="144" width="72" height="72"/><polygon class="cls-2" points="283.5 144 216 144 216 147.5 216 148.5 216 211.5 220.5 211.5 220.5 148.5 283.5 148.5 283.5 144"/><polygon class="cls-3" points="283.5 144 283.5 211.5 216 211.5 216 216 283.5 216 288 216 288 211.5 288 144 283.5 144"/><polygon class="cls-4" points="265.5 193.5 265.5 166.5 270 162 234 162 234 198 238.5 193.5 265.5 193.5"/><path class="cls-5" d="M220.5,148.5V189a91.42,91.42,0,0,1,13.5-9.79V162h36v5.05a92.23,92.23,0,0,1,13.5-.55v-18Z"/><rect class="cls-11" x="144" y="144" width="72" height="72"/><polygon class="cls-2" points="211.5 144 144 144 144 147.5 144 148.5 144 211.5 148.5 211.5 148.5 148.5 211.5 148.5 211.5 144"/><polygon class="cls-3" points="211.5 144 211.5 211.5 144 211.5 144 216 211.5 216 216 216 216 211.5 216 144 211.5 144"/><polygon class="cls-4" points="193.5 193.5 193.5 166.5 198 162 162 162 162 198 166.5 193.5 193.5 193.5"/><path class="cls-5" d="M148.5,148.5V189a91.42,91.42,0,0,1,13.5-9.79V162h36v5.05a92.23,92.23,0,0,1,13.5-.55v-18Z"/><rect class="cls-11" x="144" y="72" width="72" height="72"/><polygon class="cls-2" points="211.5 72 144 72 144 75.5 144 76.5 144 139.5 148.5 139.5 148.5 76.5 211.5 76.5 211.5 72"/><polygon class="cls-3" points="211.5 72 211.5 139.5 144 139.5 144 144 211.5 144 216 144 216 139.5 216 72 211.5 72"/><polygon class="cls-4" points="193.5 121.5 193.5 94.5 198 90 162 90 162 126 166.5 121.5 193.5 121.5"/><path class="cls-5" d="M148.5,76.5V117a91.42,91.42,0,0,1,13.5-9.79V90h36v5a92.23,92.23,0,0,1,13.5-.55v-18Z"/><rect class="cls-11" x="72" y="72" width="72" height="72"/><polygon class="cls-2" points="139.5 72 72 72 72 75.5 72 76.5 72 139.5 76.5 139.5 76.5 76.5 139.5 76.5 139.5 72"/><polygon class="cls-3" points="139.5 72 139.5 139.5 72 139.5 72 144 139.5 144 144 144 144 139.5 144 72 139.5 72"/><polygon class="cls-4" points="121.5 121.5 121.5 94.5 126 90 90 90 90 126 94.5 121.5 121.5 121.5"/><path class="cls-5" d="M76.5,76.5V117A91.42,91.42,0,0,1,90,107.21V90h36v5a92.23,92.23,0,0,1,13.5-.55v-18Z"/><rect class="cls-7" x="360" width="72" height="72"/><path class="cls-5" d="M364.5,4.5V45a90.82,90.82,0,0,1,63-22.5V4.5Z"/><polygon class="cls-2" points="427.5 0 360 0 360 3.5 360 4.5 360 67.5 364.5 67.5 364.5 4.5 427.5 4.5 427.5 0"/><polygon class="cls-3" points="427.5 0 427.5 67.5 360 67.5 360 72 427.5 72 432 72 432 67.5 432 0 427.5 0"/><path class="cls-7" d="M423,220.72H364.3v62.57h63.19V220.72Zm0,58.1H368.81V225.19H423Z"/><g class="cls-12"><path class="cls-7" d="M368.81,225.19v35.75a78.09,78.09,0,0,1,27.08-15.89,76.39,76.39,0,0,1,27.08-4V225.19Z"/></g><polygon class="cls-3" points="422.97 220.72 422.97 278.82 364.3 278.82 364.3 283.29 422.97 283.29 427.49 283.29 427.49 220.72 422.97 220.72"/><path class="cls-7" d="M423,148.72H364.3v62.57h63.19V148.72Zm0,58.1H368.81V153.19H423Z"/><g class="cls-12"><path class="cls-7" d="M368.81,153.19v35.75a78.09,78.09,0,0,1,27.08-15.89,76.39,76.39,0,0,1,27.08-4V153.19Z"/></g><polygon class="cls-3" points="422.97 148.72 422.97 206.82 364.3 206.82 364.3 211.29 422.97 211.29 427.49 211.29 427.49 148.72 422.97 148.72"/><path class="cls-7" d="M351,148.72H292.3v62.57h63.19V148.72Zm0,58.1H296.81V153.19H351Z"/><g class="cls-12"><path class="cls-7" d="M296.81,153.19v35.75a78.09,78.09,0,0,1,27.08-15.89,76.39,76.39,0,0,1,27.08-4V153.19Z"/></g><polygon class="cls-3" points="350.97 148.72 350.97 206.82 292.3 206.82 292.3 211.29 350.97 211.29 355.49 211.29 355.49 148.72 350.97 148.72"/><path class="cls-7" d="M495,148.72H436.3v62.57h63.19V148.72Zm0,58.1H440.81V153.19H495Z"/><g class="cls-12"><path class="cls-7" d="M440.81,153.19v35.75a78.09,78.09,0,0,1,27.08-15.89,76.39,76.39,0,0,1,27.08-4V153.19Z"/></g><polygon class="cls-3" points="494.97 148.72 494.97 206.82 436.3 206.82 436.3 211.29 494.97 211.29 499.49 211.29 499.49 148.72 494.97 148.72"/></svg>