<svg id="Layer_1" data-name="Layer 1" xmlns="http://www.w3.org/2000/svg" width="144" height="144" viewBox="0 0 144 144"><defs><style>.cls-1{fill:#ffe37b;}.cls-2{fill:#fff;}</style></defs><title>mino-t</title><path d="M126,0H0V144H144V0Zm0,126H18V18H126Z"/><path d="M270,0H144V144H288V0Zm0,126H162V18H270Z"/><rect class="cls-1" x="18" y="18" width="108" height="108"/><polygon class="cls-2" points="36 36 36 54 36 90 54 90 54 54 108 54 108 36 36 36"/><polygon points="108 108 108 90 108 54 90 54 90 90 36 90 36 108 108 108"/></svg>