<svg id="Layer_1" data-name="Layer 1" xmlns="http://www.w3.org/2000/svg" width="144" height="144" viewBox="0 0 144 144"><defs><style>.cls-1{fill:#ffe37b;}.cls-2{fill:#ef616b;}</style></defs><title>mino-i1</title><rect width="144" height="144"/><rect class="cls-1" x="18" y="18" width="126" height="108"/><rect class="cls-2" x="18" y="54" width="18" height="18" transform="translate(-36 90) rotate(-90)"/><rect class="cls-2" x="36" y="18" width="18" height="18" transform="translate(18 72) rotate(-90)"/><rect class="cls-2" x="72" y="54" width="18" height="18" transform="translate(18 144) rotate(-90)"/><rect class="cls-2" x="72" y="108" width="18" height="18" transform="translate(-36 198) rotate(-90)"/><rect class="cls-2" x="108" y="90" width="18" height="18" transform="translate(18 216) rotate(-90)"/><rect class="cls-2" x="108" y="54" width="18" height="18" transform="translate(54 180) rotate(-90)"/><rect class="cls-2" x="90" y="18" width="18" height="18" transform="translate(72 126) rotate(-90)"/><rect class="cls-2" x="36" y="90" width="18" height="18" transform="translate(-54 144) rotate(-90)"/></svg>