<svg id="Layer_1" data-name="Layer 1" xmlns="http://www.w3.org/2000/svg" width="144" height="144" viewBox="0 0 144 144"><defs><style>.cls-1{fill:#ffe37b;}.cls-2{fill:#ef616b;}</style></defs><title>mino-i3</title><rect width="144" height="144"/><rect class="cls-1" x="-144" y="18" width="144" height="108"/><rect class="cls-1" y="18" width="126" height="108"/><rect class="cls-2" x="-18" y="90" width="18" height="18" transform="translate(-108 90) rotate(-90)"/><rect class="cls-2" x="36" y="108" width="18" height="18" transform="translate(-72 162) rotate(-90)"/><rect class="cls-2" x="72" y="108" width="18" height="18" transform="translate(-36 198) rotate(-90)"/><rect class="cls-2" x="54" y="72" width="18" height="18" transform="translate(-18 144) rotate(-90)"/><rect class="cls-2" x="18" y="72" width="18" height="18" transform="translate(-54 108) rotate(-90)"/><rect class="cls-2" x="36" y="36" width="18" height="18" transform="translate(0 90) rotate(-90)"/><rect class="cls-2" y="18" width="18" height="18" transform="translate(-18 36) rotate(-90)"/><rect class="cls-2" x="72" y="18" width="18" height="18" transform="translate(54 108) rotate(-90)"/><rect class="cls-2" x="90" y="54" width="18" height="18" transform="translate(36 162) rotate(-90)"/><rect class="cls-2" x="108" y="90" width="18" height="18" transform="translate(18 216) rotate(-90)"/></svg>