<svg id="Layer_1" data-name="Layer 1" xmlns="http://www.w3.org/2000/svg" width="144" height="144" viewBox="0 0 144 144"><defs><style>.cls-1{fill:#afafaf;}</style></defs><title>ghost-white</title><path class="cls-1" d="M30.64,21.66c-1.47-2-8.27.71-10.25,6.66-.95,2.85-.76,6.32,0,6.66s1.57-4.17,5.12-6.66c2.35-1.65,4.28-1.21,5.13-3.33A4,4,0,0,0,30.64,21.66Z"/><path class="cls-1" d="M123,9H21A12,12,0,0,0,9,21V123a12,12,0,0,0,12,12H123a12,12,0,0,0,12-12V21A12,12,0,0,0,123,9Zm3,105a12,12,0,0,1-12,12H30a12,12,0,0,1-12-12V30A12,12,0,0,1,30,18h84a12,12,0,0,1,12,12Z"/><rect class="cls-1" x="27" y="27" width="90" height="90" rx="8.57"/></svg>