<svg id="Layer_1" data-name="Layer 1" xmlns="http://www.w3.org/2000/svg" width="144" height="144" viewBox="0 0 144 144"><defs><style>.cls-1{fill:#f83800;}</style></defs><title>ghost-orange</title><path class="cls-1" d="M55.84,26.57C51.92,22.41,33.76,28,28.46,40.26c-2.54,5.87-2,13,0,13.69,2.42.82,4.21-8.57,13.69-13.69,6.28-3.39,11.43-2.49,13.69-6.84C56.87,31.41,57.36,28.18,55.84,26.57Z"/><path class="cls-1" d="M123,9H21A12,12,0,0,0,9,21V123a12,12,0,0,0,12,12H123a12,12,0,0,0,12-12V21A12,12,0,0,0,123,9Zm3,105a12,12,0,0,1-12,12H30a12,12,0,0,1-12-12V30A12,12,0,0,1,30,18h84a12,12,0,0,1,12,12Z"/></svg>